<svg width="237" height="60" viewBox="0 0 237 60" fill="none" xmlns="http://www.w3.org/2000/svg">
<rect width="237" height="60" rx="30" fill="black"/>
<path d="M75.7183 30.879C75.0439 27.3756 78.2656 25.321 78.2656 25.321C78.2656 25.321 77.0104 23.4466 74.9008 22.9644C72.7923 22.4811 71.737 23.0849 70.6837 23.5378C69.6294 23.9917 69.1034 23.9917 69.1034 23.9917C67.582 23.9917 66.4698 22.3291 63.5711 23.086C61.5741 23.6062 59.4719 25.9856 59.092 28.8254C58.7122 31.6663 59.5319 35.2913 61.1122 38.1007C62.6925 40.9123 64.3024 41.9689 65.445 41.9993C66.5876 42.0286 67.7282 41.1545 69.1034 40.9416C70.4796 40.7309 71.3266 41.4564 72.6765 41.8484C74.0211 42.2394 74.4925 41.8766 76.0413 40.517C77.5943 39.1573 79 35.2576 79 35.2576C79 35.2576 76.3927 34.3845 75.7183 30.879Z" fill="white"/>
<path d="M72.7335 21.004C74.2275 19.4326 73.7215 17 73.7215 17C73.7215 17 71.6235 17.3801 70.2178 18.8896C68.8131 20.4002 69.0456 22.7861 69.0456 22.7861C69.0456 22.7861 71.2394 22.5743 72.7335 21.004Z" fill="white"/>
<path d="M99.3 38L98.46 35.48H92.88L92.04 38H89.06L93.96 24H97.38L102.3 38H99.3ZM93.76 32.9H97.6L95.68 27.18L93.76 32.9ZM109.425 27.72C110.772 27.72 111.919 28.2333 112.865 29.26C113.825 30.2733 114.305 31.52 114.305 33C114.305 34.48 113.825 35.7333 112.865 36.76C111.919 37.7733 110.772 38.28 109.425 38.28C108.025 38.28 106.945 37.7933 106.185 36.82V42H103.605V28H106.185V29.18C106.945 28.2067 108.025 27.72 109.425 27.72ZM106.965 35.04C107.485 35.56 108.145 35.82 108.945 35.82C109.745 35.82 110.405 35.56 110.925 35.04C111.459 34.5067 111.725 33.8267 111.725 33C111.725 32.1733 111.459 31.5 110.925 30.98C110.405 30.4467 109.745 30.18 108.945 30.18C108.145 30.18 107.485 30.4467 106.965 30.98C106.445 31.5 106.185 32.1733 106.185 33C106.185 33.8267 106.445 34.5067 106.965 35.04ZM122.011 27.72C123.358 27.72 124.504 28.2333 125.451 29.26C126.411 30.2733 126.891 31.52 126.891 33C126.891 34.48 126.411 35.7333 125.451 36.76C124.504 37.7733 123.358 38.28 122.011 38.28C120.611 38.28 119.531 37.7933 118.771 36.82V42H116.191V28H118.771V29.18C119.531 28.2067 120.611 27.72 122.011 27.72ZM119.551 35.04C120.071 35.56 120.731 35.82 121.531 35.82C122.331 35.82 122.991 35.56 123.511 35.04C124.044 34.5067 124.311 33.8267 124.311 33C124.311 32.1733 124.044 31.5 123.511 30.98C122.991 30.4467 122.331 30.18 121.531 30.18C120.731 30.18 120.071 30.4467 119.551 30.98C119.031 31.5 118.771 32.1733 118.771 33C118.771 33.8267 119.031 34.5067 119.551 35.04ZM136.222 30.84C136.222 31.1067 136.396 31.3267 136.742 31.5C137.102 31.66 137.536 31.8067 138.042 31.94C138.549 32.06 139.056 32.22 139.562 32.42C140.069 32.6067 140.496 32.9267 140.842 33.38C141.202 33.8333 141.382 34.4 141.382 35.08C141.382 36.1067 140.996 36.9 140.222 37.46C139.462 38.0067 138.509 38.28 137.362 38.28C135.309 38.28 133.909 37.4867 133.162 35.9L135.402 34.64C135.696 35.5067 136.349 35.94 137.362 35.94C138.282 35.94 138.742 35.6533 138.742 35.08C138.742 34.8133 138.562 34.6 138.202 34.44C137.856 34.2667 137.429 34.1133 136.922 33.98C136.416 33.8467 135.909 33.68 135.402 33.48C134.896 33.28 134.462 32.9667 134.102 32.54C133.756 32.1 133.582 31.5533 133.582 30.9C133.582 29.9133 133.942 29.14 134.662 28.58C135.396 28.0067 136.302 27.72 137.382 27.72C138.196 27.72 138.936 27.9067 139.602 28.28C140.269 28.64 140.796 29.16 141.182 29.84L138.982 31.04C138.662 30.36 138.129 30.02 137.382 30.02C137.049 30.02 136.769 30.0933 136.542 30.24C136.329 30.3867 136.222 30.5867 136.222 30.84ZM148.535 30.48H146.275V34.64C146.275 34.9867 146.361 35.24 146.535 35.4C146.708 35.56 146.961 35.6533 147.295 35.68C147.628 35.6933 148.041 35.6867 148.535 35.66V38C146.761 38.2 145.508 38.0333 144.775 37.5C144.055 36.9667 143.695 36.0133 143.695 34.64V30.48H141.955V28H143.695V25.98L146.275 25.2V28H148.535V30.48ZM158.627 36.76C157.601 37.7733 156.347 38.28 154.867 38.28C153.387 38.28 152.134 37.7733 151.107 36.76C150.094 35.7333 149.587 34.48 149.587 33C149.587 31.52 150.094 30.2733 151.107 29.26C152.134 28.2333 153.387 27.72 154.867 27.72C156.347 27.72 157.601 28.2333 158.627 29.26C159.654 30.2733 160.167 31.52 160.167 33C160.167 34.48 159.654 35.7333 158.627 36.76ZM152.927 34.98C153.447 35.5 154.094 35.76 154.867 35.76C155.641 35.76 156.287 35.5 156.807 34.98C157.327 34.46 157.587 33.8 157.587 33C157.587 32.2 157.327 31.54 156.807 31.02C156.287 30.5 155.641 30.24 154.867 30.24C154.094 30.24 153.447 30.5 152.927 31.02C152.421 31.54 152.167 32.2 152.167 33C152.167 33.8 152.421 34.46 152.927 34.98ZM164.628 29.72C164.868 29.08 165.262 28.6 165.808 28.28C166.368 27.96 166.988 27.8 167.668 27.8V30.68C166.882 30.5867 166.175 30.7467 165.548 31.16C164.935 31.5733 164.628 32.26 164.628 33.22V38H162.048V28H164.628V29.72ZM171.052 34.06C171.399 35.3133 172.339 35.94 173.872 35.94C174.859 35.94 175.605 35.6067 176.112 34.94L178.192 36.14C177.205 37.5667 175.752 38.28 173.832 38.28C172.179 38.28 170.852 37.78 169.852 36.78C168.852 35.78 168.352 34.52 168.352 33C168.352 31.4933 168.845 30.24 169.832 29.24C170.819 28.2267 172.085 27.72 173.632 27.72C175.099 27.72 176.305 28.2267 177.252 29.24C178.212 30.2533 178.692 31.5067 178.692 33C178.692 33.3333 178.659 33.6867 178.592 34.06H171.052ZM171.012 32.06H176.112C175.965 31.38 175.659 30.8733 175.192 30.54C174.739 30.2067 174.219 30.04 173.632 30.04C172.939 30.04 172.365 30.22 171.912 30.58C171.459 30.9267 171.159 31.42 171.012 32.06Z" fill="white"/>
</svg>
