<svg width="401" height="422" viewBox="0 0 401 422" fill="none" xmlns="http://www.w3.org/2000/svg">
<path d="M284.805 312.577C283.669 311.368 170.988 190.245 170.988 114.811C171.013 51.6703 222.355 0.303467 285.496 0.303467C348.637 0.303467 400.004 51.6703 400.004 114.811C400.004 191.602 287.323 311.392 286.187 312.577L285.496 313.318L284.805 312.577ZM285.496 42.8829C245.879 42.8829 213.666 75.0951 213.666 114.712C213.666 154.33 245.879 186.542 285.496 186.542C325.113 186.542 357.326 154.33 357.326 114.712C357.326 75.0951 325.113 42.8829 285.496 42.8829Z" fill="#FF4077"/>
<path d="M285.492 1.24121C222.77 1.24121 171.922 52.0897 171.922 114.811C171.922 190.738 285.492 311.935 285.492 311.935C285.492 311.935 399.061 192.12 399.061 114.811C399.061 52.0897 348.213 1.24121 285.492 1.24121ZM285.492 187.48C245.307 187.48 212.724 154.897 212.724 114.712C212.724 74.5272 245.307 41.9447 285.492 41.9447C325.677 41.9447 358.259 74.5272 358.259 114.712C358.259 154.897 325.677 187.48 285.492 187.48Z" fill="#FF4077"/>
<path d="M283.889 372.361H34.2383V399.044H283.889V372.361Z" fill="url(#paint0_linear_2176_647)"/>
<path d="M4.63672 368.091H49.1908V413.361C49.1908 417.878 45.5129 421.531 41.0205 421.531H12.807C8.28991 421.531 4.63672 417.853 4.63672 413.361V368.091Z" fill="url(#paint1_linear_2176_647)"/>
<path d="M311.746 421.58H283.558C279.04 421.58 275.387 417.902 275.387 413.41V368.14H319.941V413.41C319.941 417.927 316.264 421.58 311.771 421.58H311.746Z" fill="url(#paint2_linear_2176_647)"/>
<path d="M41.2202 265.555L14.7345 264.247C9.62501 264 5.60156 259.779 5.60156 254.645C5.60156 249.338 9.89653 245.018 15.2282 245.018H23.7935C28.6315 245.018 33.0252 247.857 34.9999 252.3L37.2214 257.286H49.6373L41.2202 265.555Z" fill="url(#paint3_linear_2176_647)"/>
<path d="M283.343 265.555L309.829 264.247C314.938 264 318.962 259.779 318.962 254.645C318.962 249.338 314.667 245.018 309.335 245.018H300.77C295.932 245.018 291.538 247.857 289.563 252.3L287.342 257.286H274.926L283.343 265.555Z" fill="url(#paint4_linear_2176_647)"/>
<path d="M324.591 313.984V365.549C324.591 368.831 323.826 372.065 322.419 375.027L319.457 381.223C315.803 388.801 308.151 393.614 299.71 393.614H259.994C257.278 393.614 254.613 393.12 252.095 392.133L245.949 389.763C239.901 387.394 233.483 386.209 226.991 386.209H97.5994C91.0829 386.209 84.6651 387.394 78.6176 389.763L72.4714 392.133C69.9536 393.12 67.2878 393.614 64.5726 393.614H24.8318C16.4147 393.614 8.73803 388.801 5.13421 381.223L2.14748 375.027C0.740511 372.065 0 368.831 0 365.549V313.984C0 308.381 2.14748 302.975 6.02283 298.902L14.1438 290.362C14.1438 290.362 14.1438 290.337 14.1685 290.288L14.5881 289.868L41.2712 261.778C41.2712 261.778 50.4535 235.391 70.1017 206.659C70.1017 206.659 83.2582 200.785 159.506 200.513L165.035 200.489C241.308 200.76 254.464 206.659 254.464 206.659C274.113 235.391 283.295 261.778 283.295 261.778L312.15 292.164H312.175L318.543 298.878C322.394 302.951 324.566 308.356 324.566 313.96L324.591 313.984Z" fill="#1B79E8"/>
<path d="M324.591 313.984V365.549C324.591 368.832 323.826 372.065 322.419 375.027L319.457 381.223C315.803 388.801 308.151 393.614 299.71 393.614H259.994C257.278 393.614 254.613 393.12 252.095 392.133L245.949 389.763C239.901 387.394 233.483 386.209 226.991 386.209H97.5994C91.0829 386.209 84.6651 387.394 78.6176 389.763L72.4714 392.133C69.9536 393.12 67.2878 393.614 64.5726 393.614H24.8318C16.4147 393.614 8.73803 388.801 5.13421 381.223L2.14748 375.027C0.740511 372.065 0 368.832 0 365.549V313.984C0 308.381 2.14748 302.975 6.02283 298.903L14.1438 290.362C10.8115 296.212 65.634 316.971 90.8608 318.699C116.803 320.452 208.528 319.637 233.755 318.699C258.982 317.712 305.807 302.087 312.2 292.189H312.224L318.593 298.903C322.443 302.975 324.616 308.381 324.616 313.984H324.591Z" fill="#1B79E8"/>
<path d="M275.791 261.334C267.374 260.865 253.625 260.42 238.518 260.001C233.063 259.877 227.411 259.729 221.783 259.581C203.393 259.161 185.103 258.89 173.329 258.742C168.293 258.668 164.443 258.643 162.27 258.643C149.163 258.643 74.3717 259.877 48.75 261.309C52.65 247.56 66.0039 225.394 73.0881 213.052C78.0249 211.423 84.8623 210.214 92.9585 209.374C100.734 208.535 109.645 207.992 119.099 207.671C126.43 207.424 134.057 207.252 141.734 207.202C148.62 207.104 155.556 207.104 162.295 207.104C165.751 207.104 169.281 207.104 172.835 207.128C175.353 207.128 177.895 207.128 180.413 207.153C201.419 207.301 222.351 207.943 237.432 210.041C243.011 210.831 247.799 211.793 251.477 213.028C253.896 217.249 257.081 222.63 260.388 228.455C263.029 233.17 265.72 238.131 268.164 242.969C270.064 246.746 271.792 250.423 273.174 253.854C274.285 256.496 275.198 259.013 275.815 261.284L275.791 261.334Z" fill="url(#paint5_linear_2176_647)"/>
<path d="M233.731 318.699C233.731 318.699 189.868 321.241 162.296 321.241C130.948 321.241 90.8617 318.699 90.8617 318.699C90.8617 318.699 67.1406 327.634 67.1406 337.804C67.1406 345.629 80.8648 366.733 87.2085 376.064C89.1338 378.927 92.3674 380.605 95.7984 380.605H228.819C232.275 380.605 235.484 378.902 237.409 376.064C243.753 366.733 257.477 345.629 257.477 337.804C257.477 327.634 233.756 318.699 233.756 318.699H233.731Z" fill="url(#paint6_linear_2176_647)"/>
<path d="M33.3198 373.324C33.3198 378.804 28.8767 383.223 23.4216 383.223C17.9665 383.223 13.5234 378.78 13.5234 373.324C13.5234 367.869 17.9665 363.426 23.4216 363.426C28.8767 363.426 33.3198 367.869 33.3198 373.324Z" fill="url(#paint7_linear_2176_647)"/>
<path d="M23.4151 379.766C26.9732 379.766 29.8576 376.882 29.8576 373.324C29.8576 369.766 26.9732 366.882 23.4151 366.882C19.857 366.882 16.9727 369.766 16.9727 373.324C16.9727 376.882 19.857 379.766 23.4151 379.766Z" fill="url(#paint8_linear_2176_647)"/>
<path d="M291.246 373.324C291.246 378.804 295.689 383.223 301.144 383.223C306.599 383.223 311.042 378.78 311.042 373.324C311.042 367.869 306.599 363.426 301.144 363.426C295.689 363.426 291.246 367.869 291.246 373.324Z" fill="url(#paint9_linear_2176_647)"/>
<path d="M301.169 379.766C304.727 379.766 307.611 376.882 307.611 373.324C307.611 369.766 304.727 366.882 301.169 366.882C297.611 366.882 294.727 369.766 294.727 373.324C294.727 376.882 297.611 379.766 301.169 379.766Z" fill="url(#paint10_linear_2176_647)"/>
<path d="M18.8098 296.311C14.0211 295.718 8.54134 299.248 5.97424 306.036C4.5179 309.887 4.46853 315.268 4.8141 320.328C17.1313 332.645 45.9372 332.966 53.4657 332.176C61.0189 331.411 78.1 321.858 79.9513 317.711C81.8026 313.564 26.2149 297.224 18.8098 296.311Z" fill="url(#paint11_linear_2176_647)"/>
<path style="mix-blend-mode:screen" d="M24.9622 323.092C30.3607 323.092 34.737 318.716 34.737 313.318C34.737 307.919 30.3607 303.543 24.9622 303.543C19.5638 303.543 15.1875 307.919 15.1875 313.318C15.1875 318.716 19.5638 323.092 24.9622 323.092Z" fill="url(#paint12_radial_2176_647)"/>
<path style="mix-blend-mode:screen" d="M55.3914 318.698C55.3914 323.216 51.7382 326.869 47.2211 326.869C42.704 326.869 39.0508 323.216 39.0508 318.698C39.0508 314.181 42.704 310.528 47.2211 310.528C51.7382 310.528 55.3914 314.181 55.3914 318.698Z" fill="url(#paint13_radial_2176_647)"/>
<path d="M305.753 296.311C310.542 295.718 316.022 299.248 318.589 306.036C320.045 309.887 320.094 315.268 319.749 320.328C307.432 332.645 278.626 332.966 271.097 332.176C263.544 331.411 246.463 321.858 244.612 317.711C242.76 313.564 298.348 297.224 305.753 296.311Z" fill="url(#paint14_linear_2176_647)"/>
<path style="mix-blend-mode:screen" d="M299.611 323.092C305.009 323.092 309.385 318.716 309.385 313.318C309.385 307.919 305.009 303.543 299.611 303.543C294.212 303.543 289.836 307.919 289.836 313.318C289.836 318.716 294.212 323.092 299.611 323.092Z" fill="url(#paint15_radial_2176_647)"/>
<path style="mix-blend-mode:screen" d="M269.176 318.698C269.176 323.216 272.829 326.869 277.346 326.869C281.863 326.869 285.516 323.216 285.516 318.698C285.516 314.181 281.863 310.528 277.346 310.528C272.829 310.528 269.176 314.181 269.176 318.698Z" fill="url(#paint16_radial_2176_647)"/>
<path d="M200.871 353.922H125.068C124.454 353.922 123.957 354.42 123.957 355.033V372.213C123.957 372.826 124.454 373.324 125.068 373.324H200.871C201.485 373.324 201.982 372.826 201.982 372.213V355.033C201.982 354.42 201.485 353.922 200.871 353.922Z" fill="url(#paint17_linear_2176_647)"/>
<path d="M169.407 339.927H155.214C152.104 339.927 149.586 337.409 149.586 334.299C149.586 331.189 152.104 328.671 155.214 328.671H169.407C172.517 328.671 175.035 331.189 175.035 334.299C175.035 337.409 172.517 339.927 169.407 339.927Z" fill="url(#paint18_linear_2176_647)"/>
<path style="mix-blend-mode:screen" d="M269.172 254.052C258.039 255.583 238.835 257.36 217.287 255.36C187.345 252.522 156.441 227.616 146 210.313C152.467 210.214 158.959 210.214 165.253 210.214C168.487 210.214 171.794 210.214 175.127 210.239C177.496 210.239 179.866 210.239 182.236 210.263C201.909 210.411 221.532 211.004 235.676 212.978C240.909 213.719 245.377 214.632 248.832 215.792C251.103 219.742 254.09 224.802 257.175 230.257C259.644 234.675 262.162 239.316 264.457 243.858C266.234 247.388 267.839 250.843 269.147 254.077L269.172 254.052Z" fill="url(#paint19_linear_2176_647)"/>
<path d="M39.0765 268.122C27.6726 279.525 18.0212 286.56 21.8225 290.386C25.6238 294.188 80.0267 316.181 108.66 316.181C137.293 316.181 214.281 321.167 236.151 314.354C258.021 307.541 300.378 296.557 303.908 293.027C307.438 289.498 283.89 268.122 283.89 268.122H39.0765Z" fill="#1B79E8"/>
<path style="mix-blend-mode:screen" d="M305.457 261.951H310.097C314.318 261.951 317.749 258.52 317.749 254.299C317.749 250.078 314.318 246.647 310.097 246.647H305.457C301.236 246.647 297.805 250.078 297.805 254.299C297.805 258.52 301.236 261.951 305.457 261.951Z" fill="url(#paint20_linear_2176_647)"/>
<path style="mix-blend-mode:screen" d="M14.6637 261.951H19.3042C23.5251 261.951 26.9562 258.52 26.9562 254.299C26.9562 250.078 23.5251 246.647 19.3042 246.647H14.6637C10.4428 246.647 7.01172 250.078 7.01172 254.299C7.01172 258.52 10.4428 261.951 14.6637 261.951Z" fill="url(#paint21_linear_2176_647)"/>
<defs>
<linearGradient id="paint0_linear_2176_647" x1="159.064" y1="400.081" x2="159.064" y2="384.9" gradientUnits="userSpaceOnUse">
<stop stop-color="#2C3E63"/>
<stop offset="1" stop-color="#13192E"/>
</linearGradient>
<linearGradient id="paint1_linear_2176_647" x1="26.9014" y1="420.618" x2="26.9014" y2="386.357" gradientUnits="userSpaceOnUse">
<stop stop-color="#2C3E63"/>
<stop offset="1" stop-color="#13192E"/>
</linearGradient>
<linearGradient id="paint2_linear_2176_647" x1="297.652" y1="420.618" x2="297.652" y2="386.357" gradientUnits="userSpaceOnUse">
<stop stop-color="#2C3E63"/>
<stop offset="1" stop-color="#13192E"/>
</linearGradient>
<linearGradient id="paint3_linear_2176_647" x1="27.9156" y1="244.845" x2="27.422" y2="264.099" gradientUnits="userSpaceOnUse">
<stop stop-color="#1966FF"/>
<stop offset="1" stop-color="#1D41CF"/>
</linearGradient>
<linearGradient id="paint4_linear_2176_647" x1="296.672" y1="244.845" x2="297.166" y2="264.099" gradientUnits="userSpaceOnUse">
<stop stop-color="#1966FF"/>
<stop offset="1" stop-color="#1D41CF"/>
</linearGradient>
<linearGradient id="paint5_linear_2176_647" x1="235.433" y1="200.143" x2="83.2825" y2="292.608" gradientUnits="userSpaceOnUse">
<stop stop-color="#2C3E63"/>
<stop offset="1" stop-color="#13192E"/>
</linearGradient>
<linearGradient id="paint6_linear_2176_647" x1="162.716" y1="380.062" x2="162.173" y2="326.499" gradientUnits="userSpaceOnUse">
<stop stop-color="#2C3E63"/>
<stop offset="1" stop-color="#13192E"/>
</linearGradient>
<linearGradient id="paint7_linear_2176_647" x1="23.5203" y1="382.877" x2="23.3476" y2="366.092" gradientUnits="userSpaceOnUse">
<stop stop-color="#2C3E63"/>
<stop offset="1" stop-color="#13192E"/>
</linearGradient>
<linearGradient id="paint8_linear_2176_647" x1="23.4645" y1="379.544" x2="23.3657" y2="368.634" gradientUnits="userSpaceOnUse">
<stop stop-color="#EBEFF7"/>
<stop offset="1" stop-color="#B3B6C2"/>
</linearGradient>
<linearGradient id="paint9_linear_2176_647" x1="301.07" y1="382.877" x2="301.243" y2="366.092" gradientUnits="userSpaceOnUse">
<stop stop-color="#2C3E63"/>
<stop offset="1" stop-color="#13192E"/>
</linearGradient>
<linearGradient id="paint10_linear_2176_647" x1="301.095" y1="379.544" x2="301.218" y2="368.634" gradientUnits="userSpaceOnUse">
<stop stop-color="#EBEFF7"/>
<stop offset="1" stop-color="#B3B6C2"/>
</linearGradient>
<linearGradient id="paint11_linear_2176_647" x1="42.4568" y1="331.806" x2="42.1606" y2="300.926" gradientUnits="userSpaceOnUse">
<stop stop-color="#EBEFF7"/>
<stop offset="1" stop-color="#B3B6C2"/>
</linearGradient>
<radialGradient id="paint12_radial_2176_647" cx="0" cy="0" r="1" gradientUnits="userSpaceOnUse" gradientTransform="translate(24.9622 313.318) scale(9.77475 9.77476)">
<stop stop-color="#EBEFF7"/>
<stop offset="1" stop-color="#B3B6C2"/>
</radialGradient>
<radialGradient id="paint13_radial_2176_647" cx="0" cy="0" r="1" gradientUnits="userSpaceOnUse" gradientTransform="translate(47.2458 318.698) scale(8.17031 8.17031)">
<stop stop-color="#EBEFF7"/>
<stop offset="1" stop-color="#B3B6C2"/>
</radialGradient>
<linearGradient id="paint14_linear_2176_647" x1="282.106" y1="331.806" x2="282.427" y2="300.926" gradientUnits="userSpaceOnUse">
<stop stop-color="#EBEFF7"/>
<stop offset="1" stop-color="#B3B6C2"/>
</linearGradient>
<radialGradient id="paint15_radial_2176_647" cx="0" cy="0" r="1" gradientUnits="userSpaceOnUse" gradientTransform="translate(299.611 1.53752) rotate(180) scale(9.77475 9.77476)">
<stop stop-color="#EBEFF7"/>
<stop offset="1" stop-color="#B3B6C2"/>
</radialGradient>
<radialGradient id="paint16_radial_2176_647" cx="0" cy="0" r="1" gradientUnits="userSpaceOnUse" gradientTransform="translate(277.346 318.698) rotate(180) scale(8.1703 8.17031)">
<stop stop-color="#EBEFF7"/>
<stop offset="1" stop-color="#B3B6C2"/>
</radialGradient>
<linearGradient id="paint17_linear_2176_647" x1="207.66" y1="337.853" x2="90.2638" y2="405.561" gradientUnits="userSpaceOnUse">
<stop stop-color="#EBEFF7"/>
<stop offset="1" stop-color="#B3B6C2"/>
</linearGradient>
<linearGradient id="paint18_linear_2176_647" x1="162.298" y1="328.622" x2="162.298" y2="335.434" gradientUnits="userSpaceOnUse">
<stop stop-color="#EBEFF7"/>
<stop offset="1" stop-color="#B3B6C2"/>
</linearGradient>
<linearGradient id="paint19_linear_2176_647" x1="207.364" y1="255.138" x2="207.734" y2="216.656" gradientUnits="userSpaceOnUse">
<stop stop-color="#2C3E63"/>
<stop offset="1" stop-color="#13192E"/>
</linearGradient>
<linearGradient id="paint20_linear_2176_647" x1="307.777" y1="246.943" x2="307.777" y2="259.902" gradientUnits="userSpaceOnUse">
<stop stop-color="#2C3E63"/>
<stop offset="1"/>
</linearGradient>
<linearGradient id="paint21_linear_2176_647" x1="16.9839" y1="246.943" x2="16.9839" y2="259.902" gradientUnits="userSpaceOnUse">
<stop stop-color="#2C3E63"/>
<stop offset="1"/>
</linearGradient>
</defs>
</svg>
