<svg width="370" height="357" viewBox="0 0 370 357" fill="none" xmlns="http://www.w3.org/2000/svg">
<mask id="path-1-inside-1_2086_93" fill="white">
<path d="M343 164C343 250.156 273.156 320 187 320C100.844 320 31 250.156 31 164C31 77.8436 100.844 8 187 8C273.156 8 343 77.8436 343 164ZM120.634 164C120.634 200.653 150.347 230.366 187 230.366C223.653 230.366 253.366 200.653 253.366 164C253.366 127.347 223.653 97.6341 187 97.6341C150.347 97.6341 120.634 127.347 120.634 164Z"/>
</mask>
<path d="M343 164C343 250.156 273.156 320 187 320C100.844 320 31 250.156 31 164C31 77.8436 100.844 8 187 8C273.156 8 343 77.8436 343 164ZM120.634 164C120.634 200.653 150.347 230.366 187 230.366C223.653 230.366 253.366 200.653 253.366 164C253.366 127.347 223.653 97.6341 187 97.6341C150.347 97.6341 120.634 127.347 120.634 164Z" fill="white" stroke="#EAF4FF" stroke-width="2" mask="url(#path-1-inside-1_2086_93)"/>
<path d="M341.05 188.588C344.642 166.081 343.259 143.06 336.998 121.144C330.737 99.2291 319.749 78.952 304.809 61.7398C289.868 44.5276 271.337 30.7982 250.52 21.5177C229.703 12.2372 207.105 7.63098 184.316 8.02309C161.527 8.41519 139.101 13.7961 118.616 23.7873C98.1303 33.7785 80.0828 48.1372 65.7432 65.8532C51.4036 83.5692 41.1202 104.212 35.6165 126.33C30.1128 148.448 29.5224 171.503 33.8869 193.873L121.925 176.696C120.07 167.189 120.321 157.39 122.66 147.99C125 138.59 129.37 129.816 135.465 122.287C141.559 114.757 149.229 108.655 157.936 104.408C166.643 100.162 176.174 97.8749 185.859 97.7082C195.545 97.5416 205.149 99.4993 213.997 103.444C222.844 107.388 230.72 113.223 237.07 120.538C243.42 127.854 248.09 136.472 250.751 145.786C253.412 155.1 254 164.884 252.473 174.45L341.05 188.588Z" fill="url(#paint0_linear_2086_93)"/>
<path d="M33.9286 160.5C30.1021 160.5 26.9844 157.396 27.1494 153.573C28.6342 119.186 41.1427 86.1166 62.9207 59.3059C86.1576 30.6991 118.532 10.961 154.604 3.40725C190.677 -4.14645 228.251 0.944542 261.013 17.825C291.718 33.6456 316.443 58.9185 331.6 89.8207C333.285 93.2564 331.674 97.3501 328.169 98.8854C324.664 100.421 320.593 98.8149 318.894 95.3862C305.024 67.3962 282.542 44.5063 254.666 30.1433C224.732 14.7203 190.403 10.0689 157.445 16.9704C124.486 23.8719 94.9073 41.9059 73.6767 68.0428C53.9052 92.3833 42.4958 122.37 41.0209 153.573C40.8402 157.396 37.7552 160.5 33.9286 160.5Z" fill="url(#paint1_linear_2086_93)"/>
<path d="M6.176 165.737C6.372 165.074 6.71733 164.538 7.212 164.127C7.69733 163.707 8.28533 163.497 8.976 163.497C9.984 163.497 10.7727 163.838 11.342 164.519C11.9113 165.191 12.196 166.017 12.196 166.997C12.196 167.762 12.0233 168.448 11.678 169.055C11.3233 169.652 10.8053 170.086 10.124 170.357L9.172 168.705C9.928 168.462 10.306 167.893 10.306 166.997C10.306 166.502 10.1893 166.12 9.956 165.849C9.71333 165.569 9.38667 165.429 8.976 165.429C8.57467 165.429 8.25267 165.569 8.01 165.849C7.76733 166.12 7.646 166.502 7.646 166.997L7.646 167.417L6.526 168.159L4.006 166.227L4.006 170.063L2.2 170.063L2.2 163.903L3.796 163.903L6.176 165.737ZM12.196 158.594C12.196 159.817 11.734 160.778 10.81 161.478C9.87667 162.169 8.64 162.514 7.1 162.514C5.56 162.514 4.328 162.169 3.404 161.478C2.47067 160.778 2.004 159.817 2.004 158.594C2.004 157.362 2.47067 156.401 3.404 155.71C4.328 155.019 5.56 154.674 7.1 154.674C8.64 154.674 9.87667 155.019 10.81 155.71C11.734 156.401 12.196 157.362 12.196 158.594ZM9.494 160.078C10.0353 159.742 10.306 159.247 10.306 158.594C10.306 157.941 10.0307 157.446 9.48 157.11C8.92933 156.765 8.136 156.592 7.1 156.592C6.05467 156.592 5.25667 156.765 4.706 157.11C4.15533 157.446 3.88 157.941 3.88 158.594C3.88 159.247 4.15533 159.742 4.706 160.078C5.25667 160.414 6.05467 160.582 7.1 160.582C8.14533 160.582 8.94333 160.414 9.494 160.078ZM12.196 149.729C12.196 150.952 11.734 151.913 10.81 152.613C9.87667 153.304 8.64 153.649 7.1 153.649C5.56 153.649 4.328 153.304 3.404 152.613C2.47067 151.913 2.004 150.952 2.004 149.729C2.004 148.497 2.47067 147.536 3.404 146.845C4.328 146.155 5.56 145.809 7.1 145.809C8.64 145.809 9.87667 146.155 10.81 146.845C11.734 147.536 12.196 148.497 12.196 149.729ZM9.494 151.213C10.0353 150.877 10.306 150.383 10.306 149.729C10.306 149.076 10.0307 148.581 9.48 148.245C8.92933 147.9 8.136 147.727 7.1 147.727C6.05467 147.727 5.25667 147.9 4.706 148.245C4.15533 148.581 3.88 149.076 3.88 149.729C3.88 150.383 4.15533 150.877 4.706 151.213C5.25667 151.549 6.05467 151.717 7.1 151.717C8.14533 151.717 8.94333 151.549 9.494 151.213Z" fill="#243257"/>
<path d="M364.594 152.686C363.838 152.686 363.175 152.49 362.606 152.098L362.606 152.112L358 149.06L358 146.848L361.192 149.032C361.211 148.015 361.533 147.184 362.158 146.54C362.793 145.906 363.605 145.588 364.594 145.588C365.593 145.588 366.409 145.915 367.044 146.568C367.679 147.231 367.996 148.085 367.996 149.13C367.996 150.185 367.679 151.039 367.044 151.692C366.419 152.355 365.602 152.686 364.594 152.686ZM364.594 147.506C364.109 147.506 363.721 147.66 363.432 147.968C363.143 148.286 362.998 148.673 362.998 149.13C362.998 149.606 363.143 149.998 363.432 150.306C363.721 150.614 364.109 150.768 364.594 150.768C365.079 150.768 365.462 150.614 365.742 150.306C366.031 149.998 366.176 149.606 366.176 149.13C366.176 148.673 366.031 148.286 365.742 147.968C365.453 147.66 365.07 147.506 364.594 147.506ZM357.804 157.461C357.804 156.238 358.266 155.277 359.19 154.577C360.123 153.886 361.36 153.541 362.9 153.541C364.44 153.541 365.672 153.886 366.596 154.577C367.529 155.277 367.996 156.238 367.996 157.461C367.996 158.693 367.529 159.654 366.596 160.345C365.672 161.035 364.44 161.381 362.9 161.381C361.36 161.381 360.123 161.035 359.19 160.345C358.266 159.654 357.804 158.693 357.804 157.461ZM360.506 155.977C359.965 156.313 359.694 156.807 359.694 157.461C359.694 158.114 359.969 158.609 360.52 158.945C361.071 159.29 361.864 159.463 362.9 159.463C363.945 159.463 364.743 159.29 365.294 158.945C365.845 158.609 366.12 158.114 366.12 157.461C366.12 156.807 365.845 156.313 365.294 155.977C364.743 155.641 363.945 155.473 362.9 155.473C361.855 155.473 361.057 155.641 360.506 155.977ZM357.804 166.325C357.804 165.103 358.266 164.141 359.19 163.441C360.123 162.751 361.36 162.405 362.9 162.405C364.44 162.405 365.672 162.751 366.596 163.441C367.529 164.141 367.996 165.103 367.996 166.325C367.996 167.557 367.529 168.519 366.596 169.209C365.672 169.9 364.44 170.245 362.9 170.245C361.36 170.245 360.123 169.9 359.19 169.209C358.266 168.519 357.804 167.557 357.804 166.325ZM360.506 164.841C359.965 165.177 359.694 165.672 359.694 166.325C359.694 166.979 359.969 167.473 360.52 167.809C361.071 168.155 361.864 168.327 362.9 168.327C363.945 168.327 364.743 168.155 365.294 167.809C365.845 167.473 366.12 166.979 366.12 166.325C366.12 165.672 365.845 165.177 365.294 164.841C364.743 164.505 363.945 164.337 362.9 164.337C361.855 164.337 361.057 164.505 360.506 164.841Z" fill="#243257"/>
<path d="M253.025 113.89L278.59 113.319C279.868 113.488 280.64 114.818 280.153 116.012L267.052 138.392C266.438 139.894 264.373 140.054 263.539 138.663L251.075 116.855C250.227 115.442 251.39 113.674 253.025 113.89Z" fill="#1B79E8"/>
<g filter="url(#filter0_d_2086_93)">
<circle cx="187" cy="163" r="85" fill="white"/>
</g>
<circle cx="187" cy="163" r="71.5" fill="white" stroke="#EAF4FF"/>
<path d="M169.722 154.26C171.986 155.613 173.117 157.585 173.117 160.175C173.117 162.438 172.324 164.223 170.737 165.53C169.174 166.837 167.039 167.49 164.332 167.49C161.602 167.49 159.456 166.837 157.892 165.53C156.329 164.223 155.547 162.438 155.547 160.175C155.547 157.585 156.667 155.613 158.907 154.26C157.204 153.023 156.352 151.332 156.352 149.185C156.352 146.922 157.111 145.16 158.627 143.9C160.167 142.64 162.069 142.01 164.332 142.01C166.596 142.01 168.486 142.64 170.002 143.9C171.519 145.16 172.277 146.922 172.277 149.185C172.277 151.355 171.426 153.047 169.722 154.26ZM166.607 147.33C166.024 146.817 165.266 146.56 164.332 146.56C163.399 146.56 162.641 146.817 162.057 147.33C161.474 147.843 161.182 148.543 161.182 149.43C161.182 150.317 161.474 151.028 162.057 151.565C162.641 152.078 163.399 152.335 164.332 152.335C165.266 152.335 166.024 152.078 166.607 151.565C167.191 151.028 167.482 150.317 167.482 149.43C167.482 148.543 167.191 147.843 166.607 147.33ZM161.427 162.065C162.174 162.648 163.142 162.94 164.332 162.94C165.522 162.94 166.479 162.648 167.202 162.065C167.949 161.458 168.322 160.618 168.322 159.545C168.322 158.495 167.949 157.678 167.202 157.095C166.479 156.488 165.522 156.185 164.332 156.185C163.142 156.185 162.174 156.488 161.427 157.095C160.704 157.678 160.342 158.495 160.342 159.545C160.342 160.618 160.704 161.458 161.427 162.065ZM185.425 167.49C182.369 167.49 179.965 166.335 178.215 164.025C176.489 161.692 175.625 158.6 175.625 154.75C175.625 150.9 176.489 147.82 178.215 145.51C179.965 143.177 182.369 142.01 185.425 142.01C188.505 142.01 190.909 143.177 192.635 145.51C194.362 147.82 195.225 150.9 195.225 154.75C195.225 158.6 194.362 161.692 192.635 164.025C190.909 166.335 188.505 167.49 185.425 167.49ZM181.715 160.735C182.555 162.088 183.792 162.765 185.425 162.765C187.059 162.765 188.295 162.077 189.135 160.7C189.999 159.323 190.43 157.34 190.43 154.75C190.43 152.137 189.999 150.142 189.135 148.765C188.295 147.388 187.059 146.7 185.425 146.7C183.792 146.7 182.555 147.388 181.715 148.765C180.875 150.142 180.455 152.137 180.455 154.75C180.455 157.363 180.875 159.358 181.715 160.735ZM207.587 167.49C204.53 167.49 202.127 166.335 200.377 164.025C198.65 161.692 197.787 158.6 197.787 154.75C197.787 150.9 198.65 147.82 200.377 145.51C202.127 143.177 204.53 142.01 207.587 142.01C210.667 142.01 213.07 143.177 214.797 145.51C216.523 147.82 217.387 150.9 217.387 154.75C217.387 158.6 216.523 161.692 214.797 164.025C213.07 166.335 210.667 167.49 207.587 167.49ZM203.877 160.735C204.717 162.088 205.953 162.765 207.587 162.765C209.22 162.765 210.457 162.077 211.297 160.7C212.16 159.323 212.592 157.34 212.592 154.75C212.592 152.137 212.16 150.142 211.297 148.765C210.457 147.388 209.22 146.7 207.587 146.7C205.953 146.7 204.717 147.388 203.877 148.765C203.037 150.142 202.617 152.137 202.617 154.75C202.617 157.363 203.037 159.358 203.877 160.735Z" fill="#243257"/>
<path d="M156.732 181.888H161.452V184H154.524V172.8H161.372V174.912H156.732V177.296H160.972V179.376H156.732V181.888ZM170.341 184H167.957L166.229 181.568L164.485 184H162.101L165.029 179.92L162.229 176H164.613L166.229 178.256L167.845 176H170.213L167.413 179.904L170.341 184ZM174.67 184.224C173.465 184.224 172.457 183.819 171.646 183.008C170.846 182.197 170.446 181.195 170.446 180C170.446 178.805 170.846 177.803 171.646 176.992C172.457 176.181 173.465 175.776 174.67 175.776C175.449 175.776 176.158 175.963 176.798 176.336C177.438 176.709 177.923 177.211 178.254 177.84L176.478 178.88C176.318 178.549 176.073 178.288 175.742 178.096C175.422 177.904 175.059 177.808 174.654 177.808C174.035 177.808 173.523 178.016 173.118 178.432C172.713 178.837 172.51 179.36 172.51 180C172.51 180.629 172.713 181.152 173.118 181.568C173.523 181.973 174.035 182.176 174.654 182.176C175.07 182.176 175.438 182.085 175.758 181.904C176.089 181.712 176.334 181.451 176.494 181.12L178.286 182.144C177.934 182.773 177.438 183.28 176.798 183.664C176.158 184.037 175.449 184.224 174.67 184.224ZM181.049 180.848C181.327 181.851 182.079 182.352 183.305 182.352C184.095 182.352 184.692 182.085 185.097 181.552L186.761 182.512C185.972 183.653 184.809 184.224 183.273 184.224C181.951 184.224 180.889 183.824 180.089 183.024C179.289 182.224 178.889 181.216 178.889 180C178.889 178.795 179.284 177.792 180.073 176.992C180.863 176.181 181.876 175.776 183.113 175.776C184.287 175.776 185.252 176.181 186.009 176.992C186.777 177.803 187.161 178.805 187.161 180C187.161 180.267 187.135 180.549 187.081 180.848H181.049ZM181.017 179.248H185.097C184.98 178.704 184.735 178.299 184.361 178.032C183.999 177.765 183.583 177.632 183.113 177.632C182.559 177.632 182.1 177.776 181.737 178.064C181.375 178.341 181.135 178.736 181.017 179.248ZM188.655 184V172.32H190.719V184H188.655ZM192.661 184V172.32H194.725V184H192.661ZM198.411 180.848C198.688 181.851 199.44 182.352 200.667 182.352C201.456 182.352 202.053 182.085 202.459 181.552L204.123 182.512C203.333 183.653 202.171 184.224 200.635 184.224C199.312 184.224 198.251 183.824 197.451 183.024C196.651 182.224 196.251 181.216 196.251 180C196.251 178.795 196.645 177.792 197.435 176.992C198.224 176.181 199.237 175.776 200.475 175.776C201.648 175.776 202.613 176.181 203.371 176.992C204.139 177.803 204.523 178.805 204.523 180C204.523 180.267 204.496 180.549 204.443 180.848H198.411ZM198.379 179.248H202.459C202.341 178.704 202.096 178.299 201.723 178.032C201.36 177.765 200.944 177.632 200.475 177.632C199.92 177.632 199.461 177.776 199.099 178.064C198.736 178.341 198.496 178.736 198.379 179.248ZM210.464 175.776C211.339 175.776 212.059 176.069 212.624 176.656C213.2 177.243 213.488 178.053 213.488 179.088V184H211.424V179.344C211.424 178.811 211.28 178.405 210.992 178.128C210.704 177.84 210.32 177.696 209.84 177.696C209.307 177.696 208.88 177.861 208.56 178.192C208.24 178.523 208.08 179.019 208.08 179.68V184H206.016V176H208.08V176.896C208.582 176.149 209.376 175.776 210.464 175.776ZM219.88 177.984H218.072V181.312C218.072 181.589 218.141 181.792 218.28 181.92C218.418 182.048 218.621 182.123 218.888 182.144C219.154 182.155 219.485 182.149 219.88 182.128V184C218.461 184.16 217.458 184.027 216.872 183.6C216.296 183.173 216.008 182.411 216.008 181.312V177.984H214.616V176H216.008V174.384L218.072 173.76V176H219.88V177.984Z" fill="#5F666F"/>
<circle cx="321.5" cy="87.5" r="22.5" fill="white" stroke="#33C37E" stroke-width="8"/>
<path d="M114.965 342.2C115.87 342.2 116.621 342.503 117.219 343.11C117.825 343.707 118.129 344.454 118.129 345.35C118.129 346.237 117.825 346.983 117.219 347.59C116.621 348.197 115.87 348.5 114.965 348.5H112.711V352H111.409V342.2H114.965ZM114.965 347.282C115.506 347.282 115.954 347.1 116.309 346.736C116.663 346.363 116.841 345.901 116.841 345.35C116.841 344.79 116.663 344.328 116.309 343.964C115.954 343.6 115.506 343.418 114.965 343.418H112.711V347.282H114.965ZM124.961 351.118C124.243 351.827 123.37 352.182 122.343 352.182C121.317 352.182 120.444 351.827 119.725 351.118C119.016 350.409 118.661 349.536 118.661 348.5C118.661 347.464 119.016 346.591 119.725 345.882C120.444 345.173 121.317 344.818 122.343 344.818C123.37 344.818 124.243 345.173 124.961 345.882C125.68 346.591 126.039 347.464 126.039 348.5C126.039 349.536 125.68 350.409 124.961 351.118ZM122.343 350.992C123.043 350.992 123.631 350.754 124.107 350.278C124.583 349.802 124.821 349.209 124.821 348.5C124.821 347.791 124.583 347.198 124.107 346.722C123.631 346.246 123.043 346.008 122.343 346.008C121.653 346.008 121.069 346.246 120.593 346.722C120.117 347.198 119.879 347.791 119.879 348.5C119.879 349.209 120.117 349.802 120.593 350.278C121.069 350.754 121.653 350.992 122.343 350.992ZM135.494 345H136.768L134.598 352H133.352L131.714 346.82L130.076 352H128.83L126.66 345H127.934L129.474 350.32L131.126 345H132.302L133.954 350.334L135.494 345ZM138.648 349.06C138.769 349.685 139.054 350.171 139.502 350.516C139.959 350.861 140.519 351.034 141.182 351.034C142.106 351.034 142.778 350.693 143.198 350.012L144.234 350.6C143.553 351.655 142.526 352.182 141.154 352.182C140.043 352.182 139.138 351.837 138.438 351.146C137.747 350.446 137.402 349.564 137.402 348.5C137.402 347.445 137.743 346.568 138.424 345.868C139.105 345.168 139.987 344.818 141.07 344.818C142.097 344.818 142.932 345.182 143.576 345.91C144.229 346.629 144.556 347.497 144.556 348.514C144.556 348.691 144.542 348.873 144.514 349.06H138.648ZM141.07 345.966C140.417 345.966 139.875 346.153 139.446 346.526C139.017 346.89 138.751 347.38 138.648 347.996H143.324C143.221 347.333 142.96 346.829 142.54 346.484C142.12 346.139 141.63 345.966 141.07 345.966ZM147.22 346.176C147.622 345.308 148.35 344.874 149.404 344.874V346.148C148.807 346.12 148.294 346.279 147.864 346.624C147.435 346.969 147.22 347.525 147.22 348.29V352H146.002V345H147.22V346.176ZM151.114 349.06C151.235 349.685 151.52 350.171 151.968 350.516C152.425 350.861 152.985 351.034 153.648 351.034C154.572 351.034 155.244 350.693 155.664 350.012L156.7 350.6C156.018 351.655 154.992 352.182 153.62 352.182C152.509 352.182 151.604 351.837 150.904 351.146C150.213 350.446 149.868 349.564 149.868 348.5C149.868 347.445 150.208 346.568 150.89 345.868C151.571 345.168 152.453 344.818 153.536 344.818C154.562 344.818 155.398 345.182 156.042 345.91C156.695 346.629 157.022 347.497 157.022 348.514C157.022 348.691 157.008 348.873 156.98 349.06H151.114ZM153.536 345.966C152.882 345.966 152.341 346.153 151.912 346.526C151.482 346.89 151.216 347.38 151.114 347.996H155.79C155.687 347.333 155.426 346.829 155.006 346.484C154.586 346.139 154.096 345.966 153.536 345.966ZM164.25 342.2H165.468V352H164.25V350.796C163.644 351.72 162.762 352.182 161.604 352.182C160.624 352.182 159.789 351.827 159.098 351.118C158.408 350.399 158.062 349.527 158.062 348.5C158.062 347.473 158.408 346.605 159.098 345.896C159.789 345.177 160.624 344.818 161.604 344.818C162.762 344.818 163.644 345.28 164.25 346.204V342.2ZM161.758 351.006C162.468 351.006 163.06 350.768 163.536 350.292C164.012 349.807 164.25 349.209 164.25 348.5C164.25 347.791 164.012 347.198 163.536 346.722C163.06 346.237 162.468 345.994 161.758 345.994C161.058 345.994 160.47 346.237 159.994 346.722C159.518 347.198 159.28 347.791 159.28 348.5C159.28 349.209 159.518 349.807 159.994 350.292C160.47 350.768 161.058 351.006 161.758 351.006ZM176.632 346.918C177.08 347.133 177.435 347.441 177.696 347.842C177.967 348.243 178.102 348.705 178.102 349.228C178.102 350.012 177.827 350.67 177.276 351.202C176.725 351.734 176.053 352 175.26 352H171.032V342.2H174.952C175.717 342.2 176.366 342.457 176.898 342.97C177.43 343.483 177.696 344.118 177.696 344.874C177.696 345.742 177.341 346.423 176.632 346.918ZM174.952 343.418H172.334V346.414H174.952C175.363 346.414 175.708 346.269 175.988 345.98C176.268 345.691 176.408 345.336 176.408 344.916C176.408 344.505 176.263 344.155 175.974 343.866C175.694 343.567 175.353 343.418 174.952 343.418ZM175.26 350.782C175.699 350.782 176.067 350.628 176.366 350.32C176.665 350.012 176.814 349.634 176.814 349.186C176.814 348.747 176.66 348.374 176.352 348.066C176.053 347.758 175.689 347.604 175.26 347.604H172.334V350.782H175.26ZM184.246 345H185.548L182.692 352.434C182.394 353.227 181.974 353.829 181.432 354.24C180.9 354.66 180.284 354.847 179.584 354.8V353.666C180.443 353.731 181.073 353.255 181.474 352.238L181.6 351.972L178.548 345H179.85L182.23 350.488L184.246 345Z" fill="#5F666F"/>
<path fill-rule="evenodd" clip-rule="evenodd" d="M202.486 343.172L202.949 341H193.351L192.079 346.973L191 351.784H200.867L201.368 349.495H195.895L196.396 347.167H201.021L201.522 344.995H196.897L197.283 343.172H202.486Z" fill="#5F666F"/>
<path fill-rule="evenodd" clip-rule="evenodd" d="M210.543 347.167H213.896C214.015 346.466 214.235 345.42 214.282 344.568C214.335 343.571 213.944 342.837 213.087 342.357C211.858 341.672 210.049 341.709 208.693 341.659C206.834 341.591 204.622 341.832 203.451 343.482C202.847 344.333 202.507 345.651 202.374 346.682C202.209 347.94 201.578 350.051 202.719 351.085C203.567 351.854 205.465 352.11 206.568 352.095C207.692 352.079 208.783 352.005 209.888 351.783L212.778 355.313H217.288L210.543 347.167ZM210.042 347.245C209.673 348.917 209.171 350.324 207.228 350.309C205.277 350.295 205.925 348.196 206.111 346.974C206.373 345.237 207.04 343.415 209.04 343.56C211.064 343.707 210.349 345.854 210.042 347.245Z" fill="#5F666F"/>
<path fill-rule="evenodd" clip-rule="evenodd" d="M228.542 342.202L227.502 346.973L226.461 351.784H230.392L232.512 342.202H228.542Z" fill="#5F666F"/>
<path fill-rule="evenodd" clip-rule="evenodd" d="M242.146 344.103L242.608 342.202H234.013L231.932 351.784H235.902L236.788 347.671H240.681L240.835 346.973L241.066 345.887H237.212L237.598 344.103H242.146Z" fill="#5F666F"/>
<path fill-rule="evenodd" clip-rule="evenodd" d="M215.898 342.202H219.906L218.403 348.991C218.22 349.821 218.994 350.253 219.657 350.311C220.511 350.385 221.277 349.849 221.487 348.952L223.067 342.202H227.037L225.457 349.379C224.78 351.25 223.212 351.985 221.482 352.168C220.409 352.282 219.273 352.186 218.249 352.016L214.703 347.749L215.898 342.202Z" fill="#5F666F"/>
<path fill-rule="evenodd" clip-rule="evenodd" d="M251.049 342.202H256.099L257.64 344.685L260.145 342.202H264L258.951 346.663L262.266 351.784H257.332L255.713 348.874L252.938 351.784H247.041L246.81 349.689H242.724L241.299 351.784H238.523L245.23 342.202H250.047L250.973 349.96L254.171 347.012L251.049 342.202ZM244.035 347.633L246.193 344.374L246.579 347.633H244.035Z" fill="#5F666F"/>
<defs>
<filter id="filter0_d_2086_93" x="52" y="28" width="270" height="270" filterUnits="userSpaceOnUse" color-interpolation-filters="sRGB">
<feFlood flood-opacity="0" result="BackgroundImageFix"/>
<feColorMatrix in="SourceAlpha" type="matrix" values="0 0 0 0 0 0 0 0 0 0 0 0 0 0 0 0 0 0 127 0" result="hardAlpha"/>
<feOffset/>
<feGaussianBlur stdDeviation="25"/>
<feComposite in2="hardAlpha" operator="out"/>
<feColorMatrix type="matrix" values="0 0 0 0 0 0 0 0 0 0 0 0 0 0 0 0 0 0 0.1 0"/>
<feBlend mode="normal" in2="BackgroundImageFix" result="effect1_dropShadow_2086_93"/>
<feBlend mode="normal" in="SourceGraphic" in2="effect1_dropShadow_2086_93" result="shape"/>
</filter>
<linearGradient id="paint0_linear_2086_93" x1="31" y1="124" x2="343" y2="133.5" gradientUnits="userSpaceOnUse">
<stop stop-color="#E0EEFF"/>
<stop offset="1" stop-color="#F3F9FF"/>
</linearGradient>
<linearGradient id="paint1_linear_2086_93" x1="27" y1="150" x2="320" y2="67" gradientUnits="userSpaceOnUse">
<stop stop-color="#FF5353"/>
<stop offset="0.0625" stop-color="#FF5353"/>
<stop offset="0.223958" stop-color="#FFA603"/>
<stop offset="0.671875" stop-color="#FFA603"/>
<stop offset="1" stop-color="#33C37E"/>
</linearGradient>
</defs>
</svg>
