<svg width="314" height="314" viewBox="0 0 314 314" fill="none" xmlns="http://www.w3.org/2000/svg">
<path d="M314 157C314 243.709 243.709 314 157 314C70.2913 314 0 243.709 0 157C0 70.2913 70.2913 0 157 0C243.709 0 314 70.2913 314 157ZM30.3478 157C30.3478 226.948 87.0519 283.652 157 283.652C226.948 283.652 283.652 226.948 283.652 157C283.652 87.0519 226.948 30.3478 157 30.3478C87.0519 30.3478 30.3478 87.0519 30.3478 157Z" fill="#1B79E8"/>
<path d="M0.171884 164.345C0.726774 176.193 2.62264 187.941 5.82319 199.362L35.0453 191.174C32.4635 181.96 30.9341 172.483 30.4864 162.925L0.171884 164.345Z" fill="#33CCCC"/>
<path d="M262.33 40.5755C239.303 19.7432 210.616 6.20701 179.896 1.67854C149.177 -2.84994 117.804 1.83273 89.7457 15.1344C61.6873 28.436 38.2034 49.7592 22.2637 76.4076C6.32407 103.056 -1.35551 133.832 0.196137 164.845L30.506 163.329C29.2543 138.311 35.4494 113.483 48.308 91.9859C61.1665 70.4887 80.111 53.2872 102.746 42.5567C125.381 31.8262 150.689 28.0487 175.471 31.7018C200.252 35.355 223.394 46.2747 241.97 63.0801L262.33 40.5755Z" fill="#FFCC00"/>
<path d="M262.33 40.5755C244.734 24.657 223.76 12.9337 200.983 6.28663C178.205 -0.36047 154.218 -1.75846 130.823 2.19773C107.427 6.15392 85.2331 15.3614 65.9078 29.1281C46.5826 42.8949 30.629 60.8628 19.2462 81.6815L45.8737 96.2404C55.0563 79.4459 67.926 64.9511 83.5158 53.8455C99.1055 42.7398 117.01 35.3121 135.883 32.1207C154.756 28.9292 174.106 30.057 192.481 35.4192C210.855 40.7814 227.776 50.2386 241.97 63.0801L262.33 40.5755Z" fill="#FF4077"/>
<path d="M84.4672 125.288C85.2832 125.64 85.9312 126.176 86.4112 126.896C86.9072 127.6 87.1552 128.408 87.1552 129.32C87.1552 130.616 86.6992 131.72 85.7872 132.632C84.8752 133.544 83.7712 134 82.4752 134H75.1552V117.2H81.9232C83.1712 117.2 84.2352 117.648 85.1152 118.544C85.9952 119.424 86.4352 120.48 86.4352 121.712C86.4352 123.28 85.7792 124.472 84.4672 125.288ZM81.9232 118.784H76.8352V124.64H81.9232C82.7072 124.64 83.3712 124.36 83.9152 123.8C84.4752 123.224 84.7552 122.528 84.7552 121.712C84.7552 120.912 84.4752 120.224 83.9152 119.648C83.3712 119.072 82.7072 118.784 81.9232 118.784ZM82.4752 132.416C83.3072 132.416 84.0112 132.12 84.5872 131.528C85.1792 130.92 85.4752 130.184 85.4752 129.32C85.4752 128.472 85.1792 127.744 84.5872 127.136C84.0112 126.528 83.3072 126.224 82.4752 126.224H76.8352V132.416H82.4752ZM98.5596 122H100.144V134H98.5596V132.128C97.6636 133.568 96.3196 134.288 94.5276 134.288C93.0716 134.288 91.9196 133.848 91.0716 132.968C90.2396 132.072 89.8236 130.872 89.8236 129.368V122H91.4076V129.368C91.4076 130.44 91.6876 131.272 92.2476 131.864C92.8236 132.456 93.6316 132.752 94.6716 132.752C95.8236 132.752 96.7596 132.392 97.4796 131.672C98.1996 130.936 98.5596 129.808 98.5596 128.288V122ZM113.894 117.2H115.478V134H113.894V131.648C112.79 133.408 111.174 134.288 109.046 134.288C107.334 134.288 105.87 133.68 104.654 132.464C103.454 131.248 102.854 129.76 102.854 128C102.854 126.24 103.454 124.752 104.654 123.536C105.87 122.32 107.334 121.712 109.046 121.712C111.174 121.712 112.79 122.592 113.894 124.352V117.2ZM105.806 131.384C106.718 132.296 107.838 132.752 109.166 132.752C110.494 132.752 111.614 132.296 112.526 131.384C113.438 130.456 113.894 129.328 113.894 128C113.894 126.672 113.438 125.552 112.526 124.64C111.614 123.712 110.494 123.248 109.166 123.248C107.838 123.248 106.718 123.712 105.806 124.64C104.894 125.552 104.438 126.672 104.438 128C104.438 129.328 104.894 130.456 105.806 131.384ZM129.231 122H130.815V133.52C130.815 135.248 130.223 136.608 129.039 137.6C127.855 138.592 126.439 139.088 124.791 139.088C121.975 139.088 120.079 138.112 119.103 136.16L120.495 135.368C121.215 136.824 122.647 137.552 124.791 137.552C126.167 137.552 127.247 137.184 128.031 136.448C128.831 135.728 129.231 134.752 129.231 133.52V131.648C128.127 133.408 126.511 134.288 124.383 134.288C122.671 134.288 121.207 133.68 119.991 132.464C118.791 131.248 118.191 129.76 118.191 128C118.191 126.24 118.791 124.752 119.991 123.536C121.207 122.32 122.671 121.712 124.383 121.712C126.511 121.712 128.127 122.592 129.231 124.352V122ZM121.143 131.384C122.055 132.296 123.175 132.752 124.503 132.752C125.831 132.752 126.951 132.296 127.863 131.384C128.775 130.456 129.231 129.328 129.231 128C129.231 126.672 128.775 125.552 127.863 124.64C126.951 123.712 125.831 123.248 124.503 123.248C123.175 123.248 122.055 123.712 121.143 124.64C120.231 125.552 119.775 126.672 119.775 128C119.775 129.328 120.231 130.456 121.143 131.384ZM139.792 121.712C141.568 121.712 143 122.344 144.088 123.608C145.192 124.856 145.744 126.336 145.744 128.048C145.744 128.224 145.728 128.472 145.696 128.792H135.16C135.32 130.008 135.832 130.976 136.696 131.696C137.576 132.4 138.656 132.752 139.936 132.752C140.848 132.752 141.632 132.568 142.288 132.2C142.96 131.816 143.464 131.32 143.8 130.712L145.192 131.528C144.664 132.376 143.944 133.048 143.032 133.544C142.12 134.04 141.08 134.288 139.912 134.288C138.024 134.288 136.488 133.696 135.304 132.512C134.12 131.328 133.528 129.824 133.528 128C133.528 126.208 134.112 124.712 135.28 123.512C136.448 122.312 137.952 121.712 139.792 121.712ZM139.792 123.248C138.544 123.248 137.496 123.624 136.648 124.376C135.816 125.112 135.32 126.072 135.16 127.256H144.112C143.952 125.992 143.464 125.008 142.648 124.304C141.832 123.6 140.88 123.248 139.792 123.248ZM154.351 123.536H150.895V130.808C150.895 131.464 151.023 131.936 151.279 132.224C151.535 132.496 151.919 132.64 152.431 132.656C152.943 132.656 153.583 132.64 154.351 132.608V134C152.671 134.256 151.407 134.136 150.559 133.64C149.727 133.144 149.311 132.2 149.311 130.808V123.536H146.791V122H149.311V119.12L150.895 118.64V122H154.351V123.536ZM173.949 117.2V118.784H168.789V134H167.109V118.784H161.949V117.2H173.949ZM176.086 123.992C176.822 122.536 178.086 121.808 179.878 121.808V123.344C178.79 123.344 177.886 123.664 177.166 124.304C176.446 124.944 176.086 125.952 176.086 127.328V134H174.502V122H176.086V123.992ZM191.721 122H193.305V134H191.721V131.648C190.617 133.408 189.001 134.288 186.873 134.288C185.161 134.288 183.697 133.68 182.481 132.464C181.281 131.248 180.681 129.76 180.681 128C180.681 126.24 181.281 124.752 182.481 123.536C183.697 122.32 185.161 121.712 186.873 121.712C189.001 121.712 190.617 122.592 191.721 124.352V122ZM183.633 131.384C184.545 132.296 185.665 132.752 186.993 132.752C188.321 132.752 189.441 132.296 190.353 131.384C191.265 130.456 191.721 129.328 191.721 128C191.721 126.672 191.265 125.552 190.353 124.64C189.441 123.712 188.321 123.248 186.993 123.248C185.665 123.248 184.545 123.712 183.633 124.64C182.721 125.552 182.265 126.672 182.265 128C182.265 129.328 182.721 130.456 183.633 131.384ZM202.33 134.288C200.522 134.288 199.018 133.688 197.818 132.488C196.618 131.272 196.018 129.776 196.018 128C196.018 126.224 196.618 124.736 197.818 123.536C199.018 122.32 200.522 121.712 202.33 121.712C203.514 121.712 204.578 122 205.522 122.576C206.466 123.136 207.154 123.896 207.586 124.856L206.29 125.6C205.97 124.88 205.45 124.312 204.73 123.896C204.026 123.464 203.226 123.248 202.33 123.248C201.002 123.248 199.882 123.712 198.97 124.64C198.058 125.552 197.602 126.672 197.602 128C197.602 129.328 198.058 130.456 198.97 131.384C199.882 132.296 201.002 132.752 202.33 132.752C203.226 132.752 204.026 132.544 204.73 132.128C205.434 131.696 205.986 131.12 206.386 130.4L207.706 131.168C207.21 132.128 206.482 132.888 205.522 133.448C204.562 134.008 203.498 134.288 202.33 134.288ZM219.756 134H217.644L211.644 128.216V134H210.06V117.2H211.644V127.304L217.356 122H219.516L213.324 127.76L219.756 134ZM226.347 121.712C228.123 121.712 229.555 122.344 230.643 123.608C231.747 124.856 232.299 126.336 232.299 128.048C232.299 128.224 232.283 128.472 232.251 128.792H221.715C221.875 130.008 222.387 130.976 223.251 131.696C224.131 132.4 225.211 132.752 226.491 132.752C227.403 132.752 228.187 132.568 228.843 132.2C229.515 131.816 230.019 131.32 230.355 130.712L231.747 131.528C231.219 132.376 230.499 133.048 229.587 133.544C228.675 134.04 227.635 134.288 226.467 134.288C224.579 134.288 223.043 133.696 221.859 132.512C220.675 131.328 220.083 129.824 220.083 128C220.083 126.208 220.667 124.712 221.835 123.512C223.003 122.312 224.507 121.712 226.347 121.712ZM226.347 123.248C225.099 123.248 224.051 123.624 223.203 124.376C222.371 125.112 221.875 126.072 221.715 127.256H230.667C230.507 125.992 230.019 125.008 229.203 124.304C228.387 123.6 227.435 123.248 226.347 123.248ZM236.482 123.992C237.218 122.536 238.482 121.808 240.274 121.808V123.344C239.186 123.344 238.282 123.664 237.562 124.304C236.842 124.944 236.482 125.952 236.482 127.328V134H234.898V122H236.482V123.992Z" fill="#5F666F"/>
<path d="M150.689 173.344C154.181 175.432 155.927 178.474 155.927 182.47C155.927 185.962 154.703 188.716 152.255 190.732C149.843 192.748 146.549 193.756 142.373 193.756C138.161 193.756 134.849 192.748 132.437 190.732C130.025 188.716 128.819 185.962 128.819 182.47C128.819 178.474 130.547 175.432 134.003 173.344C131.375 171.436 130.061 168.826 130.061 165.514C130.061 162.022 131.231 159.304 133.571 157.36C135.947 155.416 138.881 154.444 142.373 154.444C145.865 154.444 148.781 155.416 151.121 157.36C153.461 159.304 154.631 162.022 154.631 165.514C154.631 168.862 153.317 171.472 150.689 173.344ZM145.883 162.652C144.983 161.86 143.813 161.464 142.373 161.464C140.933 161.464 139.763 161.86 138.863 162.652C137.963 163.444 137.513 164.524 137.513 165.892C137.513 167.26 137.963 168.358 138.863 169.186C139.763 169.978 140.933 170.374 142.373 170.374C143.813 170.374 144.983 169.978 145.883 169.186C146.783 168.358 147.233 167.26 147.233 165.892C147.233 164.524 146.783 163.444 145.883 162.652ZM137.891 185.386C139.043 186.286 140.537 186.736 142.373 186.736C144.209 186.736 145.685 186.286 146.801 185.386C147.953 184.45 148.529 183.154 148.529 181.498C148.529 179.878 147.953 178.618 146.801 177.718C145.685 176.782 144.209 176.314 142.373 176.314C140.537 176.314 139.043 176.782 137.891 177.718C136.775 178.618 136.217 179.878 136.217 181.498C136.217 183.154 136.775 184.45 137.891 185.386ZM172.499 168.97C176.135 168.97 179.195 170.068 181.679 172.264C184.163 174.424 185.405 177.448 185.405 181.336C185.405 185.224 184.091 188.266 181.463 190.462C178.871 192.658 175.685 193.756 171.905 193.756C168.845 193.756 166.145 193.072 163.805 191.704C161.465 190.336 159.773 188.32 158.729 185.656L165.101 181.93C166.037 184.954 168.305 186.466 171.905 186.466C173.813 186.466 175.289 186.016 176.333 185.116C177.413 184.18 177.953 182.92 177.953 181.336C177.953 179.788 177.431 178.546 176.387 177.61C175.343 176.674 173.921 176.206 172.121 176.206H160.673L162.185 155.2H183.623V162.166H169.097L168.611 168.97H172.499Z" fill="#243257"/>
</svg>
