<svg width="1074" height="416" viewBox="0 0 1074 416" fill="none" xmlns="http://www.w3.org/2000/svg">
<rect width="1074" height="416" rx="20" fill="#FBFBFB"/>
<path d="M101.224 380.224C99.464 380.224 98.232 379.515 97.528 378.096L99.432 377.008C99.784 377.712 100.381 378.064 101.224 378.064C101.811 378.064 102.248 377.925 102.536 377.648C102.824 377.371 102.968 376.992 102.968 376.512V368.8H105.16V376.512C105.16 377.685 104.792 378.597 104.056 379.248C103.32 379.899 102.376 380.224 101.224 380.224ZM113.108 372H115.172V380H113.108V379.056C112.489 379.835 111.62 380.224 110.5 380.224C109.433 380.224 108.516 379.819 107.748 379.008C106.991 378.187 106.612 377.184 106.612 376C106.612 374.816 106.991 373.819 107.748 373.008C108.516 372.187 109.433 371.776 110.5 371.776C111.62 371.776 112.489 372.165 113.108 372.944V372ZM109.3 377.632C109.716 378.048 110.244 378.256 110.884 378.256C111.524 378.256 112.052 378.048 112.468 377.632C112.895 377.205 113.108 376.661 113.108 376C113.108 375.339 112.895 374.8 112.468 374.384C112.052 373.957 111.524 373.744 110.884 373.744C110.244 373.744 109.716 373.957 109.3 374.384C108.884 374.8 108.676 375.339 108.676 376C108.676 376.661 108.884 377.205 109.3 377.632ZM121.544 371.776C122.419 371.776 123.139 372.069 123.704 372.656C124.28 373.243 124.568 374.053 124.568 375.088V380H122.504V375.344C122.504 374.811 122.36 374.405 122.072 374.128C121.784 373.84 121.4 373.696 120.92 373.696C120.387 373.696 119.96 373.861 119.64 374.192C119.32 374.523 119.16 375.019 119.16 375.68V380H117.096V372H119.16V372.896C119.662 372.149 120.456 371.776 121.544 371.776Z" fill="#5F666F"/>
<path d="M56.5091 322.88C57.5864 322.88 58.4931 323.205 59.2291 323.856C59.9651 324.496 60.3331 325.392 60.3331 326.544C60.3331 327.696 59.9438 328.597 59.1651 329.248C58.3971 329.899 57.4531 330.224 56.3331 330.224C55.4264 330.224 54.6264 330.021 53.9331 329.616C53.2398 329.211 52.7384 328.613 52.4291 327.824L54.3171 326.72C54.5944 327.616 55.2664 328.064 56.3331 328.064C56.8984 328.064 57.3358 327.931 57.6451 327.664C57.9651 327.387 58.1251 327.013 58.1251 326.544C58.1251 326.085 57.9704 325.717 57.6611 325.44C57.3518 325.163 56.9304 325.024 56.3971 325.024H53.0051L53.4531 318.8H59.8051V320.864H55.5011L55.3571 322.88H56.5091ZM65.7 330.224C64.3027 330.224 63.204 329.696 62.404 328.64C61.6147 327.573 61.22 326.16 61.22 324.4C61.22 322.64 61.6147 321.232 62.404 320.176C63.204 319.109 64.3027 318.576 65.7 318.576C67.108 318.576 68.2067 319.109 68.996 320.176C69.7854 321.232 70.18 322.64 70.18 324.4C70.18 326.16 69.7854 327.573 68.996 328.64C68.2067 329.696 67.108 330.224 65.7 330.224ZM64.004 327.136C64.388 327.755 64.9534 328.064 65.7 328.064C66.4467 328.064 67.012 327.749 67.396 327.12C67.7907 326.491 67.988 325.584 67.988 324.4C67.988 323.205 67.7907 322.293 67.396 321.664C67.012 321.035 66.4467 320.72 65.7 320.72C64.9534 320.72 64.388 321.035 64.004 321.664C63.62 322.293 63.428 323.205 63.428 324.4C63.428 325.595 63.62 326.507 64.004 327.136ZM75.8309 330.224C74.4336 330.224 73.3349 329.696 72.5349 328.64C71.7456 327.573 71.3509 326.16 71.3509 324.4C71.3509 322.64 71.7456 321.232 72.5349 320.176C73.3349 319.109 74.4336 318.576 75.8309 318.576C77.2389 318.576 78.3376 319.109 79.1269 320.176C79.9163 321.232 80.3109 322.64 80.3109 324.4C80.3109 326.16 79.9163 327.573 79.1269 328.64C78.3376 329.696 77.2389 330.224 75.8309 330.224ZM74.1349 327.136C74.5189 327.755 75.0843 328.064 75.8309 328.064C76.5776 328.064 77.1429 327.749 77.5269 327.12C77.9216 326.491 78.1189 325.584 78.1189 324.4C78.1189 323.205 77.9216 322.293 77.5269 321.664C77.1429 321.035 76.5776 320.72 75.8309 320.72C75.0843 320.72 74.5189 321.035 74.1349 321.664C73.7509 322.293 73.5589 323.205 73.5589 324.4C73.5589 325.595 73.7509 326.507 74.1349 327.136ZM85.9619 330.224C84.5645 330.224 83.4659 329.696 82.6659 328.64C81.8765 327.573 81.4819 326.16 81.4819 324.4C81.4819 322.64 81.8765 321.232 82.6659 320.176C83.4659 319.109 84.5645 318.576 85.9619 318.576C87.3699 318.576 88.4685 319.109 89.2579 320.176C90.0472 321.232 90.4419 322.64 90.4419 324.4C90.4419 326.16 90.0472 327.573 89.2579 328.64C88.4685 329.696 87.3699 330.224 85.9619 330.224ZM84.2659 327.136C84.6499 327.755 85.2152 328.064 85.9619 328.064C86.7085 328.064 87.2739 327.749 87.6579 327.12C88.0525 326.491 88.2499 325.584 88.2499 324.4C88.2499 323.205 88.0525 322.293 87.6579 321.664C87.2739 321.035 86.7085 320.72 85.9619 320.72C85.2152 320.72 84.6499 321.035 84.2659 321.664C83.8819 322.293 83.6899 323.205 83.6899 324.4C83.6899 325.595 83.8819 326.507 84.2659 327.136Z" fill="#5F666F"/>
<path d="M43.8716 262.8H45.7916V274H43.5836V265.136L41.4716 265.728L40.9276 263.84L43.8716 262.8ZM52.0319 274.224C50.6346 274.224 49.5359 273.696 48.7359 272.64C47.9466 271.573 47.5519 270.16 47.5519 268.4C47.5519 266.64 47.9466 265.232 48.7359 264.176C49.5359 263.109 50.6346 262.576 52.0319 262.576C53.4399 262.576 54.5386 263.109 55.3279 264.176C56.1173 265.232 56.5119 266.64 56.5119 268.4C56.5119 270.16 56.1173 271.573 55.3279 272.64C54.5386 273.696 53.4399 274.224 52.0319 274.224ZM50.3359 271.136C50.7199 271.755 51.2853 272.064 52.0319 272.064C52.7786 272.064 53.3439 271.749 53.7279 271.12C54.1226 270.491 54.3199 269.584 54.3199 268.4C54.3199 267.205 54.1226 266.293 53.7279 265.664C53.3439 265.035 52.7786 264.72 52.0319 264.72C51.2853 264.72 50.7199 265.035 50.3359 265.664C49.9519 266.293 49.7599 267.205 49.7599 268.4C49.7599 269.595 49.9519 270.507 50.3359 271.136ZM60.3025 271.792L59.1025 276.24H57.4225L58.0625 271.792H60.3025ZM65.7 274.224C64.3027 274.224 63.204 273.696 62.404 272.64C61.6147 271.573 61.22 270.16 61.22 268.4C61.22 266.64 61.6147 265.232 62.404 264.176C63.204 263.109 64.3027 262.576 65.7 262.576C67.108 262.576 68.2067 263.109 68.996 264.176C69.7854 265.232 70.18 266.64 70.18 268.4C70.18 270.16 69.7854 271.573 68.996 272.64C68.2067 273.696 67.108 274.224 65.7 274.224ZM64.004 271.136C64.388 271.755 64.9534 272.064 65.7 272.064C66.4467 272.064 67.012 271.749 67.396 271.12C67.7907 270.491 67.988 269.584 67.988 268.4C67.988 267.205 67.7907 266.293 67.396 265.664C67.012 265.035 66.4467 264.72 65.7 264.72C64.9534 264.72 64.388 265.035 64.004 265.664C63.62 266.293 63.428 267.205 63.428 268.4C63.428 269.595 63.62 270.507 64.004 271.136ZM75.831 274.224C74.4336 274.224 73.335 273.696 72.535 272.64C71.7456 271.573 71.351 270.16 71.351 268.4C71.351 266.64 71.7456 265.232 72.535 264.176C73.335 263.109 74.4336 262.576 75.831 262.576C77.239 262.576 78.3376 263.109 79.127 264.176C79.9163 265.232 80.311 266.64 80.311 268.4C80.311 270.16 79.9163 271.573 79.127 272.64C78.3376 273.696 77.239 274.224 75.831 274.224ZM74.135 271.136C74.519 271.755 75.0843 272.064 75.831 272.064C76.5776 272.064 77.143 271.749 77.527 271.12C77.9216 270.491 78.119 269.584 78.119 268.4C78.119 267.205 77.9216 266.293 77.527 265.664C77.143 265.035 76.5776 264.72 75.831 264.72C75.0843 264.72 74.519 265.035 74.135 265.664C73.751 266.293 73.559 267.205 73.559 268.4C73.559 269.595 73.751 270.507 74.135 271.136ZM85.9619 274.224C84.5645 274.224 83.4659 273.696 82.6659 272.64C81.8765 271.573 81.4819 270.16 81.4819 268.4C81.4819 266.64 81.8765 265.232 82.6659 264.176C83.4659 263.109 84.5645 262.576 85.9619 262.576C87.3699 262.576 88.4685 263.109 89.2579 264.176C90.0472 265.232 90.4419 266.64 90.4419 268.4C90.4419 270.16 90.0472 271.573 89.2579 272.64C88.4685 273.696 87.3699 274.224 85.9619 274.224ZM84.2659 271.136C84.6499 271.755 85.2152 272.064 85.9619 272.064C86.7085 272.064 87.2739 271.749 87.6579 271.12C88.0525 270.491 88.2499 269.584 88.2499 268.4C88.2499 267.205 88.0525 266.293 87.6579 265.664C87.2739 265.035 86.7085 264.72 85.9619 264.72C85.2152 264.72 84.6499 265.035 84.2659 265.664C83.8819 266.293 83.6899 267.205 83.6899 268.4C83.6899 269.595 83.8819 270.507 84.2659 271.136Z" fill="#5F666F"/>
<path d="M39.0274 218V216.352L42.8514 212.416C43.7047 211.52 44.1314 210.773 44.1314 210.176C44.1314 209.739 43.9927 209.387 43.7154 209.12C43.4487 208.853 43.102 208.72 42.6754 208.72C41.8327 208.72 41.2087 209.157 40.8034 210.032L38.9474 208.944C39.2994 208.176 39.806 207.589 40.4674 207.184C41.1287 206.779 41.854 206.576 42.6434 206.576C43.6567 206.576 44.526 206.896 45.2514 207.536C45.9767 208.165 46.3394 209.019 46.3394 210.096C46.3394 211.259 45.726 212.453 44.4994 213.68L42.3074 215.872H46.5154V218H39.0274ZM52.0319 218.224C50.6346 218.224 49.5359 217.696 48.7359 216.64C47.9466 215.573 47.5519 214.16 47.5519 212.4C47.5519 210.64 47.9466 209.232 48.7359 208.176C49.5359 207.109 50.6346 206.576 52.0319 206.576C53.4399 206.576 54.5386 207.109 55.3279 208.176C56.1173 209.232 56.5119 210.64 56.5119 212.4C56.5119 214.16 56.1173 215.573 55.3279 216.64C54.5386 217.696 53.4399 218.224 52.0319 218.224ZM50.3359 215.136C50.7199 215.755 51.2853 216.064 52.0319 216.064C52.7786 216.064 53.3439 215.749 53.7279 215.12C54.1226 214.491 54.3199 213.584 54.3199 212.4C54.3199 211.205 54.1226 210.293 53.7279 209.664C53.3439 209.035 52.7786 208.72 52.0319 208.72C51.2853 208.72 50.7199 209.035 50.3359 209.664C49.9519 210.293 49.7599 211.205 49.7599 212.4C49.7599 213.595 49.9519 214.507 50.3359 215.136ZM60.3025 215.792L59.1025 220.24H57.4225L58.0625 215.792H60.3025ZM65.7 218.224C64.3027 218.224 63.204 217.696 62.404 216.64C61.6147 215.573 61.22 214.16 61.22 212.4C61.22 210.64 61.6147 209.232 62.404 208.176C63.204 207.109 64.3027 206.576 65.7 206.576C67.108 206.576 68.2067 207.109 68.996 208.176C69.7854 209.232 70.18 210.64 70.18 212.4C70.18 214.16 69.7854 215.573 68.996 216.64C68.2067 217.696 67.108 218.224 65.7 218.224ZM64.004 215.136C64.388 215.755 64.9534 216.064 65.7 216.064C66.4467 216.064 67.012 215.749 67.396 215.12C67.7907 214.491 67.988 213.584 67.988 212.4C67.988 211.205 67.7907 210.293 67.396 209.664C67.012 209.035 66.4467 208.72 65.7 208.72C64.9534 208.72 64.388 209.035 64.004 209.664C63.62 210.293 63.428 211.205 63.428 212.4C63.428 213.595 63.62 214.507 64.004 215.136ZM75.831 218.224C74.4336 218.224 73.335 217.696 72.535 216.64C71.7456 215.573 71.351 214.16 71.351 212.4C71.351 210.64 71.7456 209.232 72.535 208.176C73.335 207.109 74.4336 206.576 75.831 206.576C77.239 206.576 78.3376 207.109 79.127 208.176C79.9163 209.232 80.311 210.64 80.311 212.4C80.311 214.16 79.9163 215.573 79.127 216.64C78.3376 217.696 77.239 218.224 75.831 218.224ZM74.135 215.136C74.519 215.755 75.0843 216.064 75.831 216.064C76.5776 216.064 77.143 215.749 77.527 215.12C77.9216 214.491 78.119 213.584 78.119 212.4C78.119 211.205 77.9216 210.293 77.527 209.664C77.143 209.035 76.5776 208.72 75.831 208.72C75.0843 208.72 74.519 209.035 74.135 209.664C73.751 210.293 73.559 211.205 73.559 212.4C73.559 213.595 73.751 214.507 74.135 215.136ZM85.9619 218.224C84.5645 218.224 83.4659 217.696 82.6659 216.64C81.8765 215.573 81.4819 214.16 81.4819 212.4C81.4819 210.64 81.8765 209.232 82.6659 208.176C83.4659 207.109 84.5645 206.576 85.9619 206.576C87.3699 206.576 88.4685 207.109 89.2579 208.176C90.0472 209.232 90.4419 210.64 90.4419 212.4C90.4419 214.16 90.0472 215.573 89.2579 216.64C88.4685 217.696 87.3699 218.224 85.9619 218.224ZM84.2659 215.136C84.6499 215.755 85.2152 216.064 85.9619 216.064C86.7085 216.064 87.2739 215.749 87.6579 215.12C88.0525 214.491 88.2499 213.584 88.2499 212.4C88.2499 211.205 88.0525 210.293 87.6579 209.664C87.2739 209.035 86.7085 208.72 85.9619 208.72C85.2152 208.72 84.6499 209.035 84.2659 209.664C83.8819 210.293 83.6899 211.205 83.6899 212.4C83.6899 213.595 83.8819 214.507 84.2659 215.136Z" fill="#5F666F"/>
<path d="M46.7139 160.048V162.096H45.5139V164H43.2899V162.096H37.9939V160.048L41.7219 152.8H44.0899L40.3779 160.048H43.2899V157.392H45.5139V160.048H46.7139ZM52.0319 164.224C50.6346 164.224 49.5359 163.696 48.7359 162.64C47.9466 161.573 47.5519 160.16 47.5519 158.4C47.5519 156.64 47.9466 155.232 48.7359 154.176C49.5359 153.109 50.6346 152.576 52.0319 152.576C53.4399 152.576 54.5386 153.109 55.3279 154.176C56.1173 155.232 56.5119 156.64 56.5119 158.4C56.5119 160.16 56.1173 161.573 55.3279 162.64C54.5386 163.696 53.4399 164.224 52.0319 164.224ZM50.3359 161.136C50.7199 161.755 51.2853 162.064 52.0319 162.064C52.7786 162.064 53.3439 161.749 53.7279 161.12C54.1226 160.491 54.3199 159.584 54.3199 158.4C54.3199 157.205 54.1226 156.293 53.7279 155.664C53.3439 155.035 52.7786 154.72 52.0319 154.72C51.2853 154.72 50.7199 155.035 50.3359 155.664C49.9519 156.293 49.7599 157.205 49.7599 158.4C49.7599 159.595 49.9519 160.507 50.3359 161.136ZM60.3025 161.792L59.1025 166.24H57.4225L58.0625 161.792H60.3025ZM65.7 164.224C64.3027 164.224 63.204 163.696 62.404 162.64C61.6147 161.573 61.22 160.16 61.22 158.4C61.22 156.64 61.6147 155.232 62.404 154.176C63.204 153.109 64.3027 152.576 65.7 152.576C67.108 152.576 68.2067 153.109 68.996 154.176C69.7854 155.232 70.18 156.64 70.18 158.4C70.18 160.16 69.7854 161.573 68.996 162.64C68.2067 163.696 67.108 164.224 65.7 164.224ZM64.004 161.136C64.388 161.755 64.9534 162.064 65.7 162.064C66.4467 162.064 67.012 161.749 67.396 161.12C67.7907 160.491 67.988 159.584 67.988 158.4C67.988 157.205 67.7907 156.293 67.396 155.664C67.012 155.035 66.4467 154.72 65.7 154.72C64.9534 154.72 64.388 155.035 64.004 155.664C63.62 156.293 63.428 157.205 63.428 158.4C63.428 159.595 63.62 160.507 64.004 161.136ZM75.831 164.224C74.4336 164.224 73.335 163.696 72.535 162.64C71.7456 161.573 71.351 160.16 71.351 158.4C71.351 156.64 71.7456 155.232 72.535 154.176C73.335 153.109 74.4336 152.576 75.831 152.576C77.239 152.576 78.3376 153.109 79.127 154.176C79.9163 155.232 80.311 156.64 80.311 158.4C80.311 160.16 79.9163 161.573 79.127 162.64C78.3376 163.696 77.239 164.224 75.831 164.224ZM74.135 161.136C74.519 161.755 75.0843 162.064 75.831 162.064C76.5776 162.064 77.143 161.749 77.527 161.12C77.9216 160.491 78.119 159.584 78.119 158.4C78.119 157.205 77.9216 156.293 77.527 155.664C77.143 155.035 76.5776 154.72 75.831 154.72C75.0843 154.72 74.519 155.035 74.135 155.664C73.751 156.293 73.559 157.205 73.559 158.4C73.559 159.595 73.751 160.507 74.135 161.136ZM85.9619 164.224C84.5645 164.224 83.4659 163.696 82.6659 162.64C81.8765 161.573 81.4819 160.16 81.4819 158.4C81.4819 156.64 81.8765 155.232 82.6659 154.176C83.4659 153.109 84.5645 152.576 85.9619 152.576C87.3699 152.576 88.4685 153.109 89.2579 154.176C90.0472 155.232 90.4419 156.64 90.4419 158.4C90.4419 160.16 90.0472 161.573 89.2579 162.64C88.4685 163.696 87.3699 164.224 85.9619 164.224ZM84.2659 161.136C84.6499 161.755 85.2152 162.064 85.9619 162.064C86.7085 162.064 87.2739 161.749 87.6579 161.12C88.0525 160.491 88.2499 159.584 88.2499 158.4C88.2499 157.205 88.0525 156.293 87.6579 155.664C87.2739 155.035 86.7085 154.72 85.9619 154.72C85.2152 154.72 84.6499 155.035 84.2659 155.664C83.8819 156.293 83.6899 157.205 83.6899 158.4C83.6899 159.595 83.8819 160.507 84.2659 161.136Z" fill="#5F666F"/>
<path d="M44.8534 100.176C45.888 100.795 46.4054 101.696 46.4054 102.88C46.4054 103.915 46.0427 104.731 45.3174 105.328C44.6027 105.925 43.6267 106.224 42.3894 106.224C41.1414 106.224 40.16 105.925 39.4454 105.328C38.7307 104.731 38.3734 103.915 38.3734 102.88C38.3734 101.696 38.8854 100.795 39.9094 100.176C39.1307 99.6107 38.7414 98.8373 38.7414 97.856C38.7414 96.8213 39.088 96.016 39.7814 95.44C40.4854 94.864 41.3547 94.576 42.3894 94.576C43.424 94.576 44.288 94.864 44.9814 95.44C45.6747 96.016 46.0214 96.8213 46.0214 97.856C46.0214 98.848 45.632 99.6213 44.8534 100.176ZM43.4294 97.008C43.1627 96.7733 42.816 96.656 42.3894 96.656C41.9627 96.656 41.616 96.7733 41.3494 97.008C41.0827 97.2427 40.9494 97.5627 40.9494 97.968C40.9494 98.3733 41.0827 98.6987 41.3494 98.944C41.616 99.1787 41.9627 99.296 42.3894 99.296C42.816 99.296 43.1627 99.1787 43.4294 98.944C43.696 98.6987 43.8294 98.3733 43.8294 97.968C43.8294 97.5627 43.696 97.2427 43.4294 97.008ZM41.0614 103.744C41.4027 104.011 41.8454 104.144 42.3894 104.144C42.9334 104.144 43.3707 104.011 43.7014 103.744C44.0427 103.467 44.2134 103.083 44.2134 102.592C44.2134 102.112 44.0427 101.739 43.7014 101.472C43.3707 101.195 42.9334 101.056 42.3894 101.056C41.8454 101.056 41.4027 101.195 41.0614 101.472C40.7307 101.739 40.5654 102.112 40.5654 102.592C40.5654 103.083 40.7307 103.467 41.0614 103.744ZM52.0319 106.224C50.6346 106.224 49.5359 105.696 48.7359 104.64C47.9466 103.573 47.5519 102.16 47.5519 100.4C47.5519 98.64 47.9466 97.232 48.7359 96.176C49.5359 95.1093 50.6346 94.576 52.0319 94.576C53.4399 94.576 54.5386 95.1093 55.3279 96.176C56.1173 97.232 56.5119 98.64 56.5119 100.4C56.5119 102.16 56.1173 103.573 55.3279 104.64C54.5386 105.696 53.4399 106.224 52.0319 106.224ZM50.3359 103.136C50.7199 103.755 51.2853 104.064 52.0319 104.064C52.7786 104.064 53.3439 103.749 53.7279 103.12C54.1226 102.491 54.3199 101.584 54.3199 100.4C54.3199 99.2053 54.1226 98.2933 53.7279 97.664C53.3439 97.0347 52.7786 96.72 52.0319 96.72C51.2853 96.72 50.7199 97.0347 50.3359 97.664C49.9519 98.2933 49.7599 99.2053 49.7599 100.4C49.7599 101.595 49.9519 102.507 50.3359 103.136ZM60.3025 103.792L59.1025 108.24H57.4225L58.0625 103.792H60.3025ZM65.7 106.224C64.3027 106.224 63.204 105.696 62.404 104.64C61.6147 103.573 61.22 102.16 61.22 100.4C61.22 98.64 61.6147 97.232 62.404 96.176C63.204 95.1093 64.3027 94.576 65.7 94.576C67.108 94.576 68.2067 95.1093 68.996 96.176C69.7854 97.232 70.18 98.64 70.18 100.4C70.18 102.16 69.7854 103.573 68.996 104.64C68.2067 105.696 67.108 106.224 65.7 106.224ZM64.004 103.136C64.388 103.755 64.9534 104.064 65.7 104.064C66.4467 104.064 67.012 103.749 67.396 103.12C67.7907 102.491 67.988 101.584 67.988 100.4C67.988 99.2053 67.7907 98.2933 67.396 97.664C67.012 97.0347 66.4467 96.72 65.7 96.72C64.9534 96.72 64.388 97.0347 64.004 97.664C63.62 98.2933 63.428 99.2053 63.428 100.4C63.428 101.595 63.62 102.507 64.004 103.136ZM75.831 106.224C74.4336 106.224 73.335 105.696 72.535 104.64C71.7456 103.573 71.351 102.16 71.351 100.4C71.351 98.64 71.7456 97.232 72.535 96.176C73.335 95.1093 74.4336 94.576 75.831 94.576C77.239 94.576 78.3376 95.1093 79.127 96.176C79.9163 97.232 80.311 98.64 80.311 100.4C80.311 102.16 79.9163 103.573 79.127 104.64C78.3376 105.696 77.239 106.224 75.831 106.224ZM74.135 103.136C74.519 103.755 75.0843 104.064 75.831 104.064C76.5776 104.064 77.143 103.749 77.527 103.12C77.9216 102.491 78.119 101.584 78.119 100.4C78.119 99.2053 77.9216 98.2933 77.527 97.664C77.143 97.0347 76.5776 96.72 75.831 96.72C75.0843 96.72 74.519 97.0347 74.135 97.664C73.751 98.2933 73.559 99.2053 73.559 100.4C73.559 101.595 73.751 102.507 74.135 103.136ZM85.9619 106.224C84.5645 106.224 83.4659 105.696 82.6659 104.64C81.8765 103.573 81.4819 102.16 81.4819 100.4C81.4819 98.64 81.8765 97.232 82.6659 96.176C83.4659 95.1093 84.5645 94.576 85.9619 94.576C87.3699 94.576 88.4685 95.1093 89.2579 96.176C90.0472 97.232 90.4419 98.64 90.4419 100.4C90.4419 102.16 90.0472 103.573 89.2579 104.64C88.4685 105.696 87.3699 106.224 85.9619 106.224ZM84.2659 103.136C84.6499 103.755 85.2152 104.064 85.9619 104.064C86.7085 104.064 87.2739 103.749 87.6579 103.12C88.0525 102.491 88.2499 101.584 88.2499 100.4C88.2499 99.2053 88.0525 98.2933 87.6579 97.664C87.2739 97.0347 86.7085 96.72 85.9619 96.72C85.2152 96.72 84.6499 97.0347 84.2659 97.664C83.8819 98.2933 83.6899 99.2053 83.6899 100.4C83.6899 101.595 83.8819 102.507 84.2659 103.136Z" fill="#5F666F"/>
<path d="M188.728 370.912H184.248V373.568H188.6V375.68H184.248V380H182.04V368.8H188.728V370.912ZM192.038 376.848C192.315 377.851 193.067 378.352 194.294 378.352C195.083 378.352 195.68 378.085 196.086 377.552L197.75 378.512C196.96 379.653 195.798 380.224 194.262 380.224C192.939 380.224 191.878 379.824 191.078 379.024C190.278 378.224 189.878 377.216 189.878 376C189.878 374.795 190.272 373.792 191.062 372.992C191.851 372.181 192.864 371.776 194.102 371.776C195.275 371.776 196.24 372.181 196.998 372.992C197.766 373.803 198.15 374.805 198.15 376C198.15 376.267 198.123 376.549 198.07 376.848H192.038ZM192.006 375.248H196.086C195.968 374.704 195.723 374.299 195.35 374.032C194.987 373.765 194.571 373.632 194.102 373.632C193.547 373.632 193.088 373.776 192.726 374.064C192.363 374.341 192.123 374.736 192.006 375.248ZM204.299 371.776C205.377 371.776 206.294 372.187 207.051 373.008C207.819 373.819 208.203 374.816 208.203 376C208.203 377.184 207.819 378.187 207.051 379.008C206.294 379.819 205.377 380.224 204.299 380.224C203.179 380.224 202.315 379.835 201.707 379.056V380H199.643V368.8H201.707V372.944C202.315 372.165 203.179 371.776 204.299 371.776ZM202.331 377.632C202.747 378.048 203.275 378.256 203.915 378.256C204.555 378.256 205.083 378.048 205.499 377.632C205.926 377.205 206.139 376.661 206.139 376C206.139 375.339 205.926 374.8 205.499 374.384C205.083 373.957 204.555 373.744 203.915 373.744C203.275 373.744 202.747 373.957 202.331 374.384C201.915 374.8 201.707 375.339 201.707 376C201.707 376.661 201.915 377.205 202.331 377.632Z" fill="#5F666F"/>
<path d="M276 368.8V380H273.808V372.736L270.656 377.936H270.4L267.248 372.752V380H265.04V368.8H267.312L270.528 374.096L273.728 368.8H276ZM284.124 372H286.188V380H284.124V379.056C283.505 379.835 282.636 380.224 281.516 380.224C280.449 380.224 279.532 379.819 278.764 379.008C278.006 378.187 277.628 377.184 277.628 376C277.628 374.816 278.006 373.819 278.764 373.008C279.532 372.187 280.449 371.776 281.516 371.776C282.636 371.776 283.505 372.165 284.124 372.944V372ZM280.316 377.632C280.732 378.048 281.26 378.256 281.9 378.256C282.54 378.256 283.068 378.048 283.484 377.632C283.91 377.205 284.124 376.661 284.124 376C284.124 375.339 283.91 374.8 283.484 374.384C283.068 373.957 282.54 373.744 281.9 373.744C281.26 373.744 280.732 373.957 280.316 374.384C279.9 374.8 279.692 375.339 279.692 376C279.692 376.661 279.9 377.205 280.316 377.632ZM290.176 373.376C290.368 372.864 290.683 372.48 291.12 372.224C291.568 371.968 292.064 371.84 292.608 371.84V374.144C291.979 374.069 291.413 374.197 290.912 374.528C290.421 374.859 290.176 375.408 290.176 376.176V380H288.112V372H290.176V373.376Z" fill="#5F666F"/>
<path d="M356.24 380L355.568 377.984H351.104L350.432 380H348.048L351.968 368.8H354.704L358.64 380H356.24ZM351.808 375.92H354.88L353.344 371.344L351.808 375.92ZM364.34 371.776C365.418 371.776 366.335 372.187 367.092 373.008C367.86 373.819 368.244 374.816 368.244 376C368.244 377.184 367.86 378.187 367.092 379.008C366.335 379.819 365.418 380.224 364.34 380.224C363.22 380.224 362.356 379.835 361.748 379.056V383.2H359.684V372H361.748V372.944C362.356 372.165 363.22 371.776 364.34 371.776ZM362.372 377.632C362.788 378.048 363.316 378.256 363.956 378.256C364.596 378.256 365.124 378.048 365.54 377.632C365.967 377.205 366.18 376.661 366.18 376C366.18 375.339 365.967 374.8 365.54 374.384C365.124 373.957 364.596 373.744 363.956 373.744C363.316 373.744 362.788 373.957 362.372 374.384C361.956 374.8 361.748 375.339 361.748 376C361.748 376.661 361.956 377.205 362.372 377.632ZM371.817 373.376C372.009 372.864 372.323 372.48 372.761 372.224C373.209 371.968 373.705 371.84 374.249 371.84V374.144C373.619 374.069 373.054 374.197 372.553 374.528C372.062 374.859 371.817 375.408 371.817 376.176V380H369.753V372H371.817V373.376Z" fill="#5F666F"/>
<path d="M442 368.8V380H439.808V372.736L436.656 377.936H436.4L433.248 372.752V380H431.04V368.8H433.312L436.528 374.096L439.728 368.8H442ZM450.124 372H452.188V380H450.124V379.056C449.505 379.835 448.636 380.224 447.516 380.224C446.449 380.224 445.532 379.819 444.764 379.008C444.006 378.187 443.628 377.184 443.628 376C443.628 374.816 444.006 373.819 444.764 373.008C445.532 372.187 446.449 371.776 447.516 371.776C448.636 371.776 449.505 372.165 450.124 372.944V372ZM446.316 377.632C446.732 378.048 447.26 378.256 447.9 378.256C448.54 378.256 449.068 378.048 449.484 377.632C449.91 377.205 450.124 376.661 450.124 376C450.124 375.339 449.91 374.8 449.484 374.384C449.068 373.957 448.54 373.744 447.9 373.744C447.26 373.744 446.732 373.957 446.316 374.384C445.9 374.8 445.692 375.339 445.692 376C445.692 376.661 445.9 377.205 446.316 377.632ZM459.328 372H461.536L458.624 380C458.208 381.152 457.653 381.984 456.96 382.496C456.277 383.019 455.424 383.253 454.4 383.2V381.28C454.955 381.291 455.392 381.173 455.712 380.928C456.043 380.683 456.304 380.288 456.496 379.744L453.216 372H455.472L457.552 377.376L459.328 372Z" fill="#5F666F"/>
<path d="M521.224 380.224C519.464 380.224 518.232 379.515 517.528 378.096L519.432 377.008C519.784 377.712 520.381 378.064 521.224 378.064C521.811 378.064 522.248 377.925 522.536 377.648C522.824 377.371 522.968 376.992 522.968 376.512V368.8H525.16V376.512C525.16 377.685 524.792 378.597 524.056 379.248C523.32 379.899 522.376 380.224 521.224 380.224ZM532.386 372H534.45V380H532.386V379.104C531.885 379.851 531.09 380.224 530.002 380.224C529.128 380.224 528.402 379.931 527.826 379.344C527.261 378.757 526.978 377.947 526.978 376.912V372H529.042V376.656C529.042 377.189 529.186 377.6 529.474 377.888C529.762 378.165 530.146 378.304 530.626 378.304C531.16 378.304 531.586 378.139 531.906 377.808C532.226 377.477 532.386 376.981 532.386 376.32V372ZM540.841 371.776C541.716 371.776 542.436 372.069 543.001 372.656C543.577 373.243 543.865 374.053 543.865 375.088V380H541.801V375.344C541.801 374.811 541.657 374.405 541.369 374.128C541.081 373.84 540.697 373.696 540.217 373.696C539.684 373.696 539.257 373.861 538.937 374.192C538.617 374.523 538.457 375.019 538.457 375.68V380H536.393V372H538.457V372.896C538.959 372.149 539.753 371.776 540.841 371.776Z" fill="#5F666F"/>
<path d="M604.224 380.224C602.464 380.224 601.232 379.515 600.528 378.096L602.432 377.008C602.784 377.712 603.381 378.064 604.224 378.064C604.811 378.064 605.248 377.925 605.536 377.648C605.824 377.371 605.968 376.992 605.968 376.512V368.8H608.16V376.512C608.16 377.685 607.792 378.597 607.056 379.248C606.32 379.899 605.376 380.224 604.224 380.224ZM615.386 372H617.45V380H615.386V379.104C614.885 379.851 614.09 380.224 613.002 380.224C612.128 380.224 611.402 379.931 610.826 379.344C610.261 378.757 609.978 377.947 609.978 376.912V372H612.042V376.656C612.042 377.189 612.186 377.6 612.474 377.888C612.762 378.165 613.146 378.304 613.626 378.304C614.16 378.304 614.586 378.139 614.906 377.808C615.226 377.477 615.386 376.981 615.386 376.32V372ZM619.393 380V368.32H621.457V380H619.393Z" fill="#5F666F"/>
<path d="M686.24 380L685.568 377.984H681.104L680.432 380H678.048L681.968 368.8H684.704L688.64 380H686.24ZM681.808 375.92H684.88L683.344 371.344L681.808 375.92ZM694.886 372H696.95V380H694.886V379.104C694.385 379.851 693.59 380.224 692.502 380.224C691.628 380.224 690.902 379.931 690.326 379.344C689.761 378.757 689.478 377.947 689.478 376.912V372H691.542V376.656C691.542 377.189 691.686 377.6 691.974 377.888C692.262 378.165 692.646 378.304 693.126 378.304C693.66 378.304 694.086 378.139 694.406 377.808C694.726 377.477 694.886 376.981 694.886 376.32V372ZM705.021 372H707.037V379.616C707.037 380.853 706.627 381.797 705.805 382.448C704.995 383.099 704.013 383.424 702.861 383.424C701.997 383.424 701.235 383.259 700.573 382.928C699.923 382.597 699.421 382.112 699.069 381.472L700.829 380.464C701.235 381.211 701.933 381.584 702.925 381.584C703.576 381.584 704.088 381.413 704.461 381.072C704.835 380.731 705.021 380.245 705.021 379.616V378.752C704.413 379.563 703.56 379.968 702.461 379.968C701.331 379.968 700.381 379.573 699.613 378.784C698.856 377.984 698.477 377.013 698.477 375.872C698.477 374.741 698.861 373.776 699.629 372.976C700.397 372.176 701.341 371.776 702.461 371.776C703.56 371.776 704.413 372.181 705.021 372.992V372ZM701.165 377.456C701.592 377.861 702.131 378.064 702.781 378.064C703.432 378.064 703.965 377.861 704.381 377.456C704.808 377.04 705.021 376.512 705.021 375.872C705.021 375.243 704.808 374.725 704.381 374.32C703.965 373.904 703.432 373.696 702.781 373.696C702.131 373.696 701.592 373.904 701.165 374.32C700.749 374.725 700.541 375.243 700.541 375.872C700.541 376.512 700.749 377.04 701.165 377.456Z" fill="#5F666F"/>
<path d="M767.864 380.224C766.755 380.224 765.821 379.979 765.064 379.488C764.307 378.987 763.773 378.309 763.464 377.456L765.352 376.352C765.789 377.493 766.648 378.064 767.928 378.064C768.547 378.064 769 377.952 769.288 377.728C769.576 377.504 769.72 377.221 769.72 376.88C769.72 376.485 769.544 376.181 769.192 375.968C768.84 375.744 768.211 375.504 767.304 375.248C766.803 375.099 766.376 374.949 766.024 374.8C765.683 374.651 765.336 374.453 764.984 374.208C764.643 373.952 764.381 373.632 764.2 373.248C764.019 372.864 763.928 372.416 763.928 371.904C763.928 370.891 764.285 370.085 765 369.488C765.725 368.88 766.595 368.576 767.608 368.576C768.515 368.576 769.309 368.8 769.992 369.248C770.685 369.685 771.224 370.299 771.608 371.088L769.752 372.16C769.304 371.2 768.589 370.72 767.608 370.72C767.149 370.72 766.787 370.827 766.52 371.04C766.264 371.243 766.136 371.509 766.136 371.84C766.136 372.192 766.28 372.48 766.568 372.704C766.867 372.917 767.432 373.152 768.264 373.408C768.605 373.515 768.861 373.6 769.032 373.664C769.213 373.717 769.453 373.808 769.752 373.936C770.061 374.053 770.296 374.165 770.456 374.272C770.627 374.379 770.819 374.523 771.032 374.704C771.245 374.885 771.405 375.072 771.512 375.264C771.629 375.456 771.725 375.691 771.8 375.968C771.885 376.235 771.928 376.528 771.928 376.848C771.928 377.883 771.549 378.704 770.792 379.312C770.045 379.92 769.069 380.224 767.864 380.224ZM775.288 376.848C775.565 377.851 776.317 378.352 777.544 378.352C778.333 378.352 778.93 378.085 779.336 377.552L781 378.512C780.21 379.653 779.048 380.224 777.512 380.224C776.189 380.224 775.128 379.824 774.328 379.024C773.528 378.224 773.128 377.216 773.128 376C773.128 374.795 773.522 373.792 774.312 372.992C775.101 372.181 776.114 371.776 777.352 371.776C778.525 371.776 779.49 372.181 780.248 372.992C781.016 373.803 781.4 374.805 781.4 376C781.4 376.267 781.373 376.549 781.32 376.848H775.288ZM775.256 375.248H779.336C779.218 374.704 778.973 374.299 778.6 374.032C778.237 373.765 777.821 373.632 777.352 373.632C776.797 373.632 776.338 373.776 775.976 374.064C775.613 374.341 775.373 374.736 775.256 375.248ZM787.549 371.776C788.627 371.776 789.544 372.187 790.301 373.008C791.069 373.819 791.453 374.816 791.453 376C791.453 377.184 791.069 378.187 790.301 379.008C789.544 379.819 788.627 380.224 787.549 380.224C786.429 380.224 785.565 379.835 784.957 379.056V383.2H782.893V372H784.957V372.944C785.565 372.165 786.429 371.776 787.549 371.776ZM785.581 377.632C785.997 378.048 786.525 378.256 787.165 378.256C787.805 378.256 788.333 378.048 788.749 377.632C789.176 377.205 789.389 376.661 789.389 376C789.389 375.339 789.176 374.8 788.749 374.384C788.333 373.957 787.805 373.744 787.165 373.744C786.525 373.744 785.997 373.957 785.581 374.384C785.165 374.8 784.957 375.339 784.957 376C784.957 376.661 785.165 377.205 785.581 377.632Z" fill="#5F666F"/>
<path d="M857.464 378.544C856.333 379.664 854.957 380.224 853.336 380.224C851.715 380.224 850.339 379.664 849.208 378.544C848.088 377.413 847.528 376.032 847.528 374.4C847.528 372.768 848.088 371.392 849.208 370.272C850.339 369.141 851.715 368.576 853.336 368.576C854.957 368.576 856.333 369.141 857.464 370.272C858.595 371.392 859.16 372.768 859.16 374.4C859.16 376.032 858.595 377.413 857.464 378.544ZM850.76 377.04C851.453 377.723 852.312 378.064 853.336 378.064C854.36 378.064 855.219 377.723 855.912 377.04C856.605 376.347 856.952 375.467 856.952 374.4C856.952 373.333 856.605 372.453 855.912 371.76C855.219 371.067 854.36 370.72 853.336 370.72C852.312 370.72 851.453 371.067 850.76 371.76C850.067 372.453 849.72 373.333 849.72 374.4C849.72 375.467 850.067 376.347 850.76 377.04ZM864.477 380.224C863.271 380.224 862.263 379.819 861.453 379.008C860.653 378.197 860.253 377.195 860.253 376C860.253 374.805 860.653 373.803 861.453 372.992C862.263 372.181 863.271 371.776 864.477 371.776C865.255 371.776 865.965 371.963 866.605 372.336C867.245 372.709 867.73 373.211 868.061 373.84L866.285 374.88C866.125 374.549 865.879 374.288 865.549 374.096C865.229 373.904 864.866 373.808 864.461 373.808C863.842 373.808 863.33 374.016 862.925 374.432C862.519 374.837 862.317 375.36 862.317 376C862.317 376.629 862.519 377.152 862.925 377.568C863.33 377.973 863.842 378.176 864.461 378.176C864.877 378.176 865.245 378.085 865.565 377.904C865.895 377.712 866.141 377.451 866.301 377.12L868.093 378.144C867.741 378.773 867.245 379.28 866.605 379.664C865.965 380.037 865.255 380.224 864.477 380.224ZM873.813 373.984H872.005V377.312C872.005 377.589 872.074 377.792 872.213 377.92C872.352 378.048 872.554 378.123 872.821 378.144C873.088 378.155 873.418 378.149 873.813 378.128V380C872.394 380.16 871.392 380.027 870.805 379.6C870.229 379.173 869.941 378.411 869.941 377.312V373.984H868.549V372H869.941V370.384L872.005 369.76V372H873.813V373.984Z" fill="#5F666F"/>
<path d="M937.52 368.8H939.728V380H938.048L933.248 373.152V380H931.04V368.8H932.72L937.52 375.632V368.8ZM948.578 379.008C947.757 379.819 946.754 380.224 945.57 380.224C944.386 380.224 943.384 379.819 942.562 379.008C941.752 378.187 941.346 377.184 941.346 376C941.346 374.816 941.752 373.819 942.562 373.008C943.384 372.187 944.386 371.776 945.57 371.776C946.754 371.776 947.757 372.187 948.578 373.008C949.4 373.819 949.81 374.816 949.81 376C949.81 377.184 949.4 378.187 948.578 379.008ZM944.018 377.584C944.434 378 944.952 378.208 945.57 378.208C946.189 378.208 946.706 378 947.122 377.584C947.538 377.168 947.746 376.64 947.746 376C947.746 375.36 947.538 374.832 947.122 374.416C946.706 374 946.189 373.792 945.57 373.792C944.952 373.792 944.434 374 944.018 374.416C943.613 374.832 943.41 375.36 943.41 376C943.41 376.64 943.613 377.168 944.018 377.584ZM956.267 372H958.539L955.499 380H953.147L950.107 372H952.379L954.315 377.6L956.267 372Z" fill="#5F666F"/>
<path d="M1019.49 368.8C1021.02 368.8 1022.3 369.339 1023.33 370.416C1024.36 371.493 1024.88 372.821 1024.88 374.4C1024.88 375.979 1024.36 377.307 1023.33 378.384C1022.3 379.461 1021.02 380 1019.49 380H1015.04V368.8H1019.49ZM1019.49 377.888C1020.46 377.888 1021.25 377.568 1021.86 376.928C1022.46 376.277 1022.77 375.435 1022.77 374.4C1022.77 373.365 1022.46 372.528 1021.86 371.888C1021.25 371.237 1020.46 370.912 1019.49 370.912H1017.25V377.888H1019.49ZM1028.15 376.848C1028.42 377.851 1029.18 378.352 1030.4 378.352C1031.19 378.352 1031.79 378.085 1032.2 377.552L1033.86 378.512C1033.07 379.653 1031.91 380.224 1030.37 380.224C1029.05 380.224 1027.99 379.824 1027.19 379.024C1026.39 378.224 1025.99 377.216 1025.99 376C1025.99 374.795 1026.38 373.792 1027.17 372.992C1027.96 372.181 1028.97 371.776 1030.21 371.776C1031.38 371.776 1032.35 372.181 1033.11 372.992C1033.88 373.803 1034.26 374.805 1034.26 376C1034.26 376.267 1034.23 376.549 1034.18 376.848H1028.15ZM1028.12 375.248H1032.2C1032.08 374.704 1031.83 374.299 1031.46 374.032C1031.1 373.765 1030.68 373.632 1030.21 373.632C1029.66 373.632 1029.2 373.776 1028.84 374.064C1028.47 374.341 1028.23 374.736 1028.12 375.248ZM1039.5 380.224C1038.29 380.224 1037.28 379.819 1036.47 379.008C1035.67 378.197 1035.27 377.195 1035.27 376C1035.27 374.805 1035.67 373.803 1036.47 372.992C1037.28 372.181 1038.29 371.776 1039.5 371.776C1040.28 371.776 1040.99 371.963 1041.63 372.336C1042.27 372.709 1042.75 373.211 1043.08 373.84L1041.31 374.88C1041.15 374.549 1040.9 374.288 1040.57 374.096C1040.25 373.904 1039.89 373.808 1039.48 373.808C1038.86 373.808 1038.35 374.016 1037.95 374.432C1037.54 374.837 1037.34 375.36 1037.34 376C1037.34 376.629 1037.54 377.152 1037.95 377.568C1038.35 377.973 1038.86 378.176 1039.48 378.176C1039.9 378.176 1040.27 378.085 1040.59 377.904C1040.92 377.712 1041.16 377.451 1041.32 377.12L1043.11 378.144C1042.76 378.773 1042.27 379.28 1041.63 379.664C1040.99 380.037 1040.28 380.224 1039.5 380.224Z" fill="#5F666F"/>
<path d="M112 351.5V84" stroke="#E2E2E2" stroke-linecap="round" stroke-linejoin="round"/>
<path d="M112 326L1030 326" stroke="#E2E2E2" stroke-linecap="round" stroke-linejoin="round"/>
<path d="M112 270L1030 270" stroke="#E2E2E2" stroke-linecap="round" stroke-linejoin="round"/>
<path d="M112 214L1029 214" stroke="#E2E2E2" stroke-linecap="round" stroke-linejoin="round"/>
<path d="M112 102L1030 102" stroke="#E2E2E2" stroke-linecap="round" stroke-linejoin="round"/>
<path d="M112 157L1030 157" stroke="#E2E2E2" stroke-linecap="round" stroke-linejoin="round"/>
<path d="M279 351.5V84" stroke="#E2E2E2" stroke-linecap="round" stroke-linejoin="round"/>
<path d="M446 351.5V84" stroke="#E2E2E2" stroke-linecap="round" stroke-linejoin="round"/>
<path d="M612 351.5V84" stroke="#878787" stroke-linecap="round" stroke-linejoin="round" stroke-dasharray="10 10"/>
<path d="M778 351.5V84" stroke="#E2E2E2" stroke-linecap="round" stroke-linejoin="round"/>
<path d="M945 351.5V84" stroke="#E2E2E2" stroke-linecap="round" stroke-linejoin="round"/>
<path d="M195 351.5V84" stroke="#E2E2E2" stroke-linecap="round" stroke-linejoin="round"/>
<path d="M362 351.5V84" stroke="#E2E2E2" stroke-linecap="round" stroke-linejoin="round"/>
<path d="M530.5 351.5V84" stroke="#E2E2E2" stroke-linecap="round" stroke-linejoin="round"/>
<path d="M693 351.5V84" stroke="#E2E2E2" stroke-linecap="round" stroke-linejoin="round"/>
<path d="M861 351.5V84" stroke="#E2E2E2" stroke-linecap="round" stroke-linejoin="round"/>
<path d="M1029 351.5V84" stroke="#E2E2E2" stroke-linecap="round" stroke-linejoin="round"/>
<path d="M202.704 284.718C168.45 295.235 112 271.166 112 271.166V359H1030V271.166C1012.36 236.192 983.73 218.658 944.779 218.968C906.324 219.273 899.507 271.181 861.052 271.166C797.756 271.141 843.597 128.221 780.316 129.628C730.92 130.727 739.267 213.95 690.111 218.968C658.575 222.187 644.553 194.599 612.863 193.872C578.757 193.09 562.896 223.914 529.137 218.968C486.895 212.778 487.385 156.022 445.41 148.199C390.648 137.992 375.187 233.193 321.316 218.968C269.832 205.373 298.64 112.859 246.062 104.533C175.041 93.2863 271.472 263.603 202.704 284.718Z" fill="url(#paint0_linear_2043_1640)"/>
<path d="M112 270.822C112 270.822 168.45 294.841 202.704 284.346C271.472 263.275 175.041 93.3083 246.062 104.532C298.64 112.841 269.832 205.164 321.316 218.731C375.187 232.927 390.648 137.922 445.41 148.108C487.385 155.915 486.895 212.554 529.137 218.731C562.896 223.668 578.757 192.907 612.863 193.687C644.553 194.413 658.575 221.944 690.111 218.731C739.267 213.723 730.92 130.672 780.316 129.575C843.597 128.171 797.756 270.797 861.052 270.822C899.507 270.837 906.324 219.036 944.778 218.731C983.73 218.422 1012.36 235.92 1030 270.822" stroke="#1B79E8" stroke-width="3" stroke-linecap="round" stroke-linejoin="round"/>
<path d="M112 123.447C112 123.447 212.868 123.447 277.5 123.447C324.5 123.447 324.5 77.5206 371.5 99.0002C482 149.5 558.73 99.0001 689 99.0001C772.5 99.0001 807.355 137 876.5 137C945.645 137 1030 99.0002 1030 99.0002" stroke="#FF6666" stroke-width="3" stroke-linecap="round" stroke-linejoin="round"/>
<circle cx="611.5" cy="103.5" r="12" fill="white" stroke="#FF6666" stroke-width="3"/>
<path d="M69.842 44.152H73.972V46H67.91V36.2H73.902V38.048H69.842V40.134H73.552V41.954H69.842V44.152ZM76.962 40.988C76.962 41.1747 77.0834 41.3287 77.326 41.45C77.578 41.562 77.8814 41.6647 78.236 41.758C78.5907 41.842 78.9454 41.954 79.3 42.094C79.6547 42.2247 79.9534 42.4487 80.196 42.766C80.448 43.0833 80.574 43.48 80.574 43.956C80.574 44.6747 80.3034 45.23 79.762 45.622C79.23 46.0047 78.5627 46.196 77.76 46.196C76.3227 46.196 75.3427 45.6407 74.82 44.53L76.388 43.648C76.5934 44.2547 77.0507 44.558 77.76 44.558C78.404 44.558 78.726 44.3573 78.726 43.956C78.726 43.7693 78.6 43.62 78.348 43.508C78.1054 43.3867 77.8067 43.2793 77.452 43.186C77.0974 43.0927 76.7427 42.976 76.388 42.836C76.0334 42.696 75.73 42.4767 75.478 42.178C75.2354 41.87 75.114 41.4873 75.114 41.03C75.114 40.3393 75.366 39.798 75.87 39.406C76.3834 39.0047 77.018 38.804 77.774 38.804C78.3434 38.804 78.8614 38.9347 79.328 39.196C79.7947 39.448 80.1634 39.812 80.434 40.288L78.894 41.128C78.67 40.652 78.2967 40.414 77.774 40.414C77.5407 40.414 77.3447 40.4653 77.186 40.568C77.0367 40.6707 76.962 40.8107 76.962 40.988ZM83.0785 40.988C83.0785 41.1747 83.1999 41.3287 83.4425 41.45C83.6945 41.562 83.9979 41.6647 84.3525 41.758C84.7072 41.842 85.0619 41.954 85.4165 42.094C85.7712 42.2247 86.0699 42.4487 86.3125 42.766C86.5645 43.0833 86.6905 43.48 86.6905 43.956C86.6905 44.6747 86.4199 45.23 85.8785 45.622C85.3465 46.0047 84.6792 46.196 83.8765 46.196C82.4392 46.196 81.4592 45.6407 80.9365 44.53L82.5045 43.648C82.7099 44.2547 83.1672 44.558 83.8765 44.558C84.5205 44.558 84.8425 44.3573 84.8425 43.956C84.8425 43.7693 84.7165 43.62 84.4645 43.508C84.2219 43.3867 83.9232 43.2793 83.5685 43.186C83.2139 43.0927 82.8592 42.976 82.5045 42.836C82.1499 42.696 81.8465 42.4767 81.5945 42.178C81.3519 41.87 81.2305 41.4873 81.2305 41.03C81.2305 40.3393 81.4825 39.798 81.9865 39.406C82.4999 39.0047 83.1345 38.804 83.8905 38.804C84.4599 38.804 84.9779 38.9347 85.4445 39.196C85.9112 39.448 86.2799 39.812 86.5505 40.288L85.0105 41.128C84.7865 40.652 84.4132 40.414 83.8905 40.414C83.6572 40.414 83.4612 40.4653 83.3025 40.568C83.1532 40.6707 83.0785 40.8107 83.0785 40.988ZM89.3285 43.242C89.5712 44.1193 90.2292 44.558 91.3025 44.558C91.9932 44.558 92.5158 44.3247 92.8705 43.858L94.3265 44.698C93.6358 45.6967 92.6185 46.196 91.2745 46.196C90.1172 46.196 89.1885 45.846 88.4885 45.146C87.7885 44.446 87.4385 43.564 87.4385 42.5C87.4385 41.4453 87.7838 40.568 88.4745 39.868C89.1652 39.1587 90.0518 38.804 91.1345 38.804C92.1612 38.804 93.0058 39.1587 93.6685 39.868C94.3405 40.5773 94.6765 41.4547 94.6765 42.5C94.6765 42.7333 94.6532 42.9807 94.6065 43.242H89.3285ZM89.3005 41.842H92.8705C92.7678 41.366 92.5532 41.0113 92.2265 40.778C91.9092 40.5447 91.5452 40.428 91.1345 40.428C90.6492 40.428 90.2478 40.554 89.9305 40.806C89.6132 41.0487 89.4032 41.394 89.3005 41.842ZM99.8755 38.804C100.641 38.804 101.271 39.0607 101.765 39.574C102.269 40.0873 102.521 40.7967 102.521 41.702V46H100.715V41.926C100.715 41.4593 100.589 41.1047 100.337 40.862C100.085 40.61 99.7495 40.484 99.3295 40.484C98.8628 40.484 98.4895 40.6287 98.2095 40.918C97.9295 41.2073 97.7895 41.6413 97.7895 42.22V46H95.9835V39H97.7895V39.784C98.2281 39.1307 98.9235 38.804 99.8755 38.804ZM108.114 40.736H106.532V43.648C106.532 43.8907 106.592 44.068 106.714 44.18C106.835 44.292 107.012 44.3573 107.246 44.376C107.479 44.3853 107.768 44.3807 108.114 44.362V46C106.872 46.14 105.995 46.0233 105.482 45.65C104.978 45.2767 104.726 44.6093 104.726 43.648V40.736H103.508V39H104.726V37.586L106.532 37.04V39H108.114V40.736ZM110.329 38.16C110.031 38.16 109.769 38.0527 109.545 37.838C109.331 37.614 109.223 37.3527 109.223 37.054C109.223 36.7553 109.331 36.494 109.545 36.27C109.769 36.046 110.031 35.934 110.329 35.934C110.637 35.934 110.899 36.046 111.113 36.27C111.337 36.494 111.449 36.7553 111.449 37.054C111.449 37.3527 111.337 37.614 111.113 37.838C110.899 38.0527 110.637 38.16 110.329 38.16ZM109.433 46V39H111.239V46H109.433ZM118.258 39H120.064V46H118.258V45.174C117.717 45.8553 116.956 46.196 115.976 46.196C115.043 46.196 114.24 45.8413 113.568 45.132C112.906 44.4133 112.574 43.536 112.574 42.5C112.574 41.464 112.906 40.5913 113.568 39.882C114.24 39.1633 115.043 38.804 115.976 38.804C116.956 38.804 117.717 39.1447 118.258 39.826V39ZM114.926 43.928C115.29 44.292 115.752 44.474 116.312 44.474C116.872 44.474 117.334 44.292 117.698 43.928C118.072 43.5547 118.258 43.0787 118.258 42.5C118.258 41.9213 118.072 41.45 117.698 41.086C117.334 40.7127 116.872 40.526 116.312 40.526C115.752 40.526 115.29 40.7127 114.926 41.086C114.562 41.45 114.38 41.9213 114.38 42.5C114.38 43.0787 114.562 43.5547 114.926 43.928ZM121.748 46V35.78H123.554V46H121.748ZM126.865 40.988C126.865 41.1747 126.986 41.3287 127.229 41.45C127.481 41.562 127.784 41.6647 128.139 41.758C128.493 41.842 128.848 41.954 129.203 42.094C129.557 42.2247 129.856 42.4487 130.099 42.766C130.351 43.0833 130.477 43.48 130.477 43.956C130.477 44.6747 130.206 45.23 129.665 45.622C129.133 46.0047 128.465 46.196 127.663 46.196C126.225 46.196 125.245 45.6407 124.723 44.53L126.291 43.648C126.496 44.2547 126.953 44.558 127.663 44.558C128.307 44.558 128.629 44.3573 128.629 43.956C128.629 43.7693 128.503 43.62 128.251 43.508C128.008 43.3867 127.709 43.2793 127.355 43.186C127 43.0927 126.645 42.976 126.291 42.836C125.936 42.696 125.633 42.4767 125.381 42.178C125.138 41.87 125.017 41.4873 125.017 41.03C125.017 40.3393 125.269 39.798 125.773 39.406C126.286 39.0047 126.921 38.804 127.677 38.804C128.246 38.804 128.764 38.9347 129.231 39.196C129.697 39.448 130.066 39.812 130.337 40.288L128.797 41.128C128.573 40.652 128.199 40.414 127.677 40.414C127.443 40.414 127.247 40.4653 127.089 40.568C126.939 40.6707 126.865 40.8107 126.865 40.988ZM137.315 44.152H141.445V46H135.383V36.2H141.375V38.048H137.315V40.134H141.025V41.954H137.315V44.152ZM149.223 46H147.137L145.625 43.872L144.099 46H142.013L144.575 42.43L142.125 39H144.211L145.625 40.974L147.039 39H149.111L146.661 42.416L149.223 46ZM154.245 38.804C155.187 38.804 155.99 39.1633 156.653 39.882C157.325 40.5913 157.661 41.464 157.661 42.5C157.661 43.536 157.325 44.4133 156.653 45.132C155.99 45.8413 155.187 46.196 154.245 46.196C153.265 46.196 152.509 45.8553 151.977 45.174V48.8H150.171V39H151.977V39.826C152.509 39.1447 153.265 38.804 154.245 38.804ZM152.523 43.928C152.887 44.292 153.349 44.474 153.909 44.474C154.469 44.474 154.931 44.292 155.295 43.928C155.668 43.5547 155.855 43.0787 155.855 42.5C155.855 41.9213 155.668 41.45 155.295 41.086C154.931 40.7127 154.469 40.526 153.909 40.526C153.349 40.526 152.887 40.7127 152.523 41.086C152.159 41.45 151.977 41.9213 151.977 42.5C151.977 43.0787 152.159 43.5547 152.523 43.928ZM160.507 43.242C160.749 44.1193 161.407 44.558 162.481 44.558C163.171 44.558 163.694 44.3247 164.049 43.858L165.505 44.698C164.814 45.6967 163.797 46.196 162.453 46.196C161.295 46.196 160.367 45.846 159.667 45.146C158.967 44.446 158.617 43.564 158.617 42.5C158.617 41.4453 158.962 40.568 159.653 39.868C160.343 39.1587 161.23 38.804 162.313 38.804C163.339 38.804 164.184 39.1587 164.847 39.868C165.519 40.5773 165.855 41.4547 165.855 42.5C165.855 42.7333 165.831 42.9807 165.785 43.242H160.507ZM160.479 41.842H164.049C163.946 41.366 163.731 41.0113 163.405 40.778C163.087 40.5447 162.723 40.428 162.313 40.428C161.827 40.428 161.426 40.554 161.109 40.806C160.791 41.0487 160.581 41.394 160.479 41.842ZM171.054 38.804C171.819 38.804 172.449 39.0607 172.944 39.574C173.448 40.0873 173.7 40.7967 173.7 41.702V46H171.894V41.926C171.894 41.4593 171.768 41.1047 171.516 40.862C171.264 40.61 170.928 40.484 170.508 40.484C170.041 40.484 169.668 40.6287 169.388 40.918C169.108 41.2073 168.968 41.6413 168.968 42.22V46H167.162V39H168.968V39.784C169.406 39.1307 170.102 38.804 171.054 38.804ZM176.954 40.988C176.954 41.1747 177.075 41.3287 177.318 41.45C177.57 41.562 177.873 41.6647 178.228 41.758C178.583 41.842 178.937 41.954 179.292 42.094C179.647 42.2247 179.945 42.4487 180.188 42.766C180.44 43.0833 180.566 43.48 180.566 43.956C180.566 44.6747 180.295 45.23 179.754 45.622C179.222 46.0047 178.555 46.196 177.752 46.196C176.315 46.196 175.335 45.6407 174.812 44.53L176.38 43.648C176.585 44.2547 177.043 44.558 177.752 44.558C178.396 44.558 178.718 44.3573 178.718 43.956C178.718 43.7693 178.592 43.62 178.34 43.508C178.097 43.3867 177.799 43.2793 177.444 43.186C177.089 43.0927 176.735 42.976 176.38 42.836C176.025 42.696 175.722 42.4767 175.47 42.178C175.227 41.87 175.106 41.4873 175.106 41.03C175.106 40.3393 175.358 39.798 175.862 39.406C176.375 39.0047 177.01 38.804 177.766 38.804C178.335 38.804 178.853 38.9347 179.32 39.196C179.787 39.448 180.155 39.812 180.426 40.288L178.886 41.128C178.662 40.652 178.289 40.414 177.766 40.414C177.533 40.414 177.337 40.4653 177.178 40.568C177.029 40.6707 176.954 40.8107 176.954 40.988ZM183.204 43.242C183.446 44.1193 184.104 44.558 185.178 44.558C185.868 44.558 186.391 44.3247 186.746 43.858L188.202 44.698C187.511 45.6967 186.494 46.196 185.15 46.196C183.992 46.196 183.064 45.846 182.364 45.146C181.664 44.446 181.314 43.564 181.314 42.5C181.314 41.4453 181.659 40.568 182.35 39.868C183.04 39.1587 183.927 38.804 185.01 38.804C186.036 38.804 186.881 39.1587 187.544 39.868C188.216 40.5773 188.552 41.4547 188.552 42.5C188.552 42.7333 188.528 42.9807 188.482 43.242H183.204ZM183.176 41.842H186.746C186.643 41.366 186.428 41.0113 186.102 40.778C185.784 40.5447 185.42 40.428 185.01 40.428C184.524 40.428 184.123 40.554 183.806 40.806C183.488 41.0487 183.278 41.394 183.176 41.842ZM191.251 40.988C191.251 41.1747 191.373 41.3287 191.615 41.45C191.867 41.562 192.171 41.6647 192.525 41.758C192.88 41.842 193.235 41.954 193.589 42.094C193.944 42.2247 194.243 42.4487 194.485 42.766C194.737 43.0833 194.863 43.48 194.863 43.956C194.863 44.6747 194.593 45.23 194.051 45.622C193.519 46.0047 192.852 46.196 192.049 46.196C190.612 46.196 189.632 45.6407 189.109 44.53L190.677 43.648C190.883 44.2547 191.34 44.558 192.049 44.558C192.693 44.558 193.015 44.3573 193.015 43.956C193.015 43.7693 192.889 43.62 192.637 43.508C192.395 43.3867 192.096 43.2793 191.741 43.186C191.387 43.0927 191.032 42.976 190.677 42.836C190.323 42.696 190.019 42.4767 189.767 42.178C189.525 41.87 189.403 41.4873 189.403 41.03C189.403 40.3393 189.655 39.798 190.159 39.406C190.673 39.0047 191.307 38.804 192.063 38.804C192.633 38.804 193.151 38.9347 193.617 39.196C194.084 39.448 194.453 39.812 194.723 40.288L193.183 41.128C192.959 40.652 192.586 40.414 192.063 40.414C191.83 40.414 191.634 40.4653 191.475 40.568C191.326 40.6707 191.251 40.8107 191.251 40.988Z" fill="#243257"/>
<circle cx="50" cy="42" r="11" stroke="#1B79E6" stroke-width="2"/>
<circle cx="50" cy="42" r="6" fill="#1B79E6"/>
<path d="M240.842 44.152H244.58V46H238.91V36.2H240.842V44.152ZM246.536 38.16C246.237 38.16 245.976 38.0527 245.752 37.838C245.537 37.614 245.43 37.3527 245.43 37.054C245.43 36.7553 245.537 36.494 245.752 36.27C245.976 36.046 246.237 35.934 246.536 35.934C246.844 35.934 247.105 36.046 247.32 36.27C247.544 36.494 247.656 36.7553 247.656 37.054C247.656 37.3527 247.544 37.614 247.32 37.838C247.105 38.0527 246.844 38.16 246.536 38.16ZM245.64 46V39H247.446V46H245.64ZM252.911 37.74C251.922 37.6653 251.427 38.062 251.427 38.93V39H252.911V40.736H251.427V46H249.621V40.736H248.613V39H249.621V38.93C249.621 37.9407 249.896 37.1893 250.447 36.676C250.998 36.1627 251.819 35.9387 252.911 36.004V37.74ZM255.051 43.242C255.294 44.1193 255.952 44.558 257.025 44.558C257.716 44.558 258.238 44.3247 258.593 43.858L260.049 44.698C259.358 45.6967 258.341 46.196 256.997 46.196C255.84 46.196 254.911 45.846 254.211 45.146C253.511 44.446 253.161 43.564 253.161 42.5C253.161 41.4453 253.506 40.568 254.197 39.868C254.888 39.1587 255.774 38.804 256.857 38.804C257.884 38.804 258.728 39.1587 259.391 39.868C260.063 40.5773 260.399 41.4547 260.399 42.5C260.399 42.7333 260.376 42.9807 260.329 43.242H255.051ZM255.023 41.842H258.593C258.49 41.366 258.276 41.0113 257.949 40.778C257.632 40.5447 257.268 40.428 256.857 40.428C256.372 40.428 255.97 40.554 255.653 40.806C255.336 41.0487 255.126 41.394 255.023 41.842ZM263.099 40.988C263.099 41.1747 263.22 41.3287 263.463 41.45C263.715 41.562 264.018 41.6647 264.373 41.758C264.727 41.842 265.082 41.954 265.437 42.094C265.791 42.2247 266.09 42.4487 266.333 42.766C266.585 43.0833 266.711 43.48 266.711 43.956C266.711 44.6747 266.44 45.23 265.899 45.622C265.367 46.0047 264.699 46.196 263.897 46.196C262.459 46.196 261.479 45.6407 260.957 44.53L262.525 43.648C262.73 44.2547 263.187 44.558 263.897 44.558C264.541 44.558 264.863 44.3573 264.863 43.956C264.863 43.7693 264.737 43.62 264.485 43.508C264.242 43.3867 263.943 43.2793 263.589 43.186C263.234 43.0927 262.879 42.976 262.525 42.836C262.17 42.696 261.867 42.4767 261.615 42.178C261.372 41.87 261.251 41.4873 261.251 41.03C261.251 40.3393 261.503 39.798 262.007 39.406C262.52 39.0047 263.155 38.804 263.911 38.804C264.48 38.804 264.998 38.9347 265.465 39.196C265.931 39.448 266.3 39.812 266.571 40.288L265.031 41.128C264.807 40.652 264.433 40.414 263.911 40.414C263.677 40.414 263.481 40.4653 263.323 40.568C263.173 40.6707 263.099 40.8107 263.099 40.988ZM271.717 40.736H270.135V43.648C270.135 43.8907 270.196 44.068 270.317 44.18C270.439 44.292 270.616 44.3573 270.849 44.376C271.083 44.3853 271.372 44.3807 271.717 44.362V46C270.476 46.14 269.599 46.0233 269.085 45.65C268.581 45.2767 268.329 44.6093 268.329 43.648V40.736H267.111V39H268.329V37.586L270.135 37.04V39H271.717V40.736ZM277.751 39H279.683L277.135 46C276.771 47.008 276.286 47.736 275.679 48.184C275.082 48.6413 274.335 48.8467 273.439 48.8V47.12C273.925 47.1293 274.307 47.0267 274.587 46.812C274.877 46.5973 275.105 46.252 275.273 45.776L272.403 39H274.377L276.197 43.704L277.751 39ZM280.589 46V35.78H282.395V46H280.589ZM285.62 43.242C285.863 44.1193 286.521 44.558 287.594 44.558C288.285 44.558 288.807 44.3247 289.162 43.858L290.618 44.698C289.927 45.6967 288.91 46.196 287.566 46.196C286.409 46.196 285.48 45.846 284.78 45.146C284.08 44.446 283.73 43.564 283.73 42.5C283.73 41.4453 284.075 40.568 284.766 39.868C285.457 39.1587 286.343 38.804 287.426 38.804C288.453 38.804 289.297 39.1587 289.96 39.868C290.632 40.5773 290.968 41.4547 290.968 42.5C290.968 42.7333 290.945 42.9807 290.898 43.242H285.62ZM285.592 41.842H289.162C289.059 41.366 288.845 41.0113 288.518 40.778C288.201 40.5447 287.837 40.428 287.426 40.428C286.941 40.428 286.539 40.554 286.222 40.806C285.905 41.0487 285.695 41.394 285.592 41.842ZM297.837 44.152H301.967V46H295.905V36.2H301.897V38.048H297.837V40.134H301.547V41.954H297.837V44.152ZM309.745 46H307.659L306.147 43.872L304.621 46H302.535L305.097 42.43L302.647 39H304.733L306.147 40.974L307.561 39H309.633L307.183 42.416L309.745 46ZM314.767 38.804C315.71 38.804 316.512 39.1633 317.175 39.882C317.847 40.5913 318.183 41.464 318.183 42.5C318.183 43.536 317.847 44.4133 317.175 45.132C316.512 45.8413 315.71 46.196 314.767 46.196C313.787 46.196 313.031 45.8553 312.499 45.174V48.8H310.693V39H312.499V39.826C313.031 39.1447 313.787 38.804 314.767 38.804ZM313.045 43.928C313.409 44.292 313.871 44.474 314.431 44.474C314.991 44.474 315.453 44.292 315.817 43.928C316.19 43.5547 316.377 43.0787 316.377 42.5C316.377 41.9213 316.19 41.45 315.817 41.086C315.453 40.7127 314.991 40.526 314.431 40.526C313.871 40.526 313.409 40.7127 313.045 41.086C312.681 41.45 312.499 41.9213 312.499 42.5C312.499 43.0787 312.681 43.5547 313.045 43.928ZM321.029 43.242C321.271 44.1193 321.929 44.558 323.003 44.558C323.693 44.558 324.216 44.3247 324.571 43.858L326.027 44.698C325.336 45.6967 324.319 46.196 322.975 46.196C321.817 46.196 320.889 45.846 320.189 45.146C319.489 44.446 319.139 43.564 319.139 42.5C319.139 41.4453 319.484 40.568 320.175 39.868C320.865 39.1587 321.752 38.804 322.835 38.804C323.861 38.804 324.706 39.1587 325.369 39.868C326.041 40.5773 326.377 41.4547 326.377 42.5C326.377 42.7333 326.353 42.9807 326.307 43.242H321.029ZM321.001 41.842H324.571C324.468 41.366 324.253 41.0113 323.927 40.778C323.609 40.5447 323.245 40.428 322.835 40.428C322.349 40.428 321.948 40.554 321.631 40.806C321.313 41.0487 321.103 41.394 321.001 41.842ZM331.576 38.804C332.341 38.804 332.971 39.0607 333.466 39.574C333.97 40.0873 334.222 40.7967 334.222 41.702V46H332.416V41.926C332.416 41.4593 332.29 41.1047 332.038 40.862C331.786 40.61 331.45 40.484 331.03 40.484C330.563 40.484 330.19 40.6287 329.91 40.918C329.63 41.2073 329.49 41.6413 329.49 42.22V46H327.684V39H329.49V39.784C329.928 39.1307 330.624 38.804 331.576 38.804ZM337.476 40.988C337.476 41.1747 337.597 41.3287 337.84 41.45C338.092 41.562 338.395 41.6647 338.75 41.758C339.105 41.842 339.459 41.954 339.814 42.094C340.169 42.2247 340.467 42.4487 340.71 42.766C340.962 43.0833 341.088 43.48 341.088 43.956C341.088 44.6747 340.817 45.23 340.276 45.622C339.744 46.0047 339.077 46.196 338.274 46.196C336.837 46.196 335.857 45.6407 335.334 44.53L336.902 43.648C337.107 44.2547 337.565 44.558 338.274 44.558C338.918 44.558 339.24 44.3573 339.24 43.956C339.24 43.7693 339.114 43.62 338.862 43.508C338.619 43.3867 338.321 43.2793 337.966 43.186C337.611 43.0927 337.257 42.976 336.902 42.836C336.547 42.696 336.244 42.4767 335.992 42.178C335.749 41.87 335.628 41.4873 335.628 41.03C335.628 40.3393 335.88 39.798 336.384 39.406C336.897 39.0047 337.532 38.804 338.288 38.804C338.857 38.804 339.375 38.9347 339.842 39.196C340.309 39.448 340.677 39.812 340.948 40.288L339.408 41.128C339.184 40.652 338.811 40.414 338.288 40.414C338.055 40.414 337.859 40.4653 337.7 40.568C337.551 40.6707 337.476 40.8107 337.476 40.988ZM343.726 43.242C343.969 44.1193 344.627 44.558 345.7 44.558C346.391 44.558 346.913 44.3247 347.268 43.858L348.724 44.698C348.033 45.6967 347.016 46.196 345.672 46.196C344.515 46.196 343.586 45.846 342.886 45.146C342.186 44.446 341.836 43.564 341.836 42.5C341.836 41.4453 342.181 40.568 342.872 39.868C343.563 39.1587 344.449 38.804 345.532 38.804C346.559 38.804 347.403 39.1587 348.066 39.868C348.738 40.5773 349.074 41.4547 349.074 42.5C349.074 42.7333 349.051 42.9807 349.004 43.242H343.726ZM343.698 41.842H347.268C347.165 41.366 346.951 41.0113 346.624 40.778C346.307 40.5447 345.943 40.428 345.532 40.428C345.047 40.428 344.645 40.554 344.328 40.806C344.011 41.0487 343.801 41.394 343.698 41.842ZM351.773 40.988C351.773 41.1747 351.895 41.3287 352.137 41.45C352.389 41.562 352.693 41.6647 353.047 41.758C353.402 41.842 353.757 41.954 354.111 42.094C354.466 42.2247 354.765 42.4487 355.007 42.766C355.259 43.0833 355.385 43.48 355.385 43.956C355.385 44.6747 355.115 45.23 354.573 45.622C354.041 46.0047 353.374 46.196 352.571 46.196C351.134 46.196 350.154 45.6407 349.631 44.53L351.199 43.648C351.405 44.2547 351.862 44.558 352.571 44.558C353.215 44.558 353.537 44.3573 353.537 43.956C353.537 43.7693 353.411 43.62 353.159 43.508C352.917 43.3867 352.618 43.2793 352.263 43.186C351.909 43.0927 351.554 42.976 351.199 42.836C350.845 42.696 350.541 42.4767 350.289 42.178C350.047 41.87 349.925 41.4873 349.925 41.03C349.925 40.3393 350.177 39.798 350.681 39.406C351.195 39.0047 351.829 38.804 352.585 38.804C353.155 38.804 353.673 38.9347 354.139 39.196C354.606 39.448 354.975 39.812 355.245 40.288L353.705 41.128C353.481 40.652 353.108 40.414 352.585 40.414C352.352 40.414 352.156 40.4653 351.997 40.568C351.848 40.6707 351.773 40.8107 351.773 40.988Z" fill="#243257"/>
<circle cx="221" cy="42" r="11" stroke="#33CCCC" stroke-width="2"/>
<path d="M937.832 40.918C938.691 41.4127 939.12 42.1593 939.12 43.158C939.12 43.9887 938.826 44.67 938.238 45.202C937.65 45.734 936.927 46 936.068 46H931.91V36.2H935.774C936.614 36.2 937.319 36.4613 937.888 36.984C938.467 37.4973 938.756 38.1553 938.756 38.958C938.756 39.77 938.448 40.4233 937.832 40.918ZM935.774 38.006H933.842V40.162H935.774C936.073 40.162 936.32 40.0593 936.516 39.854C936.721 39.6487 936.824 39.392 936.824 39.084C936.824 38.776 936.726 38.5193 936.53 38.314C936.334 38.1087 936.082 38.006 935.774 38.006ZM936.068 44.194C936.395 44.194 936.665 44.0867 936.88 43.872C937.095 43.648 937.202 43.368 937.202 43.032C937.202 42.7053 937.095 42.4347 936.88 42.22C936.665 41.996 936.395 41.884 936.068 41.884H933.842V44.194H936.068ZM945.119 39H946.925V46H945.119V45.216C944.68 45.8693 943.985 46.196 943.033 46.196C942.268 46.196 941.633 45.9393 941.129 45.426C940.634 44.9127 940.387 44.2033 940.387 43.298V39H942.193V43.074C942.193 43.5407 942.319 43.9 942.571 44.152C942.823 44.3947 943.159 44.516 943.579 44.516C944.046 44.516 944.419 44.3713 944.699 44.082C944.979 43.7927 945.119 43.3587 945.119 42.78V39ZM953.931 36.2H955.737V46H953.931V45.174C953.399 45.8553 952.643 46.196 951.663 46.196C950.721 46.196 949.913 45.8413 949.241 45.132C948.579 44.4133 948.247 43.536 948.247 42.5C948.247 41.464 948.579 40.5913 949.241 39.882C949.913 39.1633 950.721 38.804 951.663 38.804C952.643 38.804 953.399 39.1447 953.931 39.826V36.2ZM950.599 43.928C950.973 44.292 951.439 44.474 951.999 44.474C952.559 44.474 953.021 44.292 953.385 43.928C953.749 43.5547 953.931 43.0787 953.931 42.5C953.931 41.9213 953.749 41.45 953.385 41.086C953.021 40.7127 952.559 40.526 951.999 40.526C951.439 40.526 950.973 40.7127 950.599 41.086C950.235 41.45 950.053 41.9213 950.053 42.5C950.053 43.0787 950.235 43.5547 950.599 43.928ZM962.797 39H964.561V45.664C964.561 46.7467 964.202 47.5727 963.483 48.142C962.774 48.7113 961.915 48.996 960.907 48.996C960.151 48.996 959.484 48.8513 958.905 48.562C958.336 48.2727 957.897 47.848 957.589 47.288L959.129 46.406C959.484 47.0593 960.095 47.386 960.963 47.386C961.533 47.386 961.981 47.2367 962.307 46.938C962.634 46.6393 962.797 46.2147 962.797 45.664V44.908C962.265 45.6173 961.519 45.972 960.557 45.972C959.568 45.972 958.737 45.6267 958.065 44.936C957.403 44.236 957.071 43.3867 957.071 42.388C957.071 41.3987 957.407 40.554 958.079 39.854C958.751 39.154 959.577 38.804 960.557 38.804C961.519 38.804 962.265 39.1587 962.797 39.868V39ZM959.423 43.774C959.797 44.1287 960.268 44.306 960.837 44.306C961.407 44.306 961.873 44.1287 962.237 43.774C962.611 43.41 962.797 42.948 962.797 42.388C962.797 41.8373 962.611 41.3847 962.237 41.03C961.873 40.666 961.407 40.484 960.837 40.484C960.268 40.484 959.797 40.666 959.423 41.03C959.059 41.3847 958.877 41.8373 958.877 42.388C958.877 42.948 959.059 43.41 959.423 43.774ZM967.771 43.242C968.014 44.1193 968.672 44.558 969.745 44.558C970.436 44.558 970.959 44.3247 971.313 43.858L972.769 44.698C972.079 45.6967 971.061 46.196 969.717 46.196C968.56 46.196 967.631 45.846 966.931 45.146C966.231 44.446 965.881 43.564 965.881 42.5C965.881 41.4453 966.227 40.568 966.917 39.868C967.608 39.1587 968.495 38.804 969.577 38.804C970.604 38.804 971.449 39.1587 972.111 39.868C972.783 40.5773 973.119 41.4547 973.119 42.5C973.119 42.7333 973.096 42.9807 973.049 43.242H967.771ZM967.743 41.842H971.313C971.211 41.366 970.996 41.0113 970.669 40.778C970.352 40.5447 969.988 40.428 969.577 40.428C969.092 40.428 968.691 40.554 968.373 40.806C968.056 41.0487 967.846 41.394 967.743 41.842ZM978.225 40.736H976.643V43.648C976.643 43.8907 976.704 44.068 976.825 44.18C976.946 44.292 977.124 44.3573 977.357 44.376C977.59 44.3853 977.88 44.3807 978.225 44.362V46C976.984 46.14 976.106 46.0233 975.593 45.65C975.089 45.2767 974.837 44.6093 974.837 43.648V40.736H973.619V39H974.837V37.586L976.643 37.04V39H978.225V40.736ZM987.204 40.736H985.622V43.648C985.622 43.8907 985.683 44.068 985.804 44.18C985.926 44.292 986.103 44.3573 986.336 44.376C986.57 44.3853 986.859 44.3807 987.204 44.362V46C985.963 46.14 985.086 46.0233 984.572 45.65C984.068 45.2767 983.816 44.6093 983.816 43.648V40.736H982.598V39H983.816V37.586L985.622 37.04V39H987.204V40.736ZM992.416 38.804C993.181 38.804 993.811 39.0607 994.306 39.574C994.81 40.0873 995.062 40.7967 995.062 41.702V46H993.256V41.926C993.256 41.4593 993.13 41.1047 992.878 40.862C992.626 40.61 992.29 40.484 991.87 40.484C991.403 40.484 991.03 40.6287 990.75 40.918C990.47 41.2073 990.33 41.6413 990.33 42.22V46H988.524V36.2H990.33V39.784C990.768 39.1307 991.464 38.804 992.416 38.804ZM998.456 40.204C998.624 39.756 998.899 39.42 999.282 39.196C999.674 38.972 1000.11 38.86 1000.58 38.86V40.876C1000.03 40.8107 999.539 40.9227 999.1 41.212C998.671 41.5013 998.456 41.982 998.456 42.654V46H996.65V39H998.456V40.204ZM1002.95 43.242C1003.2 44.1193 1003.85 44.558 1004.93 44.558C1005.62 44.558 1006.14 44.3247 1006.49 43.858L1007.95 44.698C1007.26 45.6967 1006.24 46.196 1004.9 46.196C1003.74 46.196 1002.81 45.846 1002.11 45.146C1001.41 44.446 1001.06 43.564 1001.06 42.5C1001.06 41.4453 1001.41 40.568 1002.1 39.868C1002.79 39.1587 1003.68 38.804 1004.76 38.804C1005.79 38.804 1006.63 39.1587 1007.29 39.868C1007.96 40.5773 1008.3 41.4547 1008.3 42.5C1008.3 42.7333 1008.28 42.9807 1008.23 43.242H1002.95ZM1002.92 41.842H1006.49C1006.39 41.366 1006.18 41.0113 1005.85 40.778C1005.53 40.5447 1005.17 40.428 1004.76 40.428C1004.27 40.428 1003.87 40.554 1003.55 40.806C1003.24 41.0487 1003.03 41.394 1002.92 41.842ZM1011 40.988C1011 41.1747 1011.12 41.3287 1011.36 41.45C1011.62 41.562 1011.92 41.6647 1012.27 41.758C1012.63 41.842 1012.98 41.954 1013.34 42.094C1013.69 42.2247 1013.99 42.4487 1014.23 42.766C1014.49 43.0833 1014.61 43.48 1014.61 43.956C1014.61 44.6747 1014.34 45.23 1013.8 45.622C1013.27 46.0047 1012.6 46.196 1011.8 46.196C1010.36 46.196 1009.38 45.6407 1008.86 44.53L1010.43 43.648C1010.63 44.2547 1011.09 44.558 1011.8 44.558C1012.44 44.558 1012.76 44.3573 1012.76 43.956C1012.76 43.7693 1012.64 43.62 1012.39 43.508C1012.14 43.3867 1011.84 43.2793 1011.49 43.186C1011.14 43.0927 1010.78 42.976 1010.43 42.836C1010.07 42.696 1009.77 42.4767 1009.52 42.178C1009.27 41.87 1009.15 41.4873 1009.15 41.03C1009.15 40.3393 1009.4 39.798 1009.91 39.406C1010.42 39.0047 1011.06 38.804 1011.81 38.804C1012.38 38.804 1012.9 38.9347 1013.37 39.196C1013.83 39.448 1014.2 39.812 1014.47 40.288L1012.93 41.128C1012.71 40.652 1012.33 40.414 1011.81 40.414C1011.58 40.414 1011.38 40.4653 1011.22 40.568C1011.07 40.6707 1011 40.8107 1011 40.988ZM1019.71 38.804C1020.48 38.804 1021.11 39.0607 1021.6 39.574C1022.11 40.0873 1022.36 40.7967 1022.36 41.702V46H1020.55V41.926C1020.55 41.4593 1020.43 41.1047 1020.17 40.862C1019.92 40.61 1019.59 40.484 1019.17 40.484C1018.7 40.484 1018.33 40.6287 1018.05 40.918C1017.77 41.2073 1017.63 41.6413 1017.63 42.22V46H1015.82V36.2H1017.63V39.784C1018.06 39.1307 1018.76 38.804 1019.71 38.804ZM1029.91 45.132C1029.19 45.8413 1028.31 46.196 1027.28 46.196C1026.24 46.196 1025.36 45.8413 1024.65 45.132C1023.94 44.4133 1023.58 43.536 1023.58 42.5C1023.58 41.464 1023.94 40.5913 1024.65 39.882C1025.36 39.1633 1026.24 38.804 1027.28 38.804C1028.31 38.804 1029.19 39.1633 1029.91 39.882C1030.63 40.5913 1030.99 41.464 1030.99 42.5C1030.99 43.536 1030.63 44.4133 1029.91 45.132ZM1025.92 43.886C1026.28 44.25 1026.74 44.432 1027.28 44.432C1027.82 44.432 1028.27 44.25 1028.64 43.886C1029 43.522 1029.18 43.06 1029.18 42.5C1029.18 41.94 1029 41.478 1028.64 41.114C1028.27 40.75 1027.82 40.568 1027.28 40.568C1026.74 40.568 1026.28 40.75 1025.92 41.114C1025.57 41.478 1025.39 41.94 1025.39 42.5C1025.39 43.06 1025.57 43.522 1025.92 43.886ZM1032.3 46V35.78H1034.11V46H1032.3ZM1041.12 36.2H1042.92V46H1041.12V45.174C1040.58 45.8553 1039.83 46.196 1038.85 46.196C1037.91 46.196 1037.1 45.8413 1036.43 45.132C1035.76 44.4133 1035.43 43.536 1035.43 42.5C1035.43 41.464 1035.76 40.5913 1036.43 39.882C1037.1 39.1633 1037.91 38.804 1038.85 38.804C1039.83 38.804 1040.58 39.1447 1041.12 39.826V36.2ZM1037.78 43.928C1038.16 44.292 1038.62 44.474 1039.18 44.474C1039.74 44.474 1040.21 44.292 1040.57 43.928C1040.93 43.5547 1041.12 43.0787 1041.12 42.5C1041.12 41.9213 1040.93 41.45 1040.57 41.086C1040.21 40.7127 1039.74 40.526 1039.18 40.526C1038.62 40.526 1038.16 40.7127 1037.78 41.086C1037.42 41.45 1037.24 41.9213 1037.24 42.5C1037.24 43.0787 1037.42 43.5547 1037.78 43.928Z" fill="#243257"/>
<circle cx="920" cy="42" r="6" fill="#FF6666"/>
<circle cx="611.5" cy="192.5" r="12" fill="white" stroke="#1B79E8" stroke-width="3"/>
<rect x="496" y="116" width="230" height="51" rx="10" fill="#243257"/>
<path d="M610.793 174.293L600.707 164.207C600.077 163.577 600.523 162.5 601.414 162.5H621.586C622.477 162.5 622.923 163.577 622.293 164.207L612.207 174.293C611.817 174.683 611.183 174.683 610.793 174.293Z" fill="#243257"/>
<path opacity="0.5" d="M508.57 135.13C508.063 135.13 507.617 135.023 507.23 134.81C506.843 134.597 506.56 134.287 506.38 133.88L507.17 133.42C507.377 133.953 507.843 134.22 508.57 134.22C509.017 134.22 509.367 134.113 509.62 133.9C509.873 133.687 510 133.37 510 132.95V128H510.92V132.95C510.92 133.65 510.697 134.19 510.25 134.57C509.81 134.943 509.25 135.13 508.57 135.13ZM515.719 130H516.589V135H515.719V134.28C515.366 134.847 514.826 135.13 514.099 135.13C513.513 135.13 513.043 134.947 512.689 134.58C512.336 134.207 512.159 133.703 512.159 133.07V130H513.029V133.02C513.029 133.427 513.139 133.743 513.359 133.97C513.579 134.19 513.883 134.3 514.269 134.3C514.703 134.3 515.053 134.167 515.319 133.9C515.586 133.627 515.719 133.21 515.719 132.65V130ZM517.947 135V127.7H518.817V135H517.947ZM522.41 135V134.24L524.88 131.72C525.54 131.06 525.87 130.493 525.87 130.02C525.87 129.627 525.75 129.32 525.51 129.1C525.27 128.88 524.977 128.77 524.63 128.77C523.97 128.77 523.49 129.083 523.19 129.71L522.41 129.25C522.63 128.797 522.933 128.453 523.32 128.22C523.713 127.987 524.147 127.87 524.62 127.87C525.207 127.87 525.717 128.063 526.15 128.45C526.583 128.837 526.8 129.357 526.8 130.01C526.8 130.717 526.383 131.487 525.55 132.32L523.76 134.1H526.93V135H522.41ZM532.399 134.14C531.925 134.8 531.262 135.13 530.409 135.13C529.555 135.13 528.892 134.8 528.419 134.14C527.945 133.48 527.709 132.6 527.709 131.5C527.709 130.4 527.945 129.52 528.419 128.86C528.892 128.2 529.555 127.87 530.409 127.87C531.262 127.87 531.925 128.2 532.399 128.86C532.872 129.52 533.109 130.4 533.109 131.5C533.109 132.6 532.872 133.48 532.399 134.14ZM529.099 133.51C529.405 133.983 529.842 134.22 530.409 134.22C530.975 134.22 531.412 133.983 531.719 133.51C532.032 133.037 532.189 132.367 532.189 131.5C532.189 130.633 532.032 129.963 531.719 129.49C531.412 129.01 530.975 128.77 530.409 128.77C529.842 128.77 529.405 129.007 529.099 129.48C528.792 129.953 528.639 130.627 528.639 131.5C528.639 132.367 528.792 133.037 529.099 133.51ZM533.824 135V134.24L536.294 131.72C536.954 131.06 537.284 130.493 537.284 130.02C537.284 129.627 537.164 129.32 536.924 129.1C536.684 128.88 536.39 128.77 536.044 128.77C535.384 128.77 534.904 129.083 534.604 129.71L533.824 129.25C534.044 128.797 534.347 128.453 534.734 128.22C535.127 127.987 535.56 127.87 536.034 127.87C536.62 127.87 537.13 128.063 537.564 128.45C537.997 128.837 538.214 129.357 538.214 130.01C538.214 130.717 537.797 131.487 536.964 132.32L535.174 134.1H538.344V135H533.824ZM539.13 135V134.24L541.6 131.72C542.26 131.06 542.59 130.493 542.59 130.02C542.59 129.627 542.47 129.32 542.23 129.1C541.99 128.88 541.697 128.77 541.35 128.77C540.69 128.77 540.21 129.083 539.91 129.71L539.13 129.25C539.35 128.797 539.653 128.453 540.04 128.22C540.433 127.987 540.867 127.87 541.34 127.87C541.927 127.87 542.437 128.063 542.87 128.45C543.303 128.837 543.52 129.357 543.52 130.01C543.52 130.717 543.103 131.487 542.27 132.32L540.48 134.1H543.65V135H539.13Z" fill="white"/>
<path d="M635.847 134.46C635.361 134.907 634.731 135.13 633.957 135.13C633.184 135.13 632.551 134.907 632.057 134.46C631.571 134.007 631.327 133.403 631.327 132.65V128H632.257V132.61C632.257 133.103 632.404 133.497 632.697 133.79C632.991 134.077 633.411 134.22 633.957 134.22C634.504 134.22 634.924 134.077 635.217 133.79C635.511 133.497 635.657 133.103 635.657 132.61V128H636.577V132.65C636.577 133.403 636.334 134.007 635.847 134.46ZM640.432 129.87C641.019 129.87 641.489 130.057 641.842 130.43C642.196 130.797 642.372 131.297 642.372 131.93V135H641.502V131.98C641.502 131.573 641.392 131.26 641.172 131.04C640.952 130.813 640.649 130.7 640.262 130.7C639.829 130.7 639.479 130.837 639.212 131.11C638.946 131.377 638.812 131.79 638.812 132.35V135H637.942V130H638.812V130.72C639.166 130.153 639.706 129.87 640.432 129.87ZM647.76 128H648.63V135H647.76V134.14C647.327 134.8 646.697 135.13 645.87 135.13C645.17 135.13 644.573 134.877 644.08 134.37C643.587 133.857 643.34 133.233 643.34 132.5C643.34 131.767 643.587 131.147 644.08 130.64C644.573 130.127 645.17 129.87 645.87 129.87C646.697 129.87 647.327 130.2 647.76 130.86V128ZM645.98 134.29C646.487 134.29 646.91 134.12 647.25 133.78C647.59 133.433 647.76 133.007 647.76 132.5C647.76 131.993 647.59 131.57 647.25 131.23C646.91 130.883 646.487 130.71 645.98 130.71C645.48 130.71 645.06 130.883 644.72 131.23C644.38 131.57 644.21 131.993 644.21 132.5C644.21 133.007 644.38 133.433 644.72 133.78C645.06 134.12 645.48 134.29 645.98 134.29ZM650.591 132.9C650.678 133.347 650.881 133.693 651.201 133.94C651.528 134.187 651.928 134.31 652.401 134.31C653.061 134.31 653.541 134.067 653.841 133.58L654.581 134C654.094 134.753 653.361 135.13 652.381 135.13C651.588 135.13 650.941 134.883 650.441 134.39C649.948 133.89 649.701 133.26 649.701 132.5C649.701 131.747 649.944 131.12 650.431 130.62C650.918 130.12 651.548 129.87 652.321 129.87C653.054 129.87 653.651 130.13 654.111 130.65C654.578 131.163 654.811 131.783 654.811 132.51C654.811 132.637 654.801 132.767 654.781 132.9H650.591ZM652.321 130.69C651.854 130.69 651.468 130.823 651.161 131.09C650.854 131.35 650.664 131.7 650.591 132.14H653.931C653.858 131.667 653.671 131.307 653.371 131.06C653.071 130.813 652.721 130.69 652.321 130.69ZM656.714 130.84C657.001 130.22 657.521 129.91 658.274 129.91V130.82C657.847 130.8 657.481 130.913 657.174 131.16C656.867 131.407 656.714 131.803 656.714 132.35V135H655.844V130H656.714V130.84ZM665.781 131.37C666.101 131.523 666.355 131.743 666.541 132.03C666.735 132.317 666.831 132.647 666.831 133.02C666.831 133.58 666.635 134.05 666.241 134.43C665.848 134.81 665.368 135 664.801 135H661.781V128H664.581C665.128 128 665.591 128.183 665.971 128.55C666.351 128.917 666.541 129.37 666.541 129.91C666.541 130.53 666.288 131.017 665.781 131.37ZM664.581 128.87H662.711V131.01H664.581C664.875 131.01 665.121 130.907 665.321 130.7C665.521 130.493 665.621 130.24 665.621 129.94C665.621 129.647 665.518 129.397 665.311 129.19C665.111 128.977 664.868 128.87 664.581 128.87ZM664.801 134.13C665.115 134.13 665.378 134.02 665.591 133.8C665.805 133.58 665.911 133.31 665.911 132.99C665.911 132.677 665.801 132.41 665.581 132.19C665.368 131.97 665.108 131.86 664.801 131.86H662.711V134.13H664.801ZM671.434 130H672.304V135H671.434V134.28C671.081 134.847 670.541 135.13 669.814 135.13C669.227 135.13 668.757 134.947 668.404 134.58C668.051 134.207 667.874 133.703 667.874 133.07V130H668.744V133.02C668.744 133.427 668.854 133.743 669.074 133.97C669.294 134.19 669.597 134.3 669.984 134.3C670.417 134.3 670.767 134.167 671.034 133.9C671.301 133.627 671.434 133.21 671.434 132.65V130ZM677.802 128H678.672V135H677.802V134.14C677.368 134.8 676.738 135.13 675.912 135.13C675.212 135.13 674.615 134.877 674.122 134.37C673.628 133.857 673.382 133.233 673.382 132.5C673.382 131.767 673.628 131.147 674.122 130.64C674.615 130.127 675.212 129.87 675.912 129.87C676.738 129.87 677.368 130.2 677.802 130.86V128ZM676.022 134.29C676.528 134.29 676.952 134.12 677.292 133.78C677.632 133.433 677.802 133.007 677.802 132.5C677.802 131.993 677.632 131.57 677.292 131.23C676.952 130.883 676.528 130.71 676.022 130.71C675.522 130.71 675.102 130.883 674.762 131.23C674.422 131.57 674.252 131.993 674.252 132.5C674.252 133.007 674.422 133.433 674.762 133.78C675.102 134.12 675.522 134.29 676.022 134.29ZM684.173 130H685.033V134.79C685.033 135.53 684.783 136.103 684.283 136.51C683.783 136.923 683.183 137.13 682.483 137.13C681.923 137.13 681.439 137.023 681.033 136.81C680.626 136.603 680.319 136.303 680.113 135.91L680.873 135.48C681.146 136.04 681.689 136.32 682.503 136.32C683.023 136.32 683.429 136.183 683.723 135.91C684.023 135.637 684.173 135.263 684.173 134.79V134.08C683.733 134.747 683.106 135.08 682.293 135.08C681.579 135.08 680.976 134.827 680.483 134.32C679.989 133.813 679.743 133.197 679.743 132.47C679.743 131.743 679.989 131.13 680.483 130.63C680.976 130.123 681.579 129.87 682.293 129.87C683.113 129.87 683.739 130.2 684.173 130.86V130ZM681.123 133.74C681.463 134.08 681.886 134.25 682.393 134.25C682.899 134.25 683.323 134.08 683.663 133.74C684.003 133.4 684.173 132.977 684.173 132.47C684.173 131.97 684.003 131.55 683.663 131.21C683.323 130.87 682.899 130.7 682.393 130.7C681.886 130.7 681.463 130.87 681.123 131.21C680.783 131.55 680.613 131.97 680.613 132.47C680.613 132.977 680.783 133.4 681.123 133.74ZM686.994 132.9C687.081 133.347 687.284 133.693 687.604 133.94C687.931 134.187 688.331 134.31 688.804 134.31C689.464 134.31 689.944 134.067 690.244 133.58L690.984 134C690.497 134.753 689.764 135.13 688.784 135.13C687.991 135.13 687.344 134.883 686.844 134.39C686.351 133.89 686.104 133.26 686.104 132.5C686.104 131.747 686.347 131.12 686.834 130.62C687.321 130.12 687.951 129.87 688.724 129.87C689.457 129.87 690.054 130.13 690.514 130.65C690.981 131.163 691.214 131.783 691.214 132.51C691.214 132.637 691.204 132.767 691.184 132.9H686.994ZM688.724 130.69C688.257 130.69 687.871 130.823 687.564 131.09C687.257 131.35 687.067 131.7 686.994 132.14H690.334C690.261 131.667 690.074 131.307 689.774 131.06C689.474 130.813 689.124 130.69 688.724 130.69ZM694.82 130.84H693.49V133.55C693.49 133.797 693.537 133.973 693.63 134.08C693.73 134.18 693.88 134.233 694.08 134.24C694.28 134.24 694.527 134.233 694.82 134.22V135C694.06 135.1 693.504 135.04 693.15 134.82C692.797 134.593 692.62 134.17 692.62 133.55V130.84H691.63V130H692.62V128.86L693.49 128.6V130H694.82V130.84ZM699.466 136C698.732 134.533 698.366 133.033 698.366 131.5C698.366 129.967 698.732 128.467 699.466 127H700.336C699.602 128.467 699.236 129.967 699.236 131.5C699.236 133.033 699.602 134.533 700.336 136H699.466ZM703.321 130.73C703.981 130.73 704.538 130.927 704.991 131.32C705.451 131.707 705.681 132.243 705.681 132.93C705.681 133.61 705.448 134.147 704.981 134.54C704.515 134.933 703.948 135.13 703.281 135.13C702.748 135.13 702.271 135.003 701.851 134.75C701.431 134.49 701.138 134.117 700.971 133.63L701.761 133.18C701.855 133.52 702.035 133.78 702.301 133.96C702.568 134.133 702.895 134.22 703.281 134.22C703.721 134.22 704.078 134.107 704.351 133.88C704.625 133.653 704.761 133.337 704.761 132.93C704.761 132.523 704.625 132.207 704.351 131.98C704.078 131.747 703.728 131.63 703.301 131.63H701.321L701.581 128H705.411V128.87H702.421L702.301 130.73H703.321ZM708.019 130.97C707.566 130.97 707.189 130.82 706.889 130.52C706.589 130.22 706.439 129.853 706.439 129.42C706.439 128.993 706.589 128.63 706.889 128.33C707.196 128.023 707.572 127.87 708.019 127.87C708.472 127.87 708.849 128.02 709.149 128.32C709.449 128.62 709.599 128.987 709.599 129.42C709.599 129.853 709.449 130.22 709.149 130.52C708.856 130.82 708.479 130.97 708.019 130.97ZM707.439 130.01C707.592 130.163 707.786 130.24 708.019 130.24C708.252 130.24 708.442 130.16 708.589 130C708.742 129.84 708.819 129.647 708.819 129.42C708.819 129.193 708.742 129.003 708.589 128.85C708.442 128.69 708.252 128.61 708.019 128.61C707.786 128.61 707.592 128.69 707.439 128.85C707.292 129.003 707.219 129.193 707.219 129.42C707.219 129.653 707.292 129.85 707.439 130.01ZM706.909 134.01L711.559 128.81L712.049 129.08L707.389 134.29L706.909 134.01ZM712.169 134.67C711.869 134.97 711.492 135.12 711.039 135.12C710.586 135.12 710.209 134.97 709.909 134.67C709.609 134.37 709.459 134.003 709.459 133.57C709.459 133.137 709.609 132.77 709.909 132.47C710.209 132.17 710.586 132.02 711.039 132.02C711.492 132.02 711.869 132.17 712.169 132.47C712.469 132.77 712.619 133.137 712.619 133.57C712.619 134.003 712.469 134.37 712.169 134.67ZM710.459 134.15C710.612 134.303 710.806 134.38 711.039 134.38C711.272 134.38 711.462 134.303 711.609 134.15C711.762 133.99 711.839 133.797 711.839 133.57C711.839 133.343 711.762 133.153 711.609 133C711.462 132.84 711.272 132.76 711.039 132.76C710.806 132.76 710.612 132.84 710.459 133C710.312 133.153 710.239 133.343 710.239 133.57C710.239 133.797 710.312 133.99 710.459 134.15ZM714.317 136H713.447C714.181 134.533 714.547 133.033 714.547 131.5C714.547 129.967 714.181 128.467 713.447 127H714.317C715.051 128.467 715.417 129.967 715.417 131.5C715.417 133.033 715.051 134.533 714.317 136Z" fill="#43E176"/>
<path d="M508.436 151.416H511.976V153H506.78V144.6H511.916V146.184H508.436V147.972H511.616V149.532H508.436V151.416ZM514.539 148.704C514.539 148.864 514.643 148.996 514.851 149.1C515.067 149.196 515.327 149.284 515.631 149.364C515.935 149.436 516.239 149.532 516.543 149.652C516.847 149.764 517.103 149.956 517.311 150.228C517.527 150.5 517.635 150.84 517.635 151.248C517.635 151.864 517.403 152.34 516.939 152.676C516.483 153.004 515.911 153.168 515.223 153.168C513.991 153.168 513.151 152.692 512.703 151.74L514.047 150.984C514.223 151.504 514.615 151.764 515.223 151.764C515.775 151.764 516.051 151.592 516.051 151.248C516.051 151.088 515.943 150.96 515.727 150.864C515.519 150.76 515.263 150.668 514.959 150.588C514.655 150.508 514.351 150.408 514.047 150.288C513.743 150.168 513.483 149.98 513.267 149.724C513.059 149.46 512.955 149.132 512.955 148.74C512.955 148.148 513.171 147.684 513.603 147.348C514.043 147.004 514.587 146.832 515.235 146.832C515.723 146.832 516.167 146.944 516.567 147.168C516.967 147.384 517.283 147.696 517.515 148.104L516.195 148.824C516.003 148.416 515.683 148.212 515.235 148.212C515.035 148.212 514.867 148.256 514.731 148.344C514.603 148.432 514.539 148.552 514.539 148.704ZM519.782 148.704C519.782 148.864 519.886 148.996 520.094 149.1C520.31 149.196 520.57 149.284 520.874 149.364C521.178 149.436 521.482 149.532 521.786 149.652C522.09 149.764 522.346 149.956 522.554 150.228C522.77 150.5 522.878 150.84 522.878 151.248C522.878 151.864 522.646 152.34 522.182 152.676C521.726 153.004 521.154 153.168 520.466 153.168C519.234 153.168 518.394 152.692 517.946 151.74L519.29 150.984C519.466 151.504 519.858 151.764 520.466 151.764C521.018 151.764 521.294 151.592 521.294 151.248C521.294 151.088 521.186 150.96 520.97 150.864C520.762 150.76 520.506 150.668 520.202 150.588C519.898 150.508 519.594 150.408 519.29 150.288C518.986 150.168 518.726 149.98 518.51 149.724C518.302 149.46 518.198 149.132 518.198 148.74C518.198 148.148 518.414 147.684 518.846 147.348C519.286 147.004 519.83 146.832 520.478 146.832C520.966 146.832 521.41 146.944 521.81 147.168C522.21 147.384 522.526 147.696 522.758 148.104L521.438 148.824C521.246 148.416 520.926 148.212 520.478 148.212C520.278 148.212 520.11 148.256 519.974 148.344C519.846 148.432 519.782 148.552 519.782 148.704ZM525.139 150.636C525.347 151.388 525.911 151.764 526.831 151.764C527.423 151.764 527.871 151.564 528.175 151.164L529.423 151.884C528.831 152.74 527.959 153.168 526.807 153.168C525.815 153.168 525.019 152.868 524.419 152.268C523.819 151.668 523.519 150.912 523.519 150C523.519 149.096 523.815 148.344 524.407 147.744C524.999 147.136 525.759 146.832 526.687 146.832C527.567 146.832 528.291 147.136 528.859 147.744C529.435 148.352 529.723 149.104 529.723 150C529.723 150.2 529.703 150.412 529.663 150.636H525.139ZM525.115 149.436H528.175C528.087 149.028 527.903 148.724 527.623 148.524C527.351 148.324 527.039 148.224 526.687 148.224C526.271 148.224 525.927 148.332 525.655 148.548C525.383 148.756 525.203 149.052 525.115 149.436ZM534.179 146.832C534.835 146.832 535.375 147.052 535.799 147.492C536.231 147.932 536.447 148.54 536.447 149.316V153H534.899V149.508C534.899 149.108 534.791 148.804 534.575 148.596C534.359 148.38 534.071 148.272 533.711 148.272C533.311 148.272 532.991 148.396 532.751 148.644C532.511 148.892 532.391 149.264 532.391 149.76V153H530.843V147H532.391V147.672C532.767 147.112 533.363 146.832 534.179 146.832ZM541.24 148.488H539.884V150.984C539.884 151.192 539.936 151.344 540.04 151.44C540.144 151.536 540.296 151.592 540.496 151.608C540.696 151.616 540.944 151.612 541.24 151.596V153C540.176 153.12 539.424 153.02 538.984 152.7C538.552 152.38 538.336 151.808 538.336 150.984V148.488H537.292V147H538.336V145.788L539.884 145.32V147H541.24V148.488ZM543.139 146.28C542.883 146.28 542.659 146.188 542.467 146.004C542.283 145.812 542.191 145.588 542.191 145.332C542.191 145.076 542.283 144.852 542.467 144.66C542.659 144.468 542.883 144.372 543.139 144.372C543.403 144.372 543.627 144.468 543.811 144.66C544.003 144.852 544.099 145.076 544.099 145.332C544.099 145.588 544.003 145.812 543.811 146.004C543.627 146.188 543.403 146.28 543.139 146.28ZM542.371 153V147H543.919V153H542.371ZM549.936 147H551.484V153H549.936V152.292C549.472 152.876 548.82 153.168 547.98 153.168C547.18 153.168 546.492 152.864 545.916 152.256C545.348 151.64 545.064 150.888 545.064 150C545.064 149.112 545.348 148.364 545.916 147.756C546.492 147.14 547.18 146.832 547.98 146.832C548.82 146.832 549.472 147.124 549.936 147.708V147ZM547.08 151.224C547.392 151.536 547.788 151.692 548.268 151.692C548.748 151.692 549.144 151.536 549.456 151.224C549.776 150.904 549.936 150.496 549.936 150C549.936 149.504 549.776 149.1 549.456 148.788C549.144 148.468 548.748 148.308 548.268 148.308C547.788 148.308 547.392 148.468 547.08 148.788C546.768 149.1 546.612 149.504 546.612 150C546.612 150.496 546.768 150.904 547.08 151.224ZM552.927 153V144.24H554.475V153H552.927ZM557.313 148.704C557.313 148.864 557.417 148.996 557.625 149.1C557.841 149.196 558.101 149.284 558.405 149.364C558.709 149.436 559.013 149.532 559.317 149.652C559.621 149.764 559.877 149.956 560.085 150.228C560.301 150.5 560.409 150.84 560.409 151.248C560.409 151.864 560.177 152.34 559.713 152.676C559.257 153.004 558.685 153.168 557.997 153.168C556.765 153.168 555.925 152.692 555.477 151.74L556.821 150.984C556.997 151.504 557.389 151.764 557.997 151.764C558.549 151.764 558.825 151.592 558.825 151.248C558.825 151.088 558.717 150.96 558.501 150.864C558.293 150.76 558.037 150.668 557.733 150.588C557.429 150.508 557.125 150.408 556.821 150.288C556.517 150.168 556.257 149.98 556.041 149.724C555.833 149.46 555.729 149.132 555.729 148.74C555.729 148.148 555.945 147.684 556.377 147.348C556.817 147.004 557.361 146.832 558.009 146.832C558.497 146.832 558.941 146.944 559.341 147.168C559.741 147.384 560.057 147.696 560.289 148.104L558.969 148.824C558.777 148.416 558.457 148.212 558.009 148.212C557.809 148.212 557.641 148.256 557.505 148.344C557.377 148.432 557.313 148.552 557.313 148.704ZM566.27 151.416H569.81V153H564.614V144.6H569.75V146.184H566.27V147.972H569.45V149.532H566.27V151.416ZM576.477 153H574.689L573.393 151.176L572.085 153H570.297L572.493 149.94L570.393 147H572.181L573.393 148.692L574.605 147H576.381L574.281 149.928L576.477 153ZM580.781 146.832C581.589 146.832 582.277 147.14 582.845 147.756C583.421 148.364 583.709 149.112 583.709 150C583.709 150.888 583.421 151.64 582.845 152.256C582.277 152.864 581.589 153.168 580.781 153.168C579.941 153.168 579.293 152.876 578.837 152.292V155.4H577.289V147H578.837V147.708C579.293 147.124 579.941 146.832 580.781 146.832ZM579.305 151.224C579.617 151.536 580.013 151.692 580.493 151.692C580.973 151.692 581.369 151.536 581.681 151.224C582.001 150.904 582.161 150.496 582.161 150C582.161 149.504 582.001 149.1 581.681 148.788C581.369 148.468 580.973 148.308 580.493 148.308C580.013 148.308 579.617 148.468 579.305 148.788C578.993 149.1 578.837 149.504 578.837 150C578.837 150.496 578.993 150.904 579.305 151.224ZM586.149 150.636C586.357 151.388 586.921 151.764 587.841 151.764C588.433 151.764 588.881 151.564 589.185 151.164L590.433 151.884C589.841 152.74 588.969 153.168 587.817 153.168C586.825 153.168 586.029 152.868 585.429 152.268C584.829 151.668 584.529 150.912 584.529 150C584.529 149.096 584.825 148.344 585.417 147.744C586.009 147.136 586.769 146.832 587.697 146.832C588.577 146.832 589.301 147.136 589.869 147.744C590.445 148.352 590.733 149.104 590.733 150C590.733 150.2 590.713 150.412 590.673 150.636H586.149ZM586.125 149.436H589.185C589.097 149.028 588.913 148.724 588.633 148.524C588.361 148.324 588.049 148.224 587.697 148.224C587.281 148.224 586.937 148.332 586.665 148.548C586.393 148.756 586.213 149.052 586.125 149.436ZM595.189 146.832C595.845 146.832 596.385 147.052 596.809 147.492C597.241 147.932 597.457 148.54 597.457 149.316V153H595.909V149.508C595.909 149.108 595.801 148.804 595.585 148.596C595.369 148.38 595.081 148.272 594.721 148.272C594.321 148.272 594.001 148.396 593.761 148.644C593.521 148.892 593.401 149.264 593.401 149.76V153H591.853V147H593.401V147.672C593.777 147.112 594.373 146.832 595.189 146.832ZM600.246 148.704C600.246 148.864 600.35 148.996 600.558 149.1C600.774 149.196 601.034 149.284 601.338 149.364C601.642 149.436 601.946 149.532 602.25 149.652C602.554 149.764 602.81 149.956 603.018 150.228C603.234 150.5 603.342 150.84 603.342 151.248C603.342 151.864 603.11 152.34 602.646 152.676C602.19 153.004 601.618 153.168 600.93 153.168C599.698 153.168 598.858 152.692 598.41 151.74L599.754 150.984C599.93 151.504 600.322 151.764 600.93 151.764C601.482 151.764 601.758 151.592 601.758 151.248C601.758 151.088 601.65 150.96 601.434 150.864C601.226 150.76 600.97 150.668 600.666 150.588C600.362 150.508 600.058 150.408 599.754 150.288C599.45 150.168 599.19 149.98 598.974 149.724C598.766 149.46 598.662 149.132 598.662 148.74C598.662 148.148 598.878 147.684 599.31 147.348C599.75 147.004 600.294 146.832 600.942 146.832C601.43 146.832 601.874 146.944 602.274 147.168C602.674 147.384 602.99 147.696 603.222 148.104L601.902 148.824C601.71 148.416 601.39 148.212 600.942 148.212C600.742 148.212 600.574 148.256 600.438 148.344C600.31 148.432 600.246 148.552 600.246 148.704ZM605.603 150.636C605.811 151.388 606.375 151.764 607.295 151.764C607.887 151.764 608.335 151.564 608.639 151.164L609.887 151.884C609.295 152.74 608.423 153.168 607.271 153.168C606.279 153.168 605.483 152.868 604.883 152.268C604.283 151.668 603.983 150.912 603.983 150C603.983 149.096 604.279 148.344 604.871 147.744C605.463 147.136 606.223 146.832 607.151 146.832C608.031 146.832 608.755 147.136 609.323 147.744C609.899 148.352 610.187 149.104 610.187 150C610.187 150.2 610.167 150.412 610.127 150.636H605.603ZM605.579 149.436H608.639C608.551 149.028 608.367 148.724 608.087 148.524C607.815 148.324 607.503 148.224 607.151 148.224C606.735 148.224 606.391 148.332 606.119 148.548C605.847 148.756 605.667 149.052 605.579 149.436ZM612.501 148.704C612.501 148.864 612.605 148.996 612.813 149.1C613.029 149.196 613.289 149.284 613.593 149.364C613.897 149.436 614.201 149.532 614.505 149.652C614.809 149.764 615.065 149.956 615.273 150.228C615.489 150.5 615.597 150.84 615.597 151.248C615.597 151.864 615.365 152.34 614.901 152.676C614.445 153.004 613.873 153.168 613.185 153.168C611.953 153.168 611.113 152.692 610.665 151.74L612.009 150.984C612.185 151.504 612.577 151.764 613.185 151.764C613.737 151.764 614.013 151.592 614.013 151.248C614.013 151.088 613.905 150.96 613.689 150.864C613.481 150.76 613.225 150.668 612.921 150.588C612.617 150.508 612.313 150.408 612.009 150.288C611.705 150.168 611.445 149.98 611.229 149.724C611.021 149.46 610.917 149.132 610.917 148.74C610.917 148.148 611.133 147.684 611.565 147.348C612.005 147.004 612.549 146.832 613.197 146.832C613.685 146.832 614.129 146.944 614.529 147.168C614.929 147.384 615.245 147.696 615.477 148.104L614.157 148.824C613.965 148.416 613.645 148.212 613.197 148.212C612.997 148.212 612.829 148.256 612.693 148.344C612.565 148.432 612.501 148.552 612.501 148.704Z" fill="white"/>
<path d="M662.848 153L661.156 150.084H659.896V153H658.24V144.6H661.6C662.376 144.6 663.036 144.872 663.58 145.416C664.124 145.96 664.396 146.616 664.396 147.384C664.396 147.904 664.248 148.388 663.952 148.836C663.656 149.276 663.264 149.608 662.776 149.832L664.636 153H662.848ZM659.896 146.148V148.632H661.6C661.912 148.632 662.18 148.512 662.404 148.272C662.628 148.024 662.74 147.728 662.74 147.384C662.74 147.04 662.628 146.748 662.404 146.508C662.18 146.268 661.912 146.148 661.6 146.148H659.896ZM666.772 148.704C666.772 148.864 666.876 148.996 667.084 149.1C667.3 149.196 667.56 149.284 667.864 149.364C668.168 149.436 668.472 149.532 668.776 149.652C669.08 149.764 669.336 149.956 669.544 150.228C669.76 150.5 669.868 150.84 669.868 151.248C669.868 151.864 669.636 152.34 669.172 152.676C668.716 153.004 668.144 153.168 667.456 153.168C666.224 153.168 665.384 152.692 664.936 151.74L666.28 150.984C666.456 151.504 666.848 151.764 667.456 151.764C668.008 151.764 668.284 151.592 668.284 151.248C668.284 151.088 668.176 150.96 667.96 150.864C667.752 150.76 667.496 150.668 667.192 150.588C666.888 150.508 666.584 150.408 666.28 150.288C665.976 150.168 665.716 149.98 665.5 149.724C665.292 149.46 665.188 149.132 665.188 148.74C665.188 148.148 665.404 147.684 665.836 147.348C666.276 147.004 666.82 146.832 667.468 146.832C667.956 146.832 668.4 146.944 668.8 147.168C669.2 147.384 669.516 147.696 669.748 148.104L668.428 148.824C668.236 148.416 667.916 148.212 667.468 148.212C667.268 148.212 667.1 148.256 666.964 148.344C666.836 148.432 666.772 148.552 666.772 148.704ZM672.453 152.856C672.253 153.056 672.013 153.156 671.733 153.156C671.453 153.156 671.213 153.056 671.013 152.856C670.813 152.656 670.713 152.416 670.713 152.136C670.713 151.856 670.813 151.616 671.013 151.416C671.213 151.216 671.453 151.116 671.733 151.116C672.013 151.116 672.253 151.216 672.453 151.416C672.653 151.616 672.753 151.856 672.753 152.136C672.753 152.416 672.653 152.656 672.453 152.856ZM680.651 148.008C681.219 148.176 681.679 148.472 682.031 148.896C682.391 149.312 682.571 149.816 682.571 150.408C682.571 151.272 682.279 151.948 681.695 152.436C681.119 152.924 680.411 153.168 679.571 153.168C678.915 153.168 678.327 153.02 677.807 152.724C677.295 152.42 676.923 151.976 676.691 151.392L678.107 150.576C678.315 151.224 678.803 151.548 679.571 151.548C679.995 151.548 680.323 151.448 680.555 151.248C680.795 151.04 680.915 150.76 680.915 150.408C680.915 150.064 680.795 149.788 680.555 149.58C680.323 149.372 679.995 149.268 679.571 149.268H679.211L678.575 148.308L680.231 146.148H676.943V144.6H682.223V145.968L680.651 148.008ZM686.774 153.168C685.726 153.168 684.902 152.772 684.302 151.98C683.71 151.18 683.414 150.12 683.414 148.8C683.414 147.48 683.71 146.424 684.302 145.632C684.902 144.832 685.726 144.432 686.774 144.432C687.83 144.432 688.654 144.832 689.246 145.632C689.838 146.424 690.134 147.48 690.134 148.8C690.134 150.12 689.838 151.18 689.246 151.98C688.654 152.772 687.83 153.168 686.774 153.168ZM685.502 150.852C685.79 151.316 686.214 151.548 686.774 151.548C687.334 151.548 687.758 151.312 688.046 150.84C688.342 150.368 688.49 149.688 688.49 148.8C688.49 147.904 688.342 147.22 688.046 146.748C687.758 146.276 687.334 146.04 686.774 146.04C686.214 146.04 685.79 146.276 685.502 146.748C685.214 147.22 685.07 147.904 685.07 148.8C685.07 149.696 685.214 150.38 685.502 150.852ZM692.977 151.344L692.077 154.68H690.817L691.297 151.344H692.977ZM697.025 153.168C695.977 153.168 695.153 152.772 694.553 151.98C693.961 151.18 693.665 150.12 693.665 148.8C693.665 147.48 693.961 146.424 694.553 145.632C695.153 144.832 695.977 144.432 697.025 144.432C698.081 144.432 698.905 144.832 699.497 145.632C700.089 146.424 700.385 147.48 700.385 148.8C700.385 150.12 700.089 151.18 699.497 151.98C698.905 152.772 698.081 153.168 697.025 153.168ZM695.753 150.852C696.041 151.316 696.465 151.548 697.025 151.548C697.585 151.548 698.009 151.312 698.297 150.84C698.593 150.368 698.741 149.688 698.741 148.8C698.741 147.904 698.593 147.22 698.297 146.748C698.009 146.276 697.585 146.04 697.025 146.04C696.465 146.04 696.041 146.276 695.753 146.748C695.465 147.22 695.321 147.904 695.321 148.8C695.321 149.696 695.465 150.38 695.753 150.852ZM704.623 153.168C703.575 153.168 702.751 152.772 702.151 151.98C701.559 151.18 701.263 150.12 701.263 148.8C701.263 147.48 701.559 146.424 702.151 145.632C702.751 144.832 703.575 144.432 704.623 144.432C705.679 144.432 706.503 144.832 707.095 145.632C707.687 146.424 707.983 147.48 707.983 148.8C707.983 150.12 707.687 151.18 707.095 151.98C706.503 152.772 705.679 153.168 704.623 153.168ZM703.351 150.852C703.639 151.316 704.063 151.548 704.623 151.548C705.183 151.548 705.607 151.312 705.895 150.84C706.191 150.368 706.339 149.688 706.339 148.8C706.339 147.904 706.191 147.22 705.895 146.748C705.607 146.276 705.183 146.04 704.623 146.04C704.063 146.04 703.639 146.276 703.351 146.748C703.063 147.22 702.919 147.904 702.919 148.8C702.919 149.696 703.063 150.38 703.351 150.852ZM712.221 153.168C711.173 153.168 710.349 152.772 709.749 151.98C709.157 151.18 708.861 150.12 708.861 148.8C708.861 147.48 709.157 146.424 709.749 145.632C710.349 144.832 711.173 144.432 712.221 144.432C713.277 144.432 714.101 144.832 714.693 145.632C715.285 146.424 715.581 147.48 715.581 148.8C715.581 150.12 715.285 151.18 714.693 151.98C714.101 152.772 713.277 153.168 712.221 153.168ZM710.949 150.852C711.237 151.316 711.661 151.548 712.221 151.548C712.781 151.548 713.205 151.312 713.493 150.84C713.789 150.368 713.937 149.688 713.937 148.8C713.937 147.904 713.789 147.22 713.493 146.748C713.205 146.276 712.781 146.04 712.221 146.04C711.661 146.04 711.237 146.276 710.949 146.748C710.661 147.22 710.517 147.904 710.517 148.8C710.517 149.696 710.661 150.38 710.949 150.852Z" fill="white"/>
<defs>
<linearGradient id="paint0_linear_2043_1640" x1="571" y1="104" x2="571" y2="359" gradientUnits="userSpaceOnUse">
<stop stop-color="#1B79E6" stop-opacity="0.19"/>
<stop offset="1" stop-color="#1B79E6" stop-opacity="0"/>
</linearGradient>
</defs>
</svg>
