<svg width="151" height="35" viewBox="0 0 151 35" fill="none" xmlns="http://www.w3.org/2000/svg">
<path d="M0.625 34.7084C0.628409 34.464 0.632955 34.2208 0.636364 33.9765C0.642046 33.5288 0.701139 33.0844 0.753413 32.6412C0.82387 32.0435 0.942056 31.4537 1.08524 30.8696C1.2057 30.3798 1.35457 29.898 1.52389 29.4229C1.76936 28.732 2.06255 28.0615 2.40461 27.4138C2.9069 26.4603 3.49783 25.566 4.18421 24.7353C5.18652 23.5216 6.33883 22.4761 7.65251 21.6079C8.67528 20.9329 9.76168 20.384 10.914 19.9624C11.7799 19.6453 12.6675 19.4135 13.5732 19.2487C14.0209 19.1669 14.4743 19.1237 14.9278 19.0749C15.3255 19.0317 15.7244 19.0385 16.1221 19.026C16.1551 19.026 16.188 19.0249 16.2199 19.0294C16.2539 19.034 16.2789 19.0567 16.2846 19.0919C16.2903 19.1237 16.2914 19.1567 16.2926 19.1885C16.2926 19.2612 16.2926 19.3351 16.2926 19.4078C16.2926 24.4126 16.2926 29.4173 16.2926 34.422C16.2926 34.5174 16.271 34.6174 16.3164 34.7095H0.625V34.7084Z" fill="#FFCC00"/>
<path d="M26.239 34.7082C26.2435 34.6696 26.2231 34.6468 26.1867 34.6434C26.0492 34.6275 25.9117 34.6139 25.7742 34.598C24.6923 34.4673 23.6855 34.1184 22.748 33.5661C22.0263 33.14 21.3934 32.607 20.8445 31.9774C20.074 31.0933 19.5319 30.0853 19.216 28.9535C18.9785 28.1068 18.8865 27.2454 18.941 26.3704C18.9944 25.5124 19.1819 24.6817 19.5126 23.8862C19.9467 22.8419 20.5717 21.9282 21.3991 21.1566C22.207 20.4032 23.1321 19.8429 24.1776 19.4781C25.1674 19.1338 26.1856 18.9997 27.2288 19.0622C28.1141 19.1145 28.9652 19.3168 29.7823 19.6634C30.8482 20.1157 31.7664 20.7736 32.5415 21.6316C33.2597 22.4271 33.7892 23.334 34.137 24.3476C34.3336 24.9204 34.4495 25.5102 34.5165 26.1079C34.5427 26.3386 34.5597 26.575 34.5359 26.8273H34.2631C31.8608 26.8273 29.4584 26.8273 27.0561 26.8273C26.9742 26.8273 26.8936 26.8273 26.8117 26.8329C26.7572 26.8363 26.7208 26.8716 26.7151 26.9261C26.7083 26.9829 26.7095 27.0398 26.7095 27.0966C26.7095 29.5864 26.7095 32.0763 26.7095 34.5673C26.7095 34.615 26.6981 34.665 26.7299 34.7093H26.2413L26.239 34.7082Z" fill="#33CCCC"/>
<path d="M150.741 5.35168C150.717 5.35622 150.7 5.36531 150.696 5.39486C150.525 6.4699 149.979 7.31993 149.117 7.96654C148.226 8.63588 147.211 8.8768 146.118 8.70634C144.976 8.52906 144.069 7.93813 143.418 6.98469C142.716 5.95511 142.545 4.82098 142.881 3.62889C143.16 2.63454 143.767 1.86519 144.647 1.31631C145.123 1.01971 145.637 0.829931 146.195 0.758338C146.233 0.753792 146.278 0.761747 146.294 0.709473C146.523 0.709473 146.75 0.709473 146.978 0.709473C147.082 0.725382 147.185 0.745838 147.29 0.758338C147.517 0.783339 147.74 0.835613 147.956 0.907207C148.875 1.21517 149.606 1.77315 150.129 2.59022C150.43 3.05955 150.644 3.56639 150.699 4.12891C150.701 4.15732 150.718 4.16982 150.742 4.17777V5.35054L150.741 5.35168ZM150.164 4.73461C150.189 2.93569 148.673 1.32086 146.742 1.31177C144.889 1.30267 143.325 2.84705 143.311 4.70279C143.298 6.5574 144.806 8.162 146.722 8.16314C148.718 8.16541 150.182 6.50626 150.163 4.73461H150.164Z" fill="#243257"/>
<path d="M133.366 10.8883C133.13 10.7133 132.869 10.5803 132.608 10.4496C131.992 10.1428 131.342 9.92915 130.663 9.81778C130.002 9.70869 129.335 9.6871 128.668 9.7746C126.466 10.0632 124.664 11.0803 123.245 12.7713C122.413 13.7622 121.892 14.91 121.635 16.1794C121.528 16.7078 121.467 17.2419 121.475 17.7794C121.507 19.9965 122.317 21.883 123.919 23.4217C124.833 24.3012 125.912 24.9081 127.127 25.266C128.057 25.5399 129.01 25.6479 129.978 25.566C131.597 25.4297 133.044 24.8558 134.308 23.8296C134.51 23.666 134.703 23.4898 134.897 23.3171C135.515 22.7694 135.988 22.1125 136.371 21.3875C136.729 20.7091 137.017 20.0022 137.254 19.2738C137.325 19.0579 137.393 18.8397 137.463 18.6238C137.619 18.1487 137.902 17.7658 138.335 17.5169C139.284 16.9714 140.243 16.9737 141.184 17.5351C141.634 17.8033 141.922 18.2147 142.1 18.7045C142.239 19.0863 142.266 19.4806 142.255 19.8818C142.243 20.2943 142.132 20.6841 142.014 21.0738C141.722 22.033 141.358 22.9637 140.893 23.8535C140.218 25.1456 139.321 26.2615 138.235 27.2309C137.461 27.9218 136.641 28.5457 135.734 29.0537C134.878 29.5321 133.983 29.9151 133.041 30.1912C132.493 30.3514 131.938 30.4787 131.375 30.5662C130.25 30.7424 129.12 30.7696 127.989 30.6492C125.896 30.4253 123.963 29.7446 122.204 28.5855C120.271 27.3127 118.787 25.6365 117.734 23.5785C117.235 22.6023 116.872 21.5773 116.639 20.5068C116.387 19.3477 116.289 18.176 116.357 16.9896C116.392 16.3794 116.465 15.7725 116.585 15.1748C116.79 14.1668 117.1 13.1906 117.541 12.2599C118.88 9.43141 120.973 7.34724 123.779 5.97106C124.719 5.51082 125.701 5.1699 126.722 4.94262C127.792 4.70397 128.876 4.59033 129.972 4.63351C132.735 4.74034 135.184 5.68355 137.332 7.41656C138.025 7.97567 138.652 8.6007 139.233 9.27458C139.554 9.64846 139.764 10.0735 139.835 10.561C139.95 11.3383 139.737 12.0258 139.239 12.6292C139.114 12.7804 138.965 12.9077 138.816 13.0338C137.891 13.8179 136.965 14.6032 136.04 15.3873C133.587 17.4669 131.133 19.5454 128.681 21.6284C127.998 22.2091 127.215 22.4012 126.355 22.1955C125.547 22.0034 124.965 21.5023 124.624 20.7409C124.153 19.6863 124.458 18.4726 125.314 17.7476C126.14 17.0476 126.967 16.3476 127.792 15.6464C129.605 14.1088 131.418 12.5713 133.232 11.0337C133.28 10.9928 133.341 10.961 133.364 10.8883H133.366Z" fill="#243257"/>
<path d="M69.1756 13.4022C69.1756 15.1363 69.1779 16.8693 69.1745 18.6035C69.1745 19.0342 69.1665 19.466 69.1211 19.8956C68.8324 22.6184 67.7506 24.9798 65.8767 26.9754C64.5732 28.364 63.0186 29.3823 61.2299 30.0391C60.4947 30.3084 59.739 30.4982 58.9639 30.6198C57.9275 30.7812 56.8877 30.7891 55.8456 30.7232C54.9888 30.6698 54.1501 30.5062 53.3296 30.2596C51.8955 29.8289 50.5875 29.1493 49.4034 28.2311C48.3988 27.4515 47.5408 26.5333 46.8181 25.4867C46.4692 24.9821 46.2839 24.4287 46.2953 23.815C46.3214 22.4309 47.3215 21.357 48.5556 21.157C49.7045 20.9717 50.6432 21.3615 51.3228 22.3127C51.708 22.8525 52.1376 23.3491 52.6501 23.7696C53.5365 24.498 54.5467 24.9673 55.6775 25.1594C56.4195 25.2855 57.1684 25.2901 57.9173 25.1992C59.2787 25.0355 60.4617 24.481 61.4788 23.5707C62.4038 22.7423 63.0504 21.732 63.4039 20.5399C63.5402 20.0785 63.6289 19.6081 63.6504 19.1251C63.6686 18.7342 63.6686 18.3444 63.6686 17.9535C63.6686 17.9205 63.6686 17.8887 63.6652 17.8557C63.6618 17.8069 63.6232 17.7819 63.5823 17.8046C63.5186 17.841 63.4561 17.8796 63.3936 17.9182C62.2947 18.5898 61.1197 19.0762 59.864 19.3694C58.9639 19.5797 58.0525 19.6887 57.1286 19.6785C56.8604 19.6762 56.5911 19.6762 56.3229 19.6717C55.7354 19.6615 55.1547 19.5853 54.5774 19.4808C53.8137 19.3421 53.074 19.1262 52.3523 18.841C50.8875 18.2614 49.5909 17.4216 48.4533 16.3352C47.2363 15.1727 46.3021 13.8124 45.6498 12.2612C45.3396 11.5248 45.1112 10.7623 44.9544 9.97819C44.7839 9.12816 44.7021 8.27018 44.7271 7.40651C44.7623 6.21897 45.3271 5.35417 46.4192 4.88597C47.8783 4.26095 49.5454 5.00756 50.0807 6.51671C50.1875 6.81785 50.2386 7.1315 50.2352 7.45083C50.2318 7.80084 50.2454 8.15085 50.2898 8.49859C50.3511 8.97702 50.4636 9.44294 50.6375 9.89296C51.2455 11.468 52.2978 12.6567 53.7899 13.4476C54.7047 13.9329 55.6865 14.1715 56.7241 14.1749C56.8627 14.1749 57.0014 14.1749 57.14 14.1749C58.7082 14.1681 60.0935 13.6556 61.2958 12.6567C62.2106 11.8964 62.8777 10.9555 63.2845 9.83728C63.4834 9.2918 63.6129 8.72928 63.6436 8.14858C63.6561 7.91335 63.6709 7.67697 63.6675 7.44174C63.655 6.30647 64.3607 5.27803 65.3994 4.86779C66.7756 4.32459 68.3177 4.94279 68.9313 6.28488C69.0779 6.60648 69.1654 6.94399 69.17 7.29855C69.1722 7.41219 69.1756 7.52583 69.1756 7.64061C69.1756 9.56113 69.1756 11.4828 69.1756 13.4033V13.4022Z" fill="#243257"/>
<path d="M85.1447 30.7592C77.974 30.7729 72.0466 24.8511 72.1 17.6133C72.1522 10.4472 78.0377 4.61176 85.2675 4.67086C92.4052 4.72881 98.2497 10.5199 98.202 17.8088C98.1554 24.9647 92.3143 30.7774 85.1459 30.7604L85.1447 30.7592ZM93.0461 17.7156C93.0586 13.5166 89.704 9.86535 85.1561 9.81194C80.6628 9.8574 77.2581 13.4359 77.2536 17.7043C77.249 22.0237 80.7696 25.6068 85.1447 25.6091C89.5619 25.6113 93.053 21.9783 93.045 17.7145L93.0461 17.7156Z" fill="#243257"/>
<path d="M34.5825 8.69045C34.545 10.703 33.82 12.5554 32.321 14.0747C30.796 15.6202 28.9232 16.4066 26.7549 16.4123C24.6151 16.4169 22.7548 15.66 21.2309 14.1497C19.6899 12.6224 18.9104 10.7553 18.9024 8.58363C18.8854 4.14712 22.5628 0.673134 26.7936 0.753819C30.8426 0.725409 34.5495 4.03575 34.5825 8.69159V8.69045Z" fill="#FF4077"/>
<path d="M101.158 22.5158C101.158 20.993 101.158 19.4714 101.158 17.9486C101.158 17.7293 101.16 17.5088 101.165 17.2895C101.184 16.3088 101.333 15.3462 101.579 14.3973C101.834 13.4166 102.2 12.4779 102.682 11.587C103.867 9.39147 105.539 7.66414 107.697 6.40955C108.903 5.70839 110.193 5.22201 111.559 4.93905C112.447 4.75495 113.344 4.6629 114.252 4.67313C115.309 4.68563 116.254 5.30724 116.626 6.29364C117.006 7.29936 116.804 8.2153 116.085 9.01078C115.725 9.40966 115.267 9.6483 114.746 9.76762C114.585 9.80399 114.423 9.8074 114.26 9.81194C113.788 9.82444 113.317 9.85626 112.85 9.93695C110.182 10.3995 108.027 12.1813 106.998 14.486C106.536 15.519 106.307 16.6019 106.306 17.7315C106.303 21.1828 106.303 24.6352 106.306 28.0864C106.306 28.5785 106.202 29.0387 105.953 29.4638C105.591 30.0831 105.066 30.507 104.37 30.6808C103.593 30.8752 102.865 30.7286 102.215 30.2536C101.673 29.8569 101.342 29.3183 101.199 28.6649C101.15 28.441 101.157 28.2114 101.157 27.9842C101.157 26.8364 101.157 25.6886 101.157 24.5409V22.5135L101.158 22.5158Z" fill="#243257"/>
<path d="M0.716797 0.775708C0.815664 0.775708 0.897485 0.775708 0.978169 0.775708C5.97039 0.775708 10.9626 0.775708 15.9548 0.775708C16.3071 0.775708 16.2707 0.726842 16.2707 1.08254C16.2707 6.07134 16.2707 11.059 16.2707 16.0478V16.3012C16.2457 16.3126 16.2378 16.3183 16.231 16.3183C16.2241 16.3183 16.2151 16.3149 16.2094 16.3092C11.0501 11.1545 5.89084 5.99975 0.732707 0.842755C0.723615 0.833664 0.725888 0.814345 0.716797 0.775708Z" fill="#1B79E8"/>
<path d="M147.921 4.92919C147.946 4.98374 147.995 4.99965 148.035 5.02692C148.348 5.24056 148.531 5.5383 148.587 5.9099C148.623 6.13491 148.633 6.36333 148.624 6.59061C148.621 6.63947 148.617 6.68834 148.606 6.73493C148.558 6.9213 148.399 7.03381 148.206 7.02017C148.035 7.00767 147.881 6.87016 147.859 6.69743C147.846 6.60084 147.852 6.50311 147.852 6.40538C147.852 6.17582 147.82 5.95195 147.752 5.73263C147.679 5.49739 147.523 5.36557 147.283 5.32807C147.202 5.31557 147.121 5.30761 147.041 5.30647C146.691 5.3042 146.341 5.30534 145.991 5.30534C145.967 5.30534 145.942 5.30647 145.918 5.30761C145.871 5.30875 145.841 5.33148 145.838 5.3792C145.835 5.43602 145.835 5.49284 145.835 5.54966C145.835 5.86672 145.835 6.18378 145.835 6.50083C145.835 6.56561 145.835 6.63152 145.827 6.69516C145.807 6.85766 145.707 6.95994 145.557 7.00767C145.401 7.05653 145.241 6.99858 145.144 6.86903C145.104 6.81562 145.079 6.75652 145.077 6.68948C145.075 6.63266 145.075 6.57584 145.075 6.51902C145.075 5.39625 145.075 4.27462 145.075 3.15185C145.075 3.09503 145.073 3.03821 145.077 2.98139C145.099 2.72229 145.293 2.52683 145.554 2.51547C145.758 2.50638 145.961 2.5132 146.165 2.5132C146.45 2.5132 146.734 2.51092 147.019 2.5132C147.331 2.51661 147.636 2.55979 147.924 2.68479C148.582 2.9723 148.762 3.62233 148.657 4.10302C148.589 4.41667 148.394 4.63713 148.132 4.80646C148.064 4.84964 147.992 4.88828 147.923 4.92919H147.921ZM145.832 3.89734C145.832 4.10871 145.829 4.31894 145.832 4.53031C145.832 4.60645 145.858 4.63031 145.937 4.63031C146.213 4.63259 146.49 4.63372 146.766 4.63031C146.895 4.62918 147.026 4.62463 147.154 4.611C147.351 4.59054 147.534 4.52463 147.691 4.40076C148.05 4.11893 148.01 3.47573 147.562 3.28254C147.465 3.24049 147.363 3.21436 147.259 3.19845C147.001 3.15981 146.741 3.1689 146.481 3.16776C146.302 3.16776 146.123 3.16663 145.944 3.1689C145.849 3.17004 145.832 3.18822 145.83 3.28709C145.828 3.4905 145.83 3.69278 145.83 3.8962L145.832 3.89734Z" fill="#243257"/>
</svg>
