<svg width="111" height="26" viewBox="0 0 111 26" fill="none" xmlns="http://www.w3.org/2000/svg">
<path d="M0 25.1394C0.00252084 24.9588 0.00588196 24.7789 0.0084028 24.5983C0.0126042 24.2672 0.0562988 23.9387 0.0949516 23.6109C0.147049 23.169 0.234438 22.7329 0.340313 22.3009C0.429383 21.9388 0.53946 21.5825 0.664661 21.2313C0.846162 20.7204 1.06295 20.2246 1.31588 19.7457C1.68728 19.0407 2.12423 18.3794 2.63176 17.7651C3.37288 16.8677 4.22493 16.0946 5.19629 15.4527C5.95254 14.9535 6.75585 14.5477 7.60789 14.2359C8.24819 14.0015 8.90445 13.8301 9.57415 13.7082C9.90522 13.6477 10.2405 13.6158 10.5758 13.5797C10.8699 13.5478 11.1648 13.5528 11.4589 13.5436C11.4833 13.5436 11.5076 13.5427 11.5312 13.5461C11.5564 13.5494 11.5749 13.5662 11.5791 13.5923C11.5833 13.6158 11.5841 13.6402 11.5849 13.6637C11.5849 13.7175 11.5849 13.7721 11.5849 13.8259C11.5849 17.5265 11.5849 21.2271 11.5849 24.9277C11.5849 24.9982 11.569 25.0722 11.6026 25.1403H0V25.1394Z" fill="#FFCC00"/>
<path d="M18.9398 25.1395C18.9431 25.111 18.928 25.0941 18.9011 25.0916C18.7994 25.0799 18.6978 25.0698 18.5961 25.058C17.7961 24.9614 17.0517 24.7034 16.3584 24.295C15.8248 23.9799 15.3568 23.5858 14.951 23.1203C14.3812 22.4666 13.9804 21.7213 13.7468 20.8843C13.5712 20.2583 13.5032 19.6214 13.5435 18.9744C13.583 18.34 13.7216 17.7257 13.9661 17.1375C14.2871 16.3653 14.7493 15.6897 15.361 15.1192C15.9585 14.5621 16.6424 14.1478 17.4155 13.8781C18.1474 13.6235 18.9003 13.5243 19.6716 13.5705C20.3262 13.6092 20.9556 13.7588 21.5598 14.0151C22.3479 14.3495 23.0269 14.836 23.6 15.4704C24.131 16.0586 24.5226 16.7292 24.7797 17.4787C24.9251 17.9022 25.0108 18.3383 25.0604 18.7803C25.0797 18.9509 25.0923 19.1256 25.0746 19.3122H24.873C23.0966 19.3122 21.3203 19.3122 19.5439 19.3122C19.4834 19.3122 19.4238 19.3122 19.3633 19.3164C19.3229 19.3189 19.296 19.345 19.2918 19.3853C19.2868 19.4273 19.2876 19.4693 19.2876 19.5113C19.2876 21.3524 19.2876 23.1934 19.2876 25.0353C19.2876 25.0706 19.2792 25.1076 19.3028 25.1404H18.9414L18.9398 25.1395Z" fill="#33CCCC"/>
<path d="M110.999 3.43254C110.982 3.4359 110.969 3.44263 110.966 3.46447C110.84 4.25938 110.435 4.88791 109.798 5.36603C109.14 5.86095 108.389 6.03909 107.581 5.91305C106.736 5.78197 106.066 5.34502 105.584 4.64003C105.065 3.87873 104.939 3.04013 105.187 2.15868C105.394 1.42343 105.842 0.854565 106.493 0.448709C106.845 0.229396 107.226 0.0890697 107.638 0.036132C107.666 0.0327709 107.699 0.0386529 107.711 0C107.88 0 108.048 0 108.217 0C108.294 0.0117639 108.37 0.026889 108.447 0.036132C108.615 0.0546182 108.78 0.0932711 108.94 0.146209C109.619 0.373925 110.16 0.786502 110.546 1.39066C110.769 1.7377 110.928 2.11246 110.968 2.5284C110.97 2.54941 110.982 2.55865 111 2.56453V3.4317L110.999 3.43254ZM110.572 2.97627C110.591 1.64611 109.47 0.452071 108.042 0.445348C106.672 0.438626 105.516 1.58057 105.505 2.95274C105.495 4.32408 106.61 5.51056 108.027 5.5114C109.504 5.51308 110.586 4.28627 110.572 2.97627H110.572Z" fill="#143A60"/>
<path d="M98.1526 7.52633C97.9787 7.39693 97.7854 7.29862 97.5922 7.20199C97.1367 6.97511 96.6561 6.81714 96.1545 6.73479C95.6654 6.65412 95.1722 6.63816 94.6789 6.70286C93.0513 6.91629 91.7186 7.66834 90.6691 8.91868C90.054 9.6514 89.6692 10.5001 89.4784 11.4387C89.3994 11.8294 89.3549 12.2243 89.3608 12.6218C89.3843 14.2612 89.9834 15.656 91.1674 16.7938C91.8438 17.4442 92.6412 17.8929 93.5395 18.1576C94.2277 18.3601 94.9318 18.4399 95.6478 18.3794C96.8452 18.2786 97.9148 17.8542 98.8492 17.0954C98.9988 16.9744 99.1416 16.8442 99.2853 16.7165C99.7416 16.3115 100.092 15.8258 100.375 15.2897C100.64 14.788 100.852 14.2654 101.028 13.7268C101.08 13.5671 101.131 13.4058 101.183 13.2461C101.298 12.8949 101.507 12.6117 101.827 12.4277C102.529 12.0244 103.238 12.026 103.934 12.4411C104.267 12.6394 104.479 12.9436 104.611 13.3058C104.714 13.5881 104.734 13.8797 104.725 14.1763C104.717 14.4813 104.635 14.7695 104.547 15.0578C104.331 15.767 104.062 16.4551 103.719 17.1131C103.22 18.0685 102.557 18.8936 101.753 19.6104C101.181 20.1213 100.574 20.5826 99.9038 20.9582C99.271 21.312 98.6089 21.5951 97.9123 21.7993C97.5073 21.9178 97.0972 22.0119 96.6805 22.0766C95.8486 22.2069 95.0133 22.227 94.1773 22.138C92.6295 21.9724 91.2002 21.4691 89.8994 20.612C88.4701 19.6709 87.3727 18.4315 86.5946 16.9097C86.2257 16.1879 85.9568 15.43 85.7846 14.6385C85.598 13.7814 85.5257 12.915 85.5762 12.0378C85.6022 11.5866 85.656 11.1379 85.7451 10.6959C85.8963 9.95054 86.1257 9.22874 86.4517 8.54055C87.4416 6.4491 88.9894 4.90802 91.064 3.89044C91.7589 3.55013 92.4849 3.29804 93.2404 3.12999C94.0311 2.95353 94.8327 2.8695 95.6436 2.90143C97.6863 2.98042 99.4971 3.67785 101.085 4.95928C101.598 5.3727 102.062 5.83485 102.491 6.33314C102.729 6.60959 102.883 6.92385 102.936 7.28433C103.021 7.85908 102.864 8.36745 102.495 8.81364C102.403 8.9254 102.293 9.01951 102.183 9.11278C101.499 9.69257 100.814 10.2732 100.13 10.853C98.3165 12.3907 96.5015 13.9276 94.689 15.4678C94.184 15.8972 93.605 16.0392 92.9689 15.8871C92.3715 15.7451 91.9413 15.3745 91.6892 14.8116C91.3405 14.0318 91.5665 13.1344 92.1992 12.5983C92.8101 12.0807 93.421 11.563 94.0311 11.0446C95.3721 9.90769 96.7124 8.77079 98.0535 7.63389C98.0896 7.60364 98.1341 7.58011 98.1518 7.52633H98.1526Z" fill="#143A60"/>
<path d="M50.6885 9.38497C50.6885 10.6672 50.6901 11.9487 50.6876 13.2309C50.6876 13.5494 50.6817 13.8687 50.6481 14.1863C50.4347 16.1996 49.6348 17.9457 48.2491 19.4213C47.2853 20.4481 46.1358 21.201 44.8132 21.6867C44.2696 21.8858 43.7108 22.0261 43.1377 22.1161C42.3714 22.2354 41.6025 22.2413 40.832 22.1925C40.1984 22.153 39.5783 22.032 38.9716 21.8497C37.9112 21.5312 36.944 21.0287 36.0684 20.3498C35.3256 19.7734 34.6912 19.0944 34.1568 18.3205C33.8988 17.9474 33.7619 17.5382 33.7703 17.0845C33.7896 16.061 34.529 15.2669 35.4416 15.119C36.2911 14.9821 36.9852 15.2703 37.4877 15.9736C37.7725 16.3727 38.0902 16.7399 38.4691 17.0508C39.1245 17.5895 39.8715 17.9365 40.7076 18.0785C41.2563 18.1718 41.8101 18.1751 42.3638 18.1079C43.3705 17.9869 44.2452 17.5769 44.9973 16.9038C45.6812 16.2912 46.1594 15.5442 46.4207 14.6628C46.5215 14.3216 46.5871 13.9737 46.603 13.6166C46.6165 13.3276 46.6165 13.0393 46.6165 12.7503C46.6165 12.7259 46.6165 12.7024 46.614 12.678C46.6114 12.6419 46.5829 12.6234 46.5526 12.6402C46.5056 12.6671 46.4593 12.6957 46.4131 12.7242C45.6006 13.2208 44.7317 13.5805 43.8032 13.7973C43.1377 13.9527 42.4638 14.0334 41.7807 14.0258C41.5824 14.0242 41.3832 14.0242 41.1849 14.0208C40.7505 14.0132 40.3211 13.9569 39.8942 13.8796C39.3296 13.7771 38.7825 13.6175 38.249 13.4066C37.1658 12.978 36.2071 12.357 35.366 11.5537C34.466 10.6941 33.7753 9.68831 33.293 8.54133C33.0636 7.99683 32.8947 7.433 32.7787 6.85321C32.6527 6.22468 32.5922 5.59027 32.6107 4.95166C32.6367 4.07356 33.0544 3.43411 33.8619 3.08792C34.9408 2.62576 36.1735 3.17783 36.5692 4.29372C36.6482 4.51639 36.686 4.74831 36.6835 4.98443C36.681 5.24323 36.6911 5.50204 36.7239 5.75917C36.7692 6.11292 36.8524 6.45744 36.981 6.79019C37.4305 7.95482 38.2086 8.83375 39.3119 9.41858C39.9883 9.77738 40.7143 9.95384 41.4815 9.95636C41.584 9.95636 41.6866 9.95636 41.7891 9.95636C42.9487 9.95132 43.973 9.57236 44.862 8.83375C45.5384 8.2716 46.0316 7.57585 46.3325 6.74902C46.4795 6.34568 46.5753 5.92974 46.598 5.50036C46.6072 5.32642 46.6182 5.15164 46.6156 4.97771C46.6064 4.13827 47.1282 3.37781 47.8962 3.07447C48.9138 2.67282 50.0541 3.12993 50.5078 4.1223C50.6162 4.3601 50.6809 4.60966 50.6843 4.87183C50.6859 4.95586 50.6885 5.03989 50.6885 5.12475C50.6885 6.54483 50.6885 7.96574 50.6885 9.38581V9.38497Z" fill="#143A60"/>
<path d="M62.4945 22.2195C57.1923 22.2296 52.8094 17.8509 52.8489 12.4991C52.8876 7.2003 57.2394 2.88547 62.5852 2.92916C67.863 2.97202 72.1846 7.25408 72.1493 12.6436C72.1148 17.9349 67.7958 22.2329 62.4953 22.2203L62.4945 22.2195ZM68.3369 12.5747C68.3462 9.4699 65.8657 6.77008 62.5029 6.73059C59.1804 6.7642 56.6629 9.41024 56.6596 12.5663C56.6562 15.7602 59.2594 18.4096 62.4945 18.4113C65.7606 18.413 68.342 15.7266 68.3361 12.5739L68.3369 12.5747Z" fill="#143A60"/>
<path d="M25.1079 5.90139C25.0802 7.38953 24.5441 8.75918 23.4357 9.88264C22.3081 11.0254 20.9233 11.6069 19.32 11.6111C17.7378 11.6145 16.3623 11.0548 15.2354 9.9381C14.096 8.80876 13.5196 7.42818 13.5137 5.82241C13.5011 2.54195 16.2203 -0.0267811 19.3486 0.0328788C22.3425 0.0118718 25.0835 2.45961 25.1079 5.90223V5.90139Z" fill="#FF4077"/>
<path d="M74.3351 16.1242C74.3351 14.9982 74.3351 13.8731 74.3351 12.7471C74.3351 12.585 74.3367 12.4219 74.3401 12.2598C74.3544 11.5346 74.4645 10.8229 74.6468 10.1213C74.835 9.3961 75.1056 8.70203 75.4619 8.04325C76.3383 6.41983 77.5743 5.1426 79.17 4.21494C80.0624 3.69648 81.0161 3.33684 82.0261 3.12761C82.6824 2.99149 83.3462 2.92343 84.0176 2.93099C84.7991 2.94023 85.4973 3.39986 85.773 4.12923C86.0536 4.87287 85.904 5.55014 85.373 6.13834C85.1066 6.43327 84.768 6.60973 84.3823 6.69796C84.2638 6.72485 84.1437 6.72737 84.0235 6.73073C83.6739 6.73998 83.3261 6.7635 82.9807 6.82316C81.0077 7.16516 79.4146 8.48272 78.6533 10.1868C78.3121 10.9506 78.1424 11.7514 78.1415 12.5866C78.1399 15.1386 78.1399 17.6913 78.1415 20.2433C78.1415 20.6071 78.0651 20.9474 77.881 21.2617C77.613 21.7196 77.2248 22.0331 76.7105 22.1616C76.1358 22.3053 75.5972 22.1969 75.1165 21.8457C74.7157 21.5524 74.4712 21.1541 74.3653 20.671C74.3292 20.5054 74.3342 20.3357 74.3342 20.1677C74.3342 19.319 74.3342 18.4703 74.3342 17.6216V16.1225L74.3351 16.1242Z" fill="#143A60"/>
<path d="M0.0673828 0.0487977C0.140487 0.0487977 0.200987 0.0487977 0.260647 0.0487977C3.952 0.0487977 7.64335 0.0487977 11.3347 0.0487977C11.5952 0.0487977 11.5683 0.0126657 11.5683 0.275673C11.5683 3.9645 11.5683 7.65249 11.5683 11.3413V11.5287C11.5498 11.5371 11.5439 11.5413 11.5389 11.5413C11.5338 11.5413 11.5271 11.5388 11.5229 11.5346C7.70805 7.72307 3.89318 3.91156 0.0791467 0.0983742C0.0724245 0.091652 0.0741051 0.0773672 0.0673828 0.0487977Z" fill="#1B79E8"/>
<path d="M108.913 3.11992C108.931 3.16025 108.968 3.17201 108.997 3.19218C109.228 3.35015 109.363 3.57031 109.405 3.84508C109.431 4.01145 109.439 4.18035 109.432 4.3484C109.431 4.38454 109.427 4.42067 109.419 4.45512C109.384 4.59293 109.266 4.67611 109.123 4.66603C108.997 4.65679 108.883 4.55511 108.867 4.42739C108.857 4.35597 108.862 4.2837 108.862 4.21144C108.862 4.0417 108.838 3.87617 108.788 3.71399C108.734 3.54006 108.618 3.44258 108.441 3.41485C108.381 3.40561 108.321 3.39973 108.262 3.39889C108.003 3.39721 107.744 3.39805 107.485 3.39805C107.468 3.39805 107.449 3.39889 107.432 3.39973C107.397 3.40057 107.374 3.41737 107.373 3.45267C107.37 3.49468 107.37 3.53669 107.37 3.57871C107.37 3.81315 107.37 4.04758 107.37 4.28202C107.37 4.32992 107.37 4.37865 107.364 4.42571C107.349 4.54587 107.275 4.6215 107.164 4.65679C107.049 4.69292 106.931 4.65006 106.859 4.55427C106.83 4.51478 106.811 4.47109 106.81 4.42151C106.808 4.37949 106.808 4.33748 106.808 4.29547C106.808 3.46527 106.808 2.63591 106.808 1.80572C106.808 1.7637 106.806 1.72169 106.81 1.67968C106.826 1.48809 106.969 1.34356 107.163 1.33516C107.313 1.32844 107.463 1.33348 107.614 1.33348C107.825 1.33348 108.035 1.3318 108.246 1.33348C108.476 1.336 108.702 1.36793 108.915 1.46036C109.401 1.67295 109.535 2.15359 109.457 2.50903C109.406 2.74095 109.262 2.90396 109.068 3.02916C109.018 3.0611 108.965 3.08967 108.914 3.11992H108.913ZM107.368 2.35694C107.368 2.51323 107.366 2.66868 107.368 2.82498C107.368 2.88128 107.387 2.89892 107.446 2.89892C107.65 2.9006 107.854 2.90144 108.058 2.89892C108.154 2.89808 108.251 2.89472 108.346 2.88464C108.491 2.86951 108.626 2.82078 108.742 2.72918C109.008 2.5208 108.978 2.0452 108.647 1.90235C108.575 1.87126 108.5 1.85193 108.423 1.84017C108.232 1.8116 108.04 1.81832 107.847 1.81748C107.716 1.81748 107.583 1.81664 107.451 1.81832C107.38 1.81916 107.368 1.83261 107.367 1.90571C107.365 2.05612 107.367 2.20569 107.367 2.3561L107.368 2.35694Z" fill="#143A60"/>
</svg>
