<svg width="237" height="60" viewBox="0 0 237 60" fill="none" xmlns="http://www.w3.org/2000/svg">
<rect x="0.5" y="0.5" width="236" height="59" rx="29.5" fill="white" stroke="#243257"/>
<path d="M73.3639 26.5753C70.4854 24.9509 65.8652 22.3425 58.699 18.2942C58.2159 17.9723 57.66 17.9301 57.1797 18.0941L69.4749 30.4989L73.3639 26.5753Z" fill="#32BBFF"/>
<path d="M57.1815 18.0942C57.0915 18.125 57.0039 18.1621 56.9201 18.2069C56.3897 18.4964 56 19.0534 56 19.7578V41.2403C56 41.9447 56.3897 42.5017 56.9201 42.7911C57.0038 42.8359 57.0913 42.8731 57.1812 42.9041L69.4767 30.499L57.1815 18.0942Z" fill="#32BBFF"/>
<path d="M69.4752 30.499L57.1797 42.9041C57.6601 43.0693 58.216 43.0303 58.6993 42.7037C65.649 38.7775 70.2171 36.2 73.1289 34.5618C73.21 34.5159 73.2894 34.471 73.3679 34.4265L69.4752 30.499Z" fill="#32BBFF"/>
<path d="M56 30.499V41.2403C56 41.9447 56.3897 42.5017 56.9201 42.7911C57.0038 42.8359 57.0913 42.8731 57.1812 42.9041L69.4767 30.499H56Z" fill="#2C9FD9"/>
<path d="M58.7026 18.2943C58.1288 17.9121 57.4523 17.923 56.9219 18.207L69.2919 30.6873L73.3675 26.5754C70.489 24.951 65.8688 22.3426 58.7026 18.2943Z" fill="#29CC5E"/>
<path d="M69.292 30.311L56.9219 42.7913C57.4523 43.0752 58.1288 43.0916 58.7026 42.7039C65.6523 38.7777 70.2204 36.2002 73.1322 34.562C73.2133 34.5161 73.2927 34.4712 73.3712 34.4267L69.292 30.311Z" fill="#D93F21"/>
<path d="M78.4977 30.4992C78.4977 29.904 78.2 29.3033 77.61 28.9702C77.61 28.9702 76.5066 28.349 73.1245 26.4404L69.1016 30.4992L73.1284 34.5619C76.4734 32.6671 77.6099 32.0281 77.6099 32.0281C78.2 31.6951 78.4977 31.0944 78.4977 30.4992Z" fill="#FFD500"/>
<path d="M77.61 32.028C78.2 31.6949 78.4977 31.0942 78.4977 30.499H69.1016L73.1284 34.5618C76.4734 32.667 77.61 32.028 77.61 32.028Z" fill="#FFAA00"/>
<path d="M95.02 23C96.3667 23 97.5 23.4533 98.42 24.36C99.34 25.2667 99.8 26.38 99.8 27.7C99.8 29.02 99.34 30.1333 98.42 31.04C97.5 31.9467 96.3667 32.4 95.02 32.4H92.56V37H89.8V23H95.02ZM95.02 29.82C95.6067 29.82 96.0933 29.62 96.48 29.22C96.8667 28.8067 97.06 28.3 97.06 27.7C97.06 27.0867 96.8667 26.58 96.48 26.18C96.0933 25.78 95.6067 25.58 95.02 25.58H92.56V29.82H95.02ZM101.543 37V22.4H104.123V37H101.543ZM114.15 27H116.73V37H114.15V35.82C113.377 36.7933 112.29 37.28 110.89 37.28C109.557 37.28 108.41 36.7733 107.45 35.76C106.504 34.7333 106.03 33.48 106.03 32C106.03 30.52 106.504 29.2733 107.45 28.26C108.41 27.2333 109.557 26.72 110.89 26.72C112.29 26.72 113.377 27.2067 114.15 28.18V27ZM109.39 34.04C109.91 34.56 110.57 34.82 111.37 34.82C112.17 34.82 112.83 34.56 113.35 34.04C113.884 33.5067 114.15 32.8267 114.15 32C114.15 31.1733 113.884 30.5 113.35 29.98C112.83 29.4467 112.17 29.18 111.37 29.18C110.57 29.18 109.91 29.4467 109.39 29.98C108.87 30.5 108.61 31.1733 108.61 32C108.61 32.8267 108.87 33.5067 109.39 34.04ZM125.656 27H128.416L124.776 37C124.256 38.44 123.562 39.48 122.696 40.12C121.842 40.7733 120.776 41.0667 119.496 41V38.6C120.189 38.6133 120.736 38.4667 121.136 38.16C121.549 37.8533 121.876 37.36 122.116 36.68L118.016 27H120.836L123.436 33.72L125.656 27ZM139.676 37.28C138.289 37.28 137.122 36.9733 136.176 36.36C135.229 35.7333 134.562 34.8867 134.176 33.82L136.536 32.44C137.082 33.8667 138.156 34.58 139.756 34.58C140.529 34.58 141.096 34.44 141.456 34.16C141.816 33.88 141.996 33.5267 141.996 33.1C141.996 32.6067 141.776 32.2267 141.336 31.96C140.896 31.68 140.109 31.38 138.976 31.06C138.349 30.8733 137.816 30.6867 137.376 30.5C136.949 30.3133 136.516 30.0667 136.076 29.76C135.649 29.44 135.322 29.04 135.096 28.56C134.869 28.08 134.756 27.52 134.756 26.88C134.756 25.6133 135.202 24.6067 136.096 23.86C137.002 23.1 138.089 22.72 139.356 22.72C140.489 22.72 141.482 23 142.336 23.56C143.202 24.1067 143.876 24.8733 144.356 25.86L142.036 27.2C141.476 26 140.582 25.4 139.356 25.4C138.782 25.4 138.329 25.5333 137.996 25.8C137.676 26.0533 137.516 26.3867 137.516 26.8C137.516 27.24 137.696 27.6 138.056 27.88C138.429 28.1467 139.136 28.44 140.176 28.76C140.602 28.8933 140.922 29 141.136 29.08C141.362 29.1467 141.662 29.26 142.036 29.42C142.422 29.5667 142.716 29.7067 142.916 29.84C143.129 29.9733 143.369 30.1533 143.636 30.38C143.902 30.6067 144.102 30.84 144.236 31.08C144.382 31.32 144.502 31.6133 144.596 31.96C144.702 32.2933 144.756 32.66 144.756 33.06C144.756 34.3533 144.282 35.38 143.336 36.14C142.402 36.9 141.182 37.28 139.676 37.28ZM151.929 29.48H149.669V33.64C149.669 33.9867 149.755 34.24 149.929 34.4C150.102 34.56 150.355 34.6533 150.689 34.68C151.022 34.6933 151.435 34.6867 151.929 34.66V37C150.155 37.2 148.902 37.0333 148.169 36.5C147.449 35.9667 147.089 35.0133 147.089 33.64V29.48H145.349V27H147.089V24.98L149.669 24.2V27H151.929V29.48ZM162.021 35.76C160.995 36.7733 159.741 37.28 158.261 37.28C156.781 37.28 155.528 36.7733 154.501 35.76C153.488 34.7333 152.981 33.48 152.981 32C152.981 30.52 153.488 29.2733 154.501 28.26C155.528 27.2333 156.781 26.72 158.261 26.72C159.741 26.72 160.995 27.2333 162.021 28.26C163.048 29.2733 163.561 30.52 163.561 32C163.561 33.48 163.048 34.7333 162.021 35.76ZM156.321 33.98C156.841 34.5 157.488 34.76 158.261 34.76C159.035 34.76 159.681 34.5 160.201 33.98C160.721 33.46 160.981 32.8 160.981 32C160.981 31.2 160.721 30.54 160.201 30.02C159.681 29.5 159.035 29.24 158.261 29.24C157.488 29.24 156.841 29.5 156.321 30.02C155.815 30.54 155.561 31.2 155.561 32C155.561 32.8 155.815 33.46 156.321 33.98ZM168.022 28.72C168.262 28.08 168.656 27.6 169.202 27.28C169.762 26.96 170.382 26.8 171.062 26.8V29.68C170.276 29.5867 169.569 29.7467 168.942 30.16C168.329 30.5733 168.022 31.26 168.022 32.22V37H165.442V27H168.022V28.72ZM174.446 33.06C174.793 34.3133 175.733 34.94 177.266 34.94C178.253 34.94 179 34.6067 179.506 33.94L181.586 35.14C180.6 36.5667 179.146 37.28 177.226 37.28C175.573 37.28 174.246 36.78 173.246 35.78C172.246 34.78 171.746 33.52 171.746 32C171.746 30.4933 172.24 29.24 173.226 28.24C174.213 27.2267 175.48 26.72 177.026 26.72C178.493 26.72 179.7 27.2267 180.646 28.24C181.606 29.2533 182.086 30.5067 182.086 32C182.086 32.3333 182.053 32.6867 181.986 33.06H174.446ZM174.406 31.06H179.506C179.36 30.38 179.053 29.8733 178.586 29.54C178.133 29.2067 177.613 29.04 177.026 29.04C176.333 29.04 175.76 29.22 175.306 29.58C174.853 29.9267 174.553 30.42 174.406 31.06Z" fill="#243257"/>
</svg>
