<svg width="562" height="99" viewBox="0 0 562 99" fill="none" xmlns="http://www.w3.org/2000/svg">
<path d="M310.045 1.5H316.645V40H309.055V9.53L301.795 11.565L299.925 5.075L310.045 1.5ZM338.096 40.77C333.292 40.77 329.516 38.955 326.766 35.325C324.052 31.6583 322.696 26.8 322.696 20.75C322.696 14.7 324.052 9.86 326.766 6.23C329.516 2.56333 333.292 0.729997 338.096 0.729997C342.936 0.729997 346.712 2.56333 349.426 6.23C352.139 9.86 353.496 14.7 353.496 20.75C353.496 26.8 352.139 31.6583 349.426 35.325C346.712 38.955 342.936 40.77 338.096 40.77ZM332.266 30.155C333.586 32.2817 335.529 33.345 338.096 33.345C340.662 33.345 342.606 32.2633 343.926 30.1C345.282 27.9367 345.961 24.82 345.961 20.75C345.961 16.6433 345.282 13.5083 343.926 11.345C342.606 9.18166 340.662 8.1 338.096 8.1C335.529 8.1 333.586 9.18166 332.266 11.345C330.946 13.5083 330.286 16.6433 330.286 20.75C330.286 24.8567 330.946 27.9917 332.266 30.155ZM379.686 19.98C383.242 22.1067 385.021 25.205 385.021 29.275C385.021 32.8317 383.774 35.6367 381.281 37.69C378.824 39.7433 375.469 40.77 371.216 40.77C366.926 40.77 363.552 39.7433 361.096 37.69C358.639 35.6367 357.411 32.8317 357.411 29.275C357.411 25.205 359.171 22.1067 362.691 19.98C360.014 18.0367 358.676 15.3783 358.676 12.005C358.676 8.44833 359.867 5.68 362.251 3.7C364.671 1.72 367.659 0.729997 371.216 0.729997C374.772 0.729997 377.742 1.72 380.126 3.7C382.509 5.68 383.701 8.44833 383.701 12.005C383.701 15.415 382.362 18.0733 379.686 19.98ZM374.791 9.09C373.874 8.28333 372.682 7.88 371.216 7.88C369.749 7.88 368.557 8.28333 367.641 9.09C366.724 9.89667 366.266 10.9967 366.266 12.39C366.266 13.7833 366.724 14.9017 367.641 15.745C368.557 16.5517 369.749 16.955 371.216 16.955C372.682 16.955 373.874 16.5517 374.791 15.745C375.707 14.9017 376.166 13.7833 376.166 12.39C376.166 10.9967 375.707 9.89667 374.791 9.09ZM366.651 32.245C367.824 33.1617 369.346 33.62 371.216 33.62C373.086 33.62 374.589 33.1617 375.726 32.245C376.899 31.2917 377.486 29.9717 377.486 28.285C377.486 26.635 376.899 25.3517 375.726 24.435C374.589 23.4817 373.086 23.005 371.216 23.005C369.346 23.005 367.824 23.4817 366.651 24.435C365.514 25.3517 364.946 26.635 364.946 28.285C364.946 29.9717 365.514 31.2917 366.651 32.245ZM404.362 40.77C399.559 40.77 395.782 38.955 393.032 35.325C390.319 31.6583 388.962 26.8 388.962 20.75C388.962 14.7 390.319 9.86 393.032 6.23C395.782 2.56333 399.559 0.729997 404.362 0.729997C409.202 0.729997 412.979 2.56333 415.692 6.23C418.405 9.86 419.762 14.7 419.762 20.75C419.762 26.8 418.405 31.6583 415.692 35.325C412.979 38.955 409.202 40.77 404.362 40.77ZM398.532 30.155C399.852 32.2817 401.795 33.345 404.362 33.345C406.929 33.345 408.872 32.2633 410.192 30.1C411.549 27.9367 412.227 24.82 412.227 20.75C412.227 16.6433 411.549 13.5083 410.192 11.345C408.872 9.18166 406.929 8.1 404.362 8.1C401.795 8.1 399.852 9.18166 398.532 11.345C397.212 13.5083 396.552 16.6433 396.552 20.75C396.552 24.8567 397.212 27.9917 398.532 30.155Z" fill="#243257"/>
<path d="M527.04 46.8H528.96V58H526.752V49.136L524.64 49.728L524.096 47.84L527.04 46.8ZM534.64 50.88C535.717 50.88 536.624 51.2053 537.36 51.856C538.096 52.496 538.464 53.392 538.464 54.544C538.464 55.696 538.075 56.5973 537.296 57.248C536.528 57.8987 535.584 58.224 534.464 58.224C533.557 58.224 532.757 58.0213 532.064 57.616C531.371 57.2107 530.869 56.6133 530.56 55.824L532.448 54.72C532.725 55.616 533.397 56.064 534.464 56.064C535.029 56.064 535.467 55.9307 535.776 55.664C536.096 55.3867 536.256 55.0133 536.256 54.544C536.256 54.0853 536.101 53.7173 535.792 53.44C535.483 53.1627 535.061 53.024 534.528 53.024H531.136L531.584 46.8H537.936V48.864H533.632L533.488 50.88H534.64ZM543.831 58.224C542.434 58.224 541.335 57.696 540.535 56.64C539.746 55.5733 539.351 54.16 539.351 52.4C539.351 50.64 539.746 49.232 540.535 48.176C541.335 47.1093 542.434 46.576 543.831 46.576C545.239 46.576 546.338 47.1093 547.127 48.176C547.916 49.232 548.311 50.64 548.311 52.4C548.311 54.16 547.916 55.5733 547.127 56.64C546.338 57.696 545.239 58.224 543.831 58.224ZM542.135 55.136C542.519 55.7547 543.084 56.064 543.831 56.064C544.578 56.064 545.143 55.7493 545.527 55.12C545.922 54.4907 546.119 53.584 546.119 52.4C546.119 51.2053 545.922 50.2933 545.527 49.664C545.143 49.0347 544.578 48.72 543.831 48.72C543.084 48.72 542.519 49.0347 542.135 49.664C541.751 50.2933 541.559 51.2053 541.559 52.4C541.559 53.5947 541.751 54.5067 542.135 55.136ZM553.962 58.224C552.565 58.224 551.466 57.696 550.666 56.64C549.877 55.5733 549.482 54.16 549.482 52.4C549.482 50.64 549.877 49.232 550.666 48.176C551.466 47.1093 552.565 46.576 553.962 46.576C555.37 46.576 556.469 47.1093 557.258 48.176C558.047 49.232 558.442 50.64 558.442 52.4C558.442 54.16 558.047 55.5733 557.258 56.64C556.469 57.696 555.37 58.224 553.962 58.224ZM552.266 55.136C552.65 55.7547 553.215 56.064 553.962 56.064C554.709 56.064 555.274 55.7493 555.658 55.12C556.053 54.4907 556.25 53.584 556.25 52.4C556.25 51.2053 556.053 50.2933 555.658 49.664C555.274 49.0347 554.709 48.72 553.962 48.72C553.215 48.72 552.65 49.0347 552.266 49.664C551.882 50.2933 551.69 51.2053 551.69 52.4C551.69 53.5947 551.882 54.5067 552.266 55.136Z" fill="#6FBB5B"/>
<path d="M10.648 51.344C11.4053 51.568 12.0187 51.9627 12.488 52.528C12.968 53.0827 13.208 53.7547 13.208 54.544C13.208 55.696 12.8187 56.5973 12.04 57.248C11.272 57.8987 10.328 58.224 9.208 58.224C8.33333 58.224 7.54933 58.0267 6.856 57.632C6.17333 57.2267 5.67733 56.6347 5.368 55.856L7.256 54.768C7.53333 55.632 8.184 56.064 9.208 56.064C9.77333 56.064 10.2107 55.9307 10.52 55.664C10.84 55.3867 11 55.0133 11 54.544C11 54.0853 10.84 53.7173 10.52 53.44C10.2107 53.1627 9.77333 53.024 9.208 53.024H8.728L7.88 51.744L10.088 48.864H5.704V46.8H12.744V48.624L10.648 51.344ZM18.8116 58.224C17.4142 58.224 16.3156 57.696 15.5156 56.64C14.7262 55.5733 14.3316 54.16 14.3316 52.4C14.3316 50.64 14.7262 49.232 15.5156 48.176C16.3156 47.1093 17.4142 46.576 18.8116 46.576C20.2196 46.576 21.3182 47.1093 22.1076 48.176C22.8969 49.232 23.2916 50.64 23.2916 52.4C23.2916 54.16 22.8969 55.5733 22.1076 56.64C21.3182 57.696 20.2196 58.224 18.8116 58.224ZM17.1156 55.136C17.4996 55.7547 18.0649 56.064 18.8116 56.064C19.5582 56.064 20.1236 55.7493 20.5076 55.12C20.9022 54.4907 21.0996 53.584 21.0996 52.4C21.0996 51.2053 20.9022 50.2933 20.5076 49.664C20.1236 49.0347 19.5582 48.72 18.8116 48.72C18.0649 48.72 17.4996 49.0347 17.1156 49.664C16.7316 50.2933 16.5396 51.2053 16.5396 52.4C16.5396 53.5947 16.7316 54.5067 17.1156 55.136ZM28.9425 58.224C27.5451 58.224 26.4465 57.696 25.6465 56.64C24.8571 55.5733 24.4625 54.16 24.4625 52.4C24.4625 50.64 24.8571 49.232 25.6465 48.176C26.4465 47.1093 27.5451 46.576 28.9425 46.576C30.3505 46.576 31.4491 47.1093 32.2385 48.176C33.0278 49.232 33.4225 50.64 33.4225 52.4C33.4225 54.16 33.0278 55.5733 32.2385 56.64C31.4491 57.696 30.3505 58.224 28.9425 58.224ZM27.2465 55.136C27.6305 55.7547 28.1958 56.064 28.9425 56.064C29.6891 56.064 30.2545 55.7493 30.6385 55.12C31.0331 54.4907 31.2305 53.584 31.2305 52.4C31.2305 51.2053 31.0331 50.2933 30.6385 49.664C30.2545 49.0347 29.6891 48.72 28.9425 48.72C28.1958 48.72 27.6305 49.0347 27.2465 49.664C26.8625 50.2933 26.6705 51.2053 26.6705 52.4C26.6705 53.5947 26.8625 54.5067 27.2465 55.136Z" fill="#FF5651"/>
<path opacity="0.2" d="M5 70H559" stroke="#1B79E6" stroke-width="5" stroke-linecap="round"/>
<path d="M5 70H361" stroke="url(#paint0_linear_0_1)" stroke-width="10" stroke-linecap="round"/>
<path d="M347.238 97.2029L359.711 84.4176C360.153 83.8505 360.999 83.863 361.425 84.4429L373.781 97.2283C374.317 97.9583 373.807 99 372.915 99H348.085C347.178 99 346.673 97.9283 347.238 97.2029Z" fill="#243257"/>
<defs>
<linearGradient id="paint0_linear_0_1" x1="-5.36302" y1="70" x2="550.01" y2="70" gradientUnits="userSpaceOnUse">
<stop stop-color="#FF5353"/>
<stop offset="0.530647" stop-color="#FFA603"/>
<stop offset="1" stop-color="#6FBB5B"/>
</linearGradient>
</defs>
</svg>
