<svg width="14" height="18" viewBox="0 0 14 18" fill="none" xmlns="http://www.w3.org/2000/svg">
<path d="M10.376 4.66759V5.00359H13.16V6.97159H10.232C10.056 8.04359 9.72 8.89959 9.224 9.53959C8.744 10.1636 8.056 10.6196 7.16 10.9076C6.264 11.1796 5.104 11.3156 3.68 11.3156V12.8276C3.68 13.7076 3.864 14.4036 4.232 14.9156C4.616 15.4276 5.256 15.6836 6.152 15.6836C7.784 15.6836 8.6 14.7636 8.6 12.9236H11.12C11.104 14.5396 10.664 15.7636 9.8 16.5956C8.952 17.4116 7.72 17.8196 6.104 17.8196C4.488 17.8196 3.248 17.3716 2.384 16.4756C1.536 15.5796 1.112 14.3236 1.112 12.7076V9.41959C2.888 9.41959 4.192 9.37159 5.024 9.27559C5.856 9.16359 6.472 8.93959 6.872 8.60359C7.288 8.26759 7.56 7.72359 7.688 6.97159H0.104V5.00359H7.808V4.66759V2.86759H0.104V0.875589H13.16V2.86759H10.376V4.66759Z" fill="#1B79E6"/>
</svg>
